SplineFontDB: 3.0
FontName: Auvaiyar-Regular
FullName: Auvaiyar
FamilyName: Auvaiyar
Weight: Book
Copyright: Copyright (c) 1995-2015, NLCI (http://www.nlci.in/fonts/) Derived from TAM Auvaiyar Normal by ttfbuilder v0.33
Version: 1.0 Wed Feb 01 17:13:14 1995
ItalicAngle: 0
UnderlinePosition: -310
UnderlineWidth: 20
Ascent: 800
Descent: 200
InvalidEm: 0
sfntRevision: 0x00010000
LayerCount: 2
Layer: 0 1 "Back" 1
Layer: 1 1 "Fore" 0
XUID: [1021 735 706440548 1419291]
StyleMap: 0x0040
FSType: 0
OS2Version: 1
OS2_WeightWidthSlopeOnly: 0
OS2_UseTypoMetrics: 0
CreationTime: 1534550734
ModificationTime: 1534550772
PfmFamily: 17
TTFWeight: 400
TTFWidth: 5
LineGap: 0
VLineGap: 0
Panose: 2 0 0 3 0 0 0 0 0 0
OS2TypoAscent: 750
OS2TypoAOffset: 0
OS2TypoDescent: -329
OS2TypoDOffset: 0
OS2TypoLinegap: 0
OS2WinAscent: 750
OS2WinAOffset: 0
OS2WinDescent: 329
OS2WinDOffset: 0
HheadAscent: 750
HheadAOffset: 0
HheadDescent: -329
HheadDOffset: 0
OS2SubXSize: 700
OS2SubYSize: 650
OS2SubXOff: 0
OS2SubYOff: 143
OS2SupXSize: 700
OS2SupYSize: 650
OS2SupXOff: 0
OS2SupYOff: 453
OS2StrikeYSize: 50
OS2StrikeYPos: 259
OS2Vendor: 'Alts'
OS2CodePages: 20000001.00000000
OS2UnicodeRanges: a01080ff.520021cb.08000028.00000000
Lookup: 260 0 0 "_holdAnchorsbase" { "_someAnchorsbase"  } []
DEI: 91125
ShortTable: maxp 16
  1
  0
  339
  246
  12
  340
  16
  1
  0
  0
  0
  0
  122
  0
  3
  2
EndShort

StartChar: .notdef
Encoding: 0 -1 0
Width: 500
Flags: W
LayerCount: 2
Fore
SplineSet
31 0 m 1,0,-1
 31 750 l 1,1,-1
 469 750 l 1,2,-1
 469 0 l 1,3,-1
 31 0 l 1,0,-1
438 31 m 1,4,-1
 438 719 l 1,5,-1
 62 719 l 1,6,-1
 62 31 l 1,7,-1
 438 31 l 1,4,-1
EndSplineSet
EndChar

StartChar: exclam
Encoding: 4 33 4
Width: 337
VWidth: 488
Flags: W
LayerCount: 2
Fore
SplineSet
229.98046875 622.0703125 m 0,0,1
 229.98046875 619.140625 229.98046875 619.140625 228.271484375 598.388671875 c 0,2,3
 226.5625 577.63671875 226.5625 577.63671875 224.12109375 546.142578125 c 0,4,5
 221.6796875 514.6484375 221.6796875 514.6484375 218.505859375 475.341796875 c 0,6,7
 215.33203125 436.03515625 215.33203125 436.03515625 211.9140625 395.5078125 c 0,8,9
 203.61328125 300.29296875 203.61328125 300.29296875 193.84765625 181.15234375 c 0,10,-1
 145.01953125 181.15234375 l 0,11,12
 134.765625 300.29296875 134.765625 300.29296875 126.46484375 395.5078125 c 0,13,14
 123.046875 436.03515625 123.046875 436.03515625 119.62890625 475.341796875 c 0,15,16
 116.2109375 514.6484375 116.2109375 514.6484375 113.76953125 546.142578125 c 0,17,18
 111.328125 577.63671875 111.328125 577.63671875 109.619140625 598.388671875 c 0,19,20
 107.91015625 619.140625 107.91015625 619.140625 107.91015625 622.0703125 c 0,21,22
 107.91015625 652.34375 107.91015625 652.34375 122.55859375 669.677734375 c 0,23,24
 137.20703125 687.01171875 137.20703125 687.01171875 168.9453125 687.01171875 c 0,25,26
 200.68359375 687.01171875 200.68359375 687.01171875 215.33203125 669.677734375 c 0,27,28
 229.98046875 652.34375 229.98046875 652.34375 229.98046875 622.0703125 c 0,0,1
230.95703125 49.8046875 m 0,29,30
 230.95703125 37.59765625 230.95703125 37.59765625 226.07421875 26.3671875 c 0,31,32
 221.19140625 15.13671875 221.19140625 15.13671875 212.646484375 6.591796875 c 0,33,34
 204.1015625 -1.953125 204.1015625 -1.953125 192.87109375 -7.080078125 c 0,35,36
 181.640625 -12.20703125 181.640625 -12.20703125 168.9453125 -12.20703125 c 0,37,38
 156.25 -12.20703125 156.25 -12.20703125 145.01953125 -7.080078125 c 0,39,40
 133.7890625 -1.953125 133.7890625 -1.953125 125.48828125 6.591796875 c 0,41,42
 117.1875 15.13671875 117.1875 15.13671875 112.548828125 26.3671875 c 0,43,44
 107.91015625 37.59765625 107.91015625 37.59765625 107.91015625 49.8046875 c 0,45,46
 107.91015625 62.5 107.91015625 62.5 112.548828125 73.73046875 c 0,47,48
 117.1875 84.9609375 117.1875 84.9609375 125.48828125 93.26171875 c 0,49,50
 133.7890625 101.5625 133.7890625 101.5625 145.01953125 106.201171875 c 0,51,52
 156.25 110.83984375 156.25 110.83984375 168.9453125 110.83984375 c 0,53,54
 181.640625 110.83984375 181.640625 110.83984375 192.87109375 106.201171875 c 0,55,56
 204.1015625 101.5625 204.1015625 101.5625 212.646484375 93.26171875 c 0,57,58
 221.19140625 84.9609375 221.19140625 84.9609375 226.07421875 73.73046875 c 0,59,60
 230.95703125 62.5 230.95703125 62.5 230.95703125 49.8046875 c 0,29,30
EndSplineSet
EndChar

StartChar: quotedbl
Encoding: 5 34 5
Width: 333
VWidth: 488
Flags: W
LayerCount: 2
Fore
SplineSet
254.8828125 420.8984375 m 0,0,-1
 238.76953125 420.8984375 l 0,1,-1
 205.078125 665.0390625 l 0,2,3
 205.078125 688.4765625 205.078125 688.4765625 215.8203125 701.171875 c 0,4,5
 226.5625 713.8671875 226.5625 713.8671875 247.0703125 713.8671875 c 0,6,7
 268.06640625 713.8671875 268.06640625 713.8671875 279.052734375 701.171875 c 0,8,9
 290.0390625 688.4765625 290.0390625 688.4765625 290.0390625 665.0390625 c 0,10,-1
 254.8828125 420.8984375 l 0,0,-1
94.23828125 420.8984375 m 0,11,-1
 78.125 420.8984375 l 0,12,-1
 42.96875 665.0390625 l 0,13,14
 42.96875 688.4765625 42.96875 688.4765625 54.19921875 701.171875 c 0,15,16
 65.4296875 713.8671875 65.4296875 713.8671875 85.9375 713.8671875 c 0,17,18
 106.93359375 713.8671875 106.93359375 713.8671875 117.431640625 701.171875 c 0,19,20
 127.9296875 688.4765625 127.9296875 688.4765625 127.9296875 665.0390625 c 0,21,-1
 94.23828125 420.8984375 l 0,11,-1
EndSplineSet
EndChar

StartChar: numbersign
Encoding: 6 35 6
Width: 743
VWidth: 488
Flags: W
LayerCount: 2
Fore
SplineSet
523.92578125 420.8984375 m 0,0,-1
 477.05078125 277.83203125 l 0,1,-1
 638.18359375 277.83203125 l 0,2,-1
 638.18359375 228.02734375 l 0,3,-1
 458.984375 228.02734375 l 0,4,-1
 375 -22.94921875 l 0,5,-1
 325.1953125 -6.8359375 l 0,6,-1
 402.83203125 228.02734375 l 0,7,-1
 257.8125 228.02734375 l 0,8,-1
 172.8515625 -22.94921875 l 0,9,-1
 124.0234375 -5.859375 l 0,10,-1
 204.1015625 228.02734375 l 0,11,-1
 62.01171875 228.02734375 l 0,12,-1
 62.01171875 277.83203125 l 0,13,-1
 220.21484375 277.83203125 l 0,14,-1
 269.04296875 420.8984375 l 0,15,-1
 106.93359375 420.8984375 l 0,16,-1
 106.93359375 472.16796875 l 0,17,-1
 286.1328125 472.16796875 l 0,18,-1
 366.2109375 708.0078125 l 0,19,-1
 416.9921875 691.89453125 l 0,20,-1
 339.84375 472.16796875 l 0,21,-1
 485.83984375 472.16796875 l 0,22,-1
 564.94140625 708.0078125 l 0,23,-1
 618.1640625 691.89453125 l 0,24,-1
 541.9921875 472.16796875 l 0,25,-1
 682.12890625 472.16796875 l 0,26,-1
 682.12890625 420.8984375 l 0,27,-1
 523.92578125 420.8984375 l 0,0,-1
324.21875 420.8984375 m 0,28,-1
 274.90234375 277.83203125 l 0,29,-1
 419.921875 277.83203125 l 0,30,-1
 469.23828125 420.8984375 l 0,31,-1
 324.21875 420.8984375 l 0,28,-1
EndSplineSet
EndChar

StartChar: dollar
Encoding: 7 36 7
Width: 562
VWidth: 488
Flags: W
LayerCount: 2
Fore
SplineSet
504.8828125 189.94140625 m 0,0,1
 504.8828125 159.1796875 504.8828125 159.1796875 494.62890625 133.30078125 c 0,2,3
 484.375 107.421875 484.375 107.421875 468.017578125 86.669921875 c 0,4,5
 451.66015625 65.91796875 451.66015625 65.91796875 430.419921875 50.29296875 c 0,6,7
 409.1796875 34.66796875 409.1796875 34.66796875 386.962890625 23.681640625 c 0,8,9
 364.74609375 12.6953125 364.74609375 12.6953125 343.75 6.8359375 c 0,10,11
 322.75390625 0.9765625 322.75390625 0.9765625 306.15234375 0 c 0,12,-1
 306.15234375 -103.02734375 l 0,13,-1
 259.765625 -103.02734375 l 0,14,-1
 259.765625 0 l 0,15,16
 241.2109375 0.9765625 241.2109375 0.9765625 216.796875 2.44140625 c 0,17,18
 192.3828125 3.90625 192.3828125 3.90625 165.771484375 6.591796875 c 0,19,20
 139.16015625 9.27734375 139.16015625 9.27734375 111.328125 13.916015625 c 0,21,22
 83.49609375 18.5546875 83.49609375 18.5546875 58.10546875 25.87890625 c 0,23,-1
 58.10546875 195.80078125 l 0,24,-1
 107.91015625 195.80078125 l 0,25,-1
 125.9765625 83.984375 l 0,26,27
 132.8125 75.68359375 132.8125 75.68359375 146.728515625 69.091796875 c 0,28,29
 160.64453125 62.5 160.64453125 62.5 178.955078125 58.10546875 c 0,30,31
 197.265625 53.7109375 197.265625 53.7109375 218.26171875 51.26953125 c 0,32,33
 239.2578125 48.828125 239.2578125 48.828125 259.765625 48.828125 c 0,34,-1
 259.765625 301.7578125 l 0,35,36
 227.05078125 309.08203125 227.05078125 309.08203125 194.091796875 322.509765625 c 0,37,38
 161.1328125 335.9375 161.1328125 335.9375 134.521484375 357.421875 c 0,39,40
 107.91015625 378.90625 107.91015625 378.90625 91.064453125 409.912109375 c 0,41,42
 74.21875 440.91796875 74.21875 440.91796875 74.21875 483.88671875 c 0,43,44
 74.21875 514.16015625 74.21875 514.16015625 82.51953125 538.818359375 c 0,45,46
 90.8203125 563.4765625 90.8203125 563.4765625 104.98046875 582.763671875 c 0,47,48
 119.140625 602.05078125 119.140625 602.05078125 137.939453125 616.69921875 c 0,49,50
 156.73828125 631.34765625 156.73828125 631.34765625 177.490234375 641.6015625 c 0,51,52
 198.2421875 651.85546875 198.2421875 651.85546875 219.970703125 658.447265625 c 0,53,54
 241.69921875 665.0390625 241.69921875 665.0390625 261.23046875 667.96875 c 0,55,-1
 261.23046875 743.1640625 l 0,56,-1
 307.12890625 743.1640625 l 0,57,-1
 307.12890625 670.8984375 l 0,58,59
 339.35546875 670.8984375 339.35546875 670.8984375 369.873046875 667.236328125 c 0,60,61
 400.390625 663.57421875 400.390625 663.57421875 424.31640625 659.1796875 c 0,62,63
 452.1484375 653.80859375 452.1484375 653.80859375 477.05078125 647.94921875 c 0,64,-1
 477.05078125 490.234375 l 0,65,-1
 424.8046875 490.234375 l 0,66,-1
 410.15625 596.19140625 l 0,67,68
 386.71875 622.0703125 386.71875 622.0703125 307.12890625 622.0703125 c 0,69,-1
 307.12890625 383.7890625 l 0,70,71
 328.61328125 377.44140625 328.61328125 377.44140625 351.806640625 370.1171875 c 0,72,73
 375 362.79296875 375 362.79296875 396.97265625 352.5390625 c 0,74,75
 418.9453125 342.28515625 418.9453125 342.28515625 438.4765625 328.61328125 c 0,76,77
 458.0078125 314.94140625 458.0078125 314.94140625 472.900390625 295.41015625 c 0,78,79
 487.79296875 275.87890625 487.79296875 275.87890625 496.337890625 250 c 0,80,81
 504.8828125 224.12109375 504.8828125 224.12109375 504.8828125 189.94140625 c 0,0,1
261.23046875 618.1640625 m 0,82,83
 241.2109375 613.76953125 241.2109375 613.76953125 224.12109375 604.736328125 c 0,84,85
 207.03125 595.703125 207.03125 595.703125 194.3359375 581.54296875 c 0,86,87
 181.640625 567.3828125 181.640625 567.3828125 174.31640625 548.095703125 c 0,88,89
 166.9921875 528.80859375 166.9921875 528.80859375 166.9921875 503.90625 c 0,90,91
 166.9921875 479.4921875 166.9921875 479.4921875 176.025390625 461.9140625 c 0,92,93
 185.05859375 444.3359375 185.05859375 444.3359375 198.73046875 431.884765625 c 0,94,95
 212.40234375 419.43359375 212.40234375 419.43359375 229.00390625 411.1328125 c 0,96,97
 245.60546875 402.83203125 245.60546875 402.83203125 261.23046875 396.97265625 c 0,98,-1
 261.23046875 618.1640625 l 0,82,83
414.0625 170.8984375 m 0,99,100
 414.0625 198.2421875 414.0625 198.2421875 405.2734375 217.7734375 c 0,101,102
 396.484375 237.3046875 396.484375 237.3046875 381.34765625 251.220703125 c 0,103,104
 366.2109375 265.13671875 366.2109375 265.13671875 346.6796875 274.169921875 c 0,105,106
 327.1484375 283.203125 327.1484375 283.203125 306.15234375 290.0390625 c 0,107,-1
 306.15234375 53.22265625 l 0,108,109
 327.1484375 56.640625 327.1484375 56.640625 346.6796875 65.4296875 c 0,110,111
 366.2109375 74.21875 366.2109375 74.21875 381.34765625 88.623046875 c 0,112,113
 396.484375 103.02734375 396.484375 103.02734375 405.2734375 123.53515625 c 0,114,115
 414.0625 144.04296875 414.0625 144.04296875 414.0625 170.8984375 c 0,99,100
EndSplineSet
EndChar

StartChar: percent
Encoding: 8 37 8
Width: 859
VWidth: 488
Flags: W
LayerCount: 2
Fore
SplineSet
828.125 193.84765625 m 0,0,1
 828.125 149.4140625 828.125 149.4140625 818.603515625 111.083984375 c 0,2,3
 809.08203125 72.75390625 809.08203125 72.75390625 790.0390625 44.43359375 c 0,4,5
 770.99609375 16.11328125 770.99609375 16.11328125 742.1875 0 c 0,6,7
 713.37890625 -16.11328125 713.37890625 -16.11328125 674.8046875 -16.11328125 c 0,8,9
 636.23046875 -16.11328125 636.23046875 -16.11328125 607.421875 0 c 0,10,11
 578.61328125 16.11328125 578.61328125 16.11328125 559.326171875 44.43359375 c 0,12,13
 540.0390625 72.75390625 540.0390625 72.75390625 530.517578125 111.083984375 c 0,14,15
 520.99609375 149.4140625 520.99609375 149.4140625 520.99609375 193.84765625 c 0,16,17
 520.99609375 238.28125 520.99609375 238.28125 530.517578125 276.85546875 c 0,18,19
 540.0390625 315.4296875 540.0390625 315.4296875 559.326171875 343.505859375 c 0,20,21
 578.61328125 371.58203125 578.61328125 371.58203125 607.421875 387.6953125 c 0,22,23
 636.23046875 403.80859375 636.23046875 403.80859375 674.8046875 403.80859375 c 0,24,25
 713.37890625 403.80859375 713.37890625 403.80859375 742.1875 387.6953125 c 0,26,27
 770.99609375 371.58203125 770.99609375 371.58203125 790.0390625 343.505859375 c 0,28,29
 809.08203125 315.4296875 809.08203125 315.4296875 818.603515625 276.85546875 c 0,30,31
 828.125 238.28125 828.125 238.28125 828.125 193.84765625 c 0,0,1
250 0 m 0,32,-1
 187.01171875 0 l 0,33,-1
 611.81640625 670.8984375 l 0,34,-1
 673.828125 670.8984375 l 0,35,-1
 250 0 l 0,32,-1
338.8671875 477.05078125 m 0,36,37
 338.8671875 432.12890625 338.8671875 432.12890625 329.58984375 393.798828125 c 0,38,39
 320.3125 355.46875 320.3125 355.46875 301.26953125 327.392578125 c 0,40,41
 282.2265625 299.31640625 282.2265625 299.31640625 253.41796875 283.203125 c 0,42,43
 224.609375 267.08984375 224.609375 267.08984375 186.03515625 267.08984375 c 0,44,45
 147.4609375 267.08984375 147.4609375 267.08984375 118.65234375 283.203125 c 0,46,47
 89.84375 299.31640625 89.84375 299.31640625 70.556640625 327.392578125 c 0,48,49
 51.26953125 355.46875 51.26953125 355.46875 41.748046875 393.798828125 c 0,50,51
 32.2265625 432.12890625 32.2265625 432.12890625 32.2265625 477.05078125 c 0,52,53
 32.2265625 521.484375 32.2265625 521.484375 41.748046875 560.05859375 c 0,54,55
 51.26953125 598.6328125 51.26953125 598.6328125 70.556640625 626.708984375 c 0,56,57
 89.84375 654.78515625 89.84375 654.78515625 118.65234375 670.8984375 c 0,58,59
 147.4609375 687.01171875 147.4609375 687.01171875 186.03515625 687.01171875 c 0,60,61
 224.609375 687.01171875 224.609375 687.01171875 253.41796875 670.8984375 c 0,62,63
 282.2265625 654.78515625 282.2265625 654.78515625 301.26953125 626.708984375 c 0,64,65
 320.3125 598.6328125 320.3125 598.6328125 329.58984375 560.05859375 c 0,66,67
 338.8671875 521.484375 338.8671875 521.484375 338.8671875 477.05078125 c 0,36,37
750.9765625 193.84765625 m 0,68,69
 750.9765625 233.3984375 750.9765625 233.3984375 746.58203125 265.13671875 c 0,70,71
 742.1875 296.875 742.1875 296.875 733.154296875 319.3359375 c 0,72,73
 724.12109375 341.796875 724.12109375 341.796875 709.716796875 354.00390625 c 0,74,75
 695.3125 366.2109375 695.3125 366.2109375 674.8046875 366.2109375 c 0,76,77
 654.78515625 366.2109375 654.78515625 366.2109375 639.892578125 354.00390625 c 0,78,79
 625 341.796875 625 341.796875 615.234375 319.3359375 c 0,80,81
 605.46875 296.875 605.46875 296.875 600.830078125 265.13671875 c 0,82,83
 596.19140625 233.3984375 596.19140625 233.3984375 596.19140625 193.84765625 c 0,84,85
 596.19140625 154.296875 596.19140625 154.296875 600.830078125 122.55859375 c 0,86,87
 605.46875 90.8203125 605.46875 90.8203125 615.234375 68.115234375 c 0,88,89
 625 45.41015625 625 45.41015625 639.892578125 33.203125 c 0,90,91
 654.78515625 20.99609375 654.78515625 20.99609375 674.8046875 20.99609375 c 0,92,93
 695.3125 20.99609375 695.3125 20.99609375 709.716796875 33.203125 c 0,94,95
 724.12109375 45.41015625 724.12109375 45.41015625 733.154296875 68.115234375 c 0,96,97
 742.1875 90.8203125 742.1875 90.8203125 746.58203125 122.55859375 c 0,98,99
 750.9765625 154.296875 750.9765625 154.296875 750.9765625 193.84765625 c 0,68,69
262.20703125 477.05078125 m 0,100,101
 262.20703125 516.6015625 262.20703125 516.6015625 257.8125 548.33984375 c 0,102,103
 253.41796875 580.078125 253.41796875 580.078125 244.384765625 602.294921875 c 0,104,105
 235.3515625 624.51171875 235.3515625 624.51171875 220.947265625 636.71875 c 0,106,107
 206.54296875 648.92578125 206.54296875 648.92578125 186.03515625 648.92578125 c 0,108,109
 165.52734375 648.92578125 165.52734375 648.92578125 150.634765625 636.71875 c 0,110,111
 135.7421875 624.51171875 135.7421875 624.51171875 125.9765625 602.294921875 c 0,112,113
 116.2109375 580.078125 116.2109375 580.078125 111.572265625 548.33984375 c 0,114,115
 106.93359375 516.6015625 106.93359375 516.6015625 106.93359375 477.05078125 c 0,116,117
 106.93359375 437.5 106.93359375 437.5 111.572265625 405.76171875 c 0,118,119
 116.2109375 374.0234375 116.2109375 374.0234375 125.9765625 351.806640625 c 0,120,121
 135.7421875 329.58984375 135.7421875 329.58984375 150.634765625 317.3828125 c 0,122,123
 165.52734375 305.17578125 165.52734375 305.17578125 186.03515625 305.17578125 c 0,124,125
 206.54296875 305.17578125 206.54296875 305.17578125 220.947265625 317.3828125 c 0,126,127
 235.3515625 329.58984375 235.3515625 329.58984375 244.384765625 351.806640625 c 0,128,129
 253.41796875 374.0234375 253.41796875 374.0234375 257.8125 405.76171875 c 0,130,131
 262.20703125 437.5 262.20703125 437.5 262.20703125 477.05078125 c 0,100,101
EndSplineSet
EndChar

StartChar: ampersand
Encoding: 9 38 9
Width: 699
VWidth: 488
Flags: W
LayerCount: 2
Fore
SplineSet
495.1171875 0 m 0,0,-1
 495.1171875 23.92578125 l 0,1,-1
 450.1953125 74.21875 l 0,2,3
 430.6640625 58.59375 430.6640625 58.59375 409.66796875 43.212890625 c 0,4,5
 388.671875 27.83203125 388.671875 27.83203125 364.2578125 15.625 c 0,6,7
 339.84375 3.41796875 339.84375 3.41796875 311.03515625 -4.39453125 c 0,8,9
 282.2265625 -12.20703125 282.2265625 -12.20703125 247.0703125 -12.20703125 c 0,10,11
 204.1015625 -12.20703125 204.1015625 -12.20703125 166.259765625 2.685546875 c 0,12,13
 128.41796875 17.578125 128.41796875 17.578125 100.09765625 43.9453125 c 0,14,15
 71.77734375 70.3125 71.77734375 70.3125 55.419921875 106.689453125 c 0,16,17
 39.0625 143.06640625 39.0625 143.06640625 39.0625 186.03515625 c 0,18,19
 39.0625 218.75 39.0625 218.75 48.828125 245.849609375 c 0,20,21
 58.59375 272.94921875 58.59375 272.94921875 76.416015625 294.677734375 c 0,22,23
 94.23828125 316.40625 94.23828125 316.40625 118.896484375 333.0078125 c 0,24,25
 143.5546875 349.609375 143.5546875 349.609375 172.8515625 361.81640625 c 0,26,27
 164.55078125 370.1171875 164.55078125 370.1171875 150.390625 384.521484375 c 0,28,29
 136.23046875 398.92578125 136.23046875 398.92578125 122.55859375 418.45703125 c 0,30,31
 108.88671875 437.98828125 108.88671875 437.98828125 98.876953125 462.40234375 c 0,32,33
 88.8671875 486.81640625 88.8671875 486.81640625 88.8671875 515.13671875 c 0,34,35
 88.8671875 552.734375 88.8671875 552.734375 103.271484375 583.740234375 c 0,36,37
 117.67578125 614.74609375 117.67578125 614.74609375 143.310546875 637.20703125 c 0,38,39
 168.9453125 659.66796875 168.9453125 659.66796875 203.61328125 671.875 c 0,40,41
 238.28125 684.08203125 238.28125 684.08203125 278.80859375 684.08203125 c 0,42,43
 316.89453125 684.08203125 316.89453125 684.08203125 349.12109375 672.607421875 c 0,44,45
 381.34765625 661.1328125 381.34765625 661.1328125 404.78515625 641.11328125 c 0,46,47
 428.22265625 621.09375 428.22265625 621.09375 441.650390625 593.505859375 c 0,48,49
 455.078125 565.91796875 455.078125 565.91796875 455.078125 533.203125 c 0,50,51
 455.078125 496.58203125 455.078125 496.58203125 442.3828125 469.23828125 c 0,52,53
 429.6875 441.89453125 429.6875 441.89453125 408.935546875 421.38671875 c 0,54,55
 388.18359375 400.87890625 388.18359375 400.87890625 361.81640625 385.498046875 c 0,56,57
 335.44921875 370.1171875 335.44921875 370.1171875 308.10546875 357.91015625 c 0,58,-1
 476.07421875 176.7578125 l 0,59,60
 483.88671875 187.01171875 483.88671875 187.01171875 492.919921875 201.171875 c 0,61,62
 501.953125 215.33203125 501.953125 215.33203125 510.009765625 230.95703125 c 0,63,64
 518.06640625 246.58203125 518.06640625 246.58203125 524.169921875 262.939453125 c 0,65,66
 530.2734375 279.296875 530.2734375 279.296875 532.2265625 293.9453125 c 0,67,68
 532.71484375 298.33984375 532.71484375 298.33984375 527.099609375 305.17578125 c 0,69,70
 521.484375 312.01171875 521.484375 312.01171875 515.13671875 312.98828125 c 0,71,-1
 460.9375 320.80078125 l 0,72,-1
 460.9375 362.79296875 l 0,73,-1
 666.015625 362.79296875 l 0,74,-1
 666.015625 320.80078125 l 0,75,-1
 594.23828125 310.05859375 l 0,76,77
 586.9140625 284.66796875 586.9140625 284.66796875 576.904296875 260.7421875 c 0,78,79
 566.89453125 236.81640625 566.89453125 236.81640625 555.419921875 215.087890625 c 0,80,81
 543.9453125 193.359375 543.9453125 193.359375 531.73828125 174.8046875 c 0,82,83
 519.53125 156.25 519.53125 156.25 508.7890625 141.11328125 c 0,84,-1
 589.84375 47.8515625 l 0,85,-1
 679.19921875 42.96875 l 0,86,-1
 679.19921875 0 l 0,87,-1
 495.1171875 0 l 0,0,-1
362.79296875 526.85546875 m 0,88,89
 362.79296875 548.33984375 362.79296875 548.33984375 357.177734375 567.87109375 c 0,90,91
 351.5625 587.40234375 351.5625 587.40234375 339.84375 602.294921875 c 0,92,93
 328.125 617.1875 328.125 617.1875 310.546875 625.9765625 c 0,94,95
 292.96875 634.765625 292.96875 634.765625 269.04296875 634.765625 c 0,96,97
 248.53515625 634.765625 248.53515625 634.765625 231.93359375 627.44140625 c 0,98,99
 215.33203125 620.1171875 215.33203125 620.1171875 203.61328125 607.421875 c 0,100,101
 191.89453125 594.7265625 191.89453125 594.7265625 185.546875 577.63671875 c 0,102,103
 179.19921875 560.546875 179.19921875 560.546875 179.19921875 541.015625 c 0,104,105
 179.19921875 516.11328125 179.19921875 516.11328125 188.720703125 494.384765625 c 0,106,107
 198.2421875 472.65625 198.2421875 472.65625 212.158203125 454.345703125 c 0,108,109
 226.07421875 436.03515625 226.07421875 436.03515625 242.1875 420.654296875 c 0,110,111
 258.30078125 405.2734375 258.30078125 405.2734375 271.97265625 392.08984375 c 0,112,113
 293.9453125 402.83203125 293.9453125 402.83203125 310.791015625 415.771484375 c 0,114,115
 327.63671875 428.7109375 327.63671875 428.7109375 339.111328125 445.068359375 c 0,116,117
 350.5859375 461.42578125 350.5859375 461.42578125 356.689453125 481.689453125 c 0,118,119
 362.79296875 501.953125 362.79296875 501.953125 362.79296875 526.85546875 c 0,88,89
211.9140625 333.0078125 m 0,120,121
 196.77734375 322.75390625 196.77734375 322.75390625 183.837890625 310.302734375 c 0,122,123
 170.8984375 297.8515625 170.8984375 297.8515625 161.1328125 282.958984375 c 0,124,125
 151.3671875 268.06640625 151.3671875 268.06640625 145.751953125 249.755859375 c 0,126,127
 140.13671875 231.4453125 140.13671875 231.4453125 140.13671875 208.984375 c 0,128,129
 140.13671875 175.29296875 140.13671875 175.29296875 151.3671875 146.728515625 c 0,130,131
 162.59765625 118.1640625 162.59765625 118.1640625 182.12890625 97.412109375 c 0,132,133
 201.66015625 76.66015625 201.66015625 76.66015625 228.271484375 64.94140625 c 0,134,135
 254.8828125 53.22265625 254.8828125 53.22265625 285.15625 53.22265625 c 0,136,137
 308.10546875 53.22265625 308.10546875 53.22265625 326.904296875 57.861328125 c 0,138,139
 345.703125 62.5 345.703125 62.5 361.572265625 70.3125 c 0,140,141
 377.44140625 78.125 377.44140625 78.125 391.357421875 88.134765625 c 0,142,143
 405.2734375 98.14453125 405.2734375 98.14453125 417.96875 108.88671875 c 0,144,-1
 211.9140625 333.0078125 l 0,120,121
EndSplineSet
EndChar

StartChar: quotesingle
Encoding: 10 39 10
Width: 170
VWidth: 488
Flags: W
LayerCount: 2
Fore
SplineSet
94.23828125 420.8984375 m 0,0,-1
 78.125 420.8984375 l 0,1,-1
 42.96875 665.0390625 l 0,2,3
 42.96875 688.4765625 42.96875 688.4765625 53.7109375 701.171875 c 0,4,5
 64.453125 713.8671875 64.453125 713.8671875 84.9609375 713.8671875 c 0,6,7
 105.95703125 713.8671875 105.95703125 713.8671875 116.943359375 701.171875 c 0,8,9
 127.9296875 688.4765625 127.9296875 688.4765625 127.9296875 665.0390625 c 0,10,-1
 94.23828125 420.8984375 l 0,0,-1
EndSplineSet
EndChar

StartChar: parenleft
Encoding: 11 40 11
Width: 375
VWidth: 488
Flags: W
LayerCount: 2
Fore
SplineSet
342.7734375 -142.08984375 m 0,0,1
 290.52734375 -136.23046875 290.52734375 -136.23046875 249.267578125 -117.431640625 c 0,2,3
 208.0078125 -98.6328125 208.0078125 -98.6328125 176.513671875 -68.84765625 c 0,4,5
 145.01953125 -39.0625 145.01953125 -39.0625 122.55859375 -0.244140625 c 0,6,7
 100.09765625 38.57421875 100.09765625 38.57421875 86.181640625 84.47265625 c 0,8,9
 72.265625 130.37109375 72.265625 130.37109375 65.673828125 181.884765625 c 0,10,11
 59.08203125 233.3984375 59.08203125 233.3984375 59.08203125 288.0859375 c 0,12,13
 59.08203125 369.62890625 59.08203125 369.62890625 73.974609375 443.603515625 c 0,14,15
 88.8671875 517.578125 88.8671875 517.578125 122.55859375 575.439453125 c 0,16,17
 156.25 633.30078125 156.25 633.30078125 210.205078125 670.654296875 c 0,18,19
 264.16015625 708.0078125 264.16015625 708.0078125 342.7734375 716.796875 c 0,20,-1
 342.7734375 672.8515625 l 0,21,22
 290.0390625 664.0625 290.0390625 664.0625 253.662109375 634.033203125 c 0,23,24
 217.28515625 604.00390625 217.28515625 604.00390625 194.580078125 554.931640625 c 0,25,26
 171.875 505.859375 171.875 505.859375 161.865234375 438.4765625 c 0,27,28
 151.85546875 371.09375 151.85546875 371.09375 151.85546875 288.0859375 c 0,29,30
 151.85546875 204.58984375 151.85546875 204.58984375 161.865234375 137.20703125 c 0,31,32
 171.875 69.82421875 171.875 69.82421875 194.580078125 20.263671875 c 0,33,34
 217.28515625 -29.296875 217.28515625 -29.296875 253.662109375 -59.326171875 c 0,35,36
 290.0390625 -89.35546875 290.0390625 -89.35546875 342.7734375 -98.14453125 c 0,37,-1
 342.7734375 -142.08984375 l 0,0,1
EndSplineSet
EndChar

StartChar: parenright
Encoding: 12 41 12
Width: 375
VWidth: 488
Flags: W
LayerCount: 2
Fore
SplineSet
317.87109375 288.0859375 m 0,0,1
 317.87109375 233.3984375 317.87109375 233.3984375 311.279296875 181.884765625 c 0,2,3
 304.6875 130.37109375 304.6875 130.37109375 290.771484375 84.47265625 c 0,4,5
 276.85546875 38.57421875 276.85546875 38.57421875 254.39453125 -0.244140625 c 0,6,7
 231.93359375 -39.0625 231.93359375 -39.0625 200.439453125 -68.84765625 c 0,8,9
 168.9453125 -98.6328125 168.9453125 -98.6328125 127.685546875 -117.431640625 c 0,10,11
 86.42578125 -136.23046875 86.42578125 -136.23046875 34.1796875 -142.08984375 c 0,12,-1
 34.1796875 -98.14453125 l 0,13,14
 86.9140625 -89.35546875 86.9140625 -89.35546875 123.291015625 -59.326171875 c 0,15,16
 159.66796875 -29.296875 159.66796875 -29.296875 181.884765625 20.263671875 c 0,17,18
 204.1015625 69.82421875 204.1015625 69.82421875 214.111328125 137.20703125 c 0,19,20
 224.12109375 204.58984375 224.12109375 204.58984375 224.12109375 288.0859375 c 0,21,22
 224.12109375 371.09375 224.12109375 371.09375 214.111328125 438.4765625 c 0,23,24
 204.1015625 505.859375 204.1015625 505.859375 181.884765625 554.931640625 c 0,25,26
 159.66796875 604.00390625 159.66796875 604.00390625 123.291015625 634.033203125 c 0,27,28
 86.9140625 664.0625 86.9140625 664.0625 34.1796875 672.8515625 c 0,29,-1
 34.1796875 716.796875 l 0,30,31
 112.3046875 708.0078125 112.3046875 708.0078125 166.50390625 670.654296875 c 0,32,33
 220.703125 633.30078125 220.703125 633.30078125 254.39453125 575.439453125 c 0,34,35
 288.0859375 517.578125 288.0859375 517.578125 302.978515625 443.603515625 c 0,36,37
 317.87109375 369.62890625 317.87109375 369.62890625 317.87109375 288.0859375 c 0,0,1
EndSplineSet
EndChar

StartChar: asterisk
Encoding: 13 42 13
Width: 500
VWidth: 488
Flags: W
LayerCount: 2
Fore
SplineSet
401.85546875 513.18359375 m 0,0,-1
 272.94921875 505.859375 l 0,1,-1
 268.06640625 520.01953125 l 0,2,-1
 375.9765625 590.8203125 l 0,3,-1
 446.77734375 569.82421875 l 0,4,-1
 401.85546875 513.18359375 l 0,0,-1
256.8359375 529.78515625 m 0,5,-1
 243.1640625 529.78515625 l 0,6,-1
 208.984375 654.78515625 l 0,7,-1
 250 715.8203125 l 0,8,-1
 291.9921875 654.78515625 l 0,9,-1
 256.8359375 529.78515625 l 0,5,-1
301.7578125 362.79296875 m 0,10,-1
 255.859375 482.91015625 l 0,11,-1
 268.06640625 492.1875 l 0,12,-1
 369.140625 411.1328125 l 0,13,-1
 371.09375 336.9140625 l 0,14,-1
 301.7578125 362.79296875 l 0,10,-1
228.02734375 505.859375 m 0,15,-1
 98.14453125 513.18359375 l 0,16,-1
 53.22265625 569.82421875 l 0,17,-1
 124.0234375 590.8203125 l 0,18,-1
 231.93359375 520.01953125 l 0,19,-1
 228.02734375 505.859375 l 0,15,-1
198.2421875 362.79296875 m 0,20,-1
 128.90625 336.9140625 l 0,21,-1
 130.859375 411.1328125 l 0,22,-1
 231.93359375 492.1875 l 0,23,-1
 244.140625 482.91015625 l 0,24,-1
 198.2421875 362.79296875 l 0,20,-1
EndSplineSet
EndChar

StartChar: plus
Encoding: 14 43 14
Width: 1000
VWidth: 488
Flags: W
LayerCount: 2
Fore
SplineSet
530.76171875 269.04296875 m 0,0,-1
 530.76171875 0 l 0,1,-1
 469.23828125 0 l 0,2,-1
 469.23828125 269.04296875 l 0,3,-1
 200.1953125 269.04296875 l 0,4,-1
 200.1953125 331.0546875 l 0,5,-1
 469.23828125 331.0546875 l 0,6,-1
 469.23828125 600.09765625 l 0,7,-1
 530.76171875 600.09765625 l 0,8,-1
 530.76171875 331.0546875 l 0,9,-1
 799.8046875 331.0546875 l 0,10,-1
 799.8046875 269.04296875 l 0,11,-1
 530.76171875 269.04296875 l 0,0,-1
EndSplineSet
EndChar

StartChar: comma
Encoding: 15 44 15
Width: 279
VWidth: 488
Flags: W
LayerCount: 2
Fore
SplineSet
206.0546875 9.765625 m 0,0,1
 206.0546875 -27.83203125 206.0546875 -27.83203125 191.650390625 -59.326171875 c 0,2,3
 177.24609375 -90.8203125 177.24609375 -90.8203125 153.076171875 -114.501953125 c 0,4,5
 128.90625 -138.18359375 128.90625 -138.18359375 97.65625 -152.587890625 c 0,6,7
 66.40625 -166.9921875 66.40625 -166.9921875 32.2265625 -169.921875 c 0,8,-1
 32.2265625 -133.7890625 l 0,9,10
 58.59375 -127.9296875 58.59375 -127.9296875 79.345703125 -117.919921875 c 0,11,12
 100.09765625 -107.91015625 100.09765625 -107.91015625 114.013671875 -91.552734375 c 0,13,14
 127.9296875 -75.1953125 127.9296875 -75.1953125 135.25390625 -51.26953125 c 0,15,16
 142.578125 -27.34375 142.578125 -27.34375 142.08984375 6.8359375 c 0,17,-1
 79.1015625 6.8359375 l 0,18,19
 78.125 7.8125 78.125 7.8125 75.1953125 11.474609375 c 0,20,21
 72.265625 15.13671875 72.265625 15.13671875 69.091796875 20.99609375 c 0,22,23
 65.91796875 26.85546875 65.91796875 26.85546875 63.4765625 34.912109375 c 0,24,25
 61.03515625 42.96875 61.03515625 42.96875 61.03515625 53.22265625 c 0,26,27
 61.03515625 66.40625 61.03515625 66.40625 65.673828125 78.61328125 c 0,28,29
 70.3125 90.8203125 70.3125 90.8203125 78.61328125 100.5859375 c 0,30,31
 86.9140625 110.3515625 86.9140625 110.3515625 98.14453125 116.2109375 c 0,32,33
 109.375 122.0703125 109.375 122.0703125 123.046875 122.0703125 c 0,34,35
 144.53125 122.0703125 144.53125 122.0703125 160.15625 113.525390625 c 0,36,37
 175.78125 104.98046875 175.78125 104.98046875 186.03515625 90.087890625 c 0,38,39
 196.2890625 75.1953125 196.2890625 75.1953125 201.171875 54.443359375 c 0,40,41
 206.0546875 33.69140625 206.0546875 33.69140625 206.0546875 9.765625 c 0,0,1
EndSplineSet
EndChar

StartChar: hyphen
Encoding: 16 45 16
Width: 319
VWidth: 488
Flags: W
LayerCount: 2
Fore
SplineSet
43.9453125 203.125 m 0,0,-1
 43.9453125 277.83203125 l 0,1,-1
 275.87890625 277.83203125 l 0,2,-1
 275.87890625 203.125 l 0,3,-1
 43.9453125 203.125 l 0,0,-1
EndSplineSet
EndChar

StartChar: period
Encoding: 17 46 17
Width: 279
VWidth: 488
Flags: W
LayerCount: 2
Fore
SplineSet
195.80078125 55.17578125 m 0,0,1
 195.80078125 41.015625 195.80078125 41.015625 190.4296875 28.80859375 c 0,2,3
 185.05859375 16.6015625 185.05859375 16.6015625 175.78125 7.568359375 c 0,4,5
 166.50390625 -1.46484375 166.50390625 -1.46484375 154.052734375 -6.8359375 c 0,6,7
 141.6015625 -12.20703125 141.6015625 -12.20703125 127.9296875 -12.20703125 c 0,8,9
 113.76953125 -12.20703125 113.76953125 -12.20703125 101.806640625 -6.8359375 c 0,10,11
 89.84375 -1.46484375 89.84375 -1.46484375 80.56640625 7.568359375 c 0,12,13
 71.2890625 16.6015625 71.2890625 16.6015625 66.162109375 28.80859375 c 0,14,15
 61.03515625 41.015625 61.03515625 41.015625 61.03515625 55.17578125 c 0,16,17
 61.03515625 68.84765625 61.03515625 68.84765625 66.162109375 81.0546875 c 0,18,19
 71.2890625 93.26171875 71.2890625 93.26171875 80.56640625 102.294921875 c 0,20,21
 89.84375 111.328125 89.84375 111.328125 101.806640625 116.69921875 c 0,22,23
 113.76953125 122.0703125 113.76953125 122.0703125 127.9296875 122.0703125 c 0,24,25
 141.6015625 122.0703125 141.6015625 122.0703125 154.052734375 116.69921875 c 0,26,27
 166.50390625 111.328125 166.50390625 111.328125 175.78125 102.294921875 c 0,28,29
 185.05859375 93.26171875 185.05859375 93.26171875 190.4296875 81.0546875 c 0,30,31
 195.80078125 68.84765625 195.80078125 68.84765625 195.80078125 55.17578125 c 0,0,1
EndSplineSet
EndChar

StartChar: slash
Encoding: 18 47 18
Width: 490
VWidth: 488
Flags: W
LayerCount: 2
Fore
SplineSet
63.96484375 -92.7734375 m 0,0,-1
 0 -92.7734375 l 0,1,-1
 425.78125 670.8984375 l 0,2,-1
 490.234375 670.8984375 l 0,3,-1
 63.96484375 -92.7734375 l 0,0,-1
EndSplineSet
EndChar

StartChar: zero
Encoding: 19 48 19
Width: 562
VWidth: 488
Flags: W
LayerCount: 2
Fore
SplineSet
522.94921875 334.9609375 m 0,0,1
 522.94921875 263.18359375 522.94921875 263.18359375 508.056640625 199.462890625 c 0,2,3
 493.1640625 135.7421875 493.1640625 135.7421875 463.134765625 87.890625 c 0,4,5
 433.10546875 40.0390625 433.10546875 40.0390625 387.451171875 11.962890625 c 0,6,7
 341.796875 -16.11328125 341.796875 -16.11328125 280.76171875 -16.11328125 c 0,8,9
 219.7265625 -16.11328125 219.7265625 -16.11328125 174.560546875 11.962890625 c 0,10,11
 129.39453125 40.0390625 129.39453125 40.0390625 99.365234375 87.890625 c 0,12,13
 69.3359375 135.7421875 69.3359375 135.7421875 54.6875 199.462890625 c 0,14,15
 40.0390625 263.18359375 40.0390625 263.18359375 40.0390625 334.9609375 c 0,16,17
 40.0390625 382.8125 40.0390625 382.8125 46.630859375 427.490234375 c 0,18,19
 53.22265625 472.16796875 53.22265625 472.16796875 66.40625 511.23046875 c 0,20,21
 79.58984375 550.29296875 79.58984375 550.29296875 99.365234375 582.51953125 c 0,22,23
 119.140625 614.74609375 119.140625 614.74609375 145.99609375 637.939453125 c 0,24,25
 172.8515625 661.1328125 172.8515625 661.1328125 206.54296875 674.072265625 c 0,26,27
 240.234375 687.01171875 240.234375 687.01171875 280.76171875 687.01171875 c 0,28,29
 321.2890625 687.01171875 321.2890625 687.01171875 355.224609375 674.072265625 c 0,30,31
 389.16015625 661.1328125 389.16015625 661.1328125 416.015625 637.939453125 c 0,32,33
 442.87109375 614.74609375 442.87109375 614.74609375 462.890625 582.51953125 c 0,34,35
 482.91015625 550.29296875 482.91015625 550.29296875 496.337890625 511.23046875 c 0,36,37
 509.765625 472.16796875 509.765625 472.16796875 516.357421875 427.490234375 c 0,38,39
 522.94921875 382.8125 522.94921875 382.8125 522.94921875 334.9609375 c 0,0,1
416.9921875 334.9609375 m 0,40,41
 416.9921875 372.55859375 416.9921875 372.55859375 414.306640625 409.423828125 c 0,42,43
 411.62109375 446.2890625 411.62109375 446.2890625 405.2734375 479.98046875 c 0,44,45
 398.92578125 513.671875 398.92578125 513.671875 388.671875 542.48046875 c 0,46,47
 378.41796875 571.2890625 378.41796875 571.2890625 363.28125 592.28515625 c 0,48,49
 348.14453125 613.28125 348.14453125 613.28125 327.63671875 625.244140625 c 0,50,51
 307.12890625 637.20703125 307.12890625 637.20703125 280.76171875 637.20703125 c 0,52,53
 254.39453125 637.20703125 254.39453125 637.20703125 233.88671875 625.244140625 c 0,54,55
 213.37890625 613.28125 213.37890625 613.28125 198.486328125 592.28515625 c 0,56,57
 183.59375 571.2890625 183.59375 571.2890625 173.33984375 542.48046875 c 0,58,59
 163.0859375 513.671875 163.0859375 513.671875 156.73828125 479.98046875 c 0,60,61
 150.390625 446.2890625 150.390625 446.2890625 147.705078125 409.423828125 c 0,62,63
 145.01953125 372.55859375 145.01953125 372.55859375 145.01953125 334.9609375 c 0,64,65
 145.01953125 297.36328125 145.01953125 297.36328125 147.705078125 260.498046875 c 0,66,67
 150.390625 223.6328125 150.390625 223.6328125 156.73828125 190.185546875 c 0,68,69
 163.0859375 156.73828125 163.0859375 156.73828125 173.33984375 128.173828125 c 0,70,71
 183.59375 99.609375 183.59375 99.609375 198.486328125 78.857421875 c 0,72,73
 213.37890625 58.10546875 213.37890625 58.10546875 233.88671875 46.142578125 c 0,74,75
 254.39453125 34.1796875 254.39453125 34.1796875 280.76171875 34.1796875 c 0,76,77
 307.12890625 34.1796875 307.12890625 34.1796875 327.63671875 46.142578125 c 0,78,79
 348.14453125 58.10546875 348.14453125 58.10546875 363.28125 78.857421875 c 0,80,81
 378.41796875 99.609375 378.41796875 99.609375 388.671875 128.173828125 c 0,82,83
 398.92578125 156.73828125 398.92578125 156.73828125 405.2734375 190.185546875 c 0,84,85
 411.62109375 223.6328125 411.62109375 223.6328125 414.306640625 260.498046875 c 0,86,87
 416.9921875 297.36328125 416.9921875 297.36328125 416.9921875 334.9609375 c 0,40,41
EndSplineSet
EndChar

StartChar: one
Encoding: 20 49 20
Width: 562
VWidth: 488
Flags: W
LayerCount: 2
Fore
SplineSet
107.91015625 0 m 0,0,-1
 107.91015625 44.921875 l 0,1,-1
 208.984375 48.828125 l 0,2,3
 218.26171875 48.828125 218.26171875 48.828125 224.609375 55.419921875 c 0,4,5
 230.95703125 62.01171875 230.95703125 62.01171875 230.95703125 70.80078125 c 0,6,-1
 230.95703125 602.05078125 l 0,7,-1
 76.171875 575.1953125 l 0,8,-1
 76.171875 620.1171875 l 0,9,-1
 291.9921875 687.01171875 l 0,10,-1
 330.078125 687.01171875 l 0,11,-1
 330.078125 70.80078125 l 0,12,13
 330.078125 62.01171875 330.078125 62.01171875 336.42578125 55.419921875 c 0,14,15
 342.7734375 48.828125 342.7734375 48.828125 352.05078125 48.828125 c 0,16,-1
 445.80078125 44.921875 l 0,17,-1
 445.80078125 0 l 0,18,-1
 107.91015625 0 l 0,0,-1
EndSplineSet
EndChar

StartChar: two
Encoding: 21 50 21
Width: 562
VWidth: 488
Flags: W
LayerCount: 2
Fore
SplineSet
46.875 0 m 0,0,-1
 46.875 66.89453125 l 0,1,2
 123.046875 129.8828125 123.046875 129.8828125 187.01171875 182.861328125 c 0,3,4
 250.9765625 235.83984375 250.9765625 235.83984375 297.607421875 284.912109375 c 0,5,6
 344.23828125 333.984375 344.23828125 333.984375 370.1171875 381.591796875 c 0,7,8
 395.99609375 429.19921875 395.99609375 429.19921875 395.99609375 481.93359375 c 0,9,10
 395.99609375 518.06640625 395.99609375 518.06640625 384.521484375 546.142578125 c 0,11,12
 373.046875 574.21875 373.046875 574.21875 353.759765625 593.505859375 c 0,13,14
 334.47265625 612.79296875 334.47265625 612.79296875 308.349609375 622.802734375 c 0,15,16
 282.2265625 632.8125 282.2265625 632.8125 252.9296875 632.8125 c 0,17,18
 235.3515625 632.8125 235.3515625 632.8125 220.947265625 628.90625 c 0,19,20
 206.54296875 625 206.54296875 625 195.80078125 620.1171875 c 0,21,22
 185.05859375 615.234375 185.05859375 615.234375 178.466796875 611.328125 c 0,23,24
 171.875 607.421875 171.875 607.421875 169.921875 606.93359375 c 0,25,-1
 169.921875 496.09375 l 0,26,27
 164.55078125 491.2109375 164.55078125 491.2109375 157.2265625 487.3046875 c 0,28,29
 150.87890625 483.88671875 150.87890625 483.88671875 141.6015625 481.4453125 c 0,30,31
 132.32421875 479.00390625 132.32421875 479.00390625 121.09375 479.00390625 c 0,32,33
 109.375 479.00390625 109.375 479.00390625 98.6328125 482.666015625 c 0,34,35
 87.890625 486.328125 87.890625 486.328125 79.345703125 493.65234375 c 0,36,37
 70.80078125 500.9765625 70.80078125 500.9765625 65.91796875 511.962890625 c 0,38,39
 61.03515625 522.94921875 61.03515625 522.94921875 61.03515625 538.0859375 c 0,40,41
 61.03515625 569.3359375 61.03515625 569.3359375 78.857421875 596.6796875 c 0,42,43
 96.6796875 624.0234375 96.6796875 624.0234375 126.953125 644.04296875 c 0,44,45
 157.2265625 664.0625 157.2265625 664.0625 197.021484375 675.537109375 c 0,46,47
 236.81640625 687.01171875 236.81640625 687.01171875 280.76171875 687.01171875 c 0,48,49
 329.58984375 687.01171875 329.58984375 687.01171875 370.60546875 672.8515625 c 0,50,51
 411.62109375 658.69140625 411.62109375 658.69140625 441.162109375 633.056640625 c 0,52,53
 470.703125 607.421875 470.703125 607.421875 487.3046875 571.533203125 c 0,54,55
 503.90625 535.64453125 503.90625 535.64453125 503.90625 492.1875 c 0,56,57
 503.90625 457.03125 503.90625 457.03125 490.478515625 422.8515625 c 0,58,59
 477.05078125 388.671875 477.05078125 388.671875 452.880859375 355.224609375 c 0,60,61
 428.7109375 321.77734375 428.7109375 321.77734375 395.751953125 288.57421875 c 0,62,63
 362.79296875 255.37109375 362.79296875 255.37109375 323.974609375 221.6796875 c 0,64,65
 285.15625 187.98828125 285.15625 187.98828125 241.455078125 153.80859375 c 0,66,67
 197.75390625 119.62890625 197.75390625 119.62890625 152.83203125 83.984375 c 0,68,-1
 449.21875 83.984375 l 0,69,-1
 466.796875 169.921875 l 0,70,-1
 516.11328125 169.921875 l 0,71,-1
 516.11328125 0 l 0,72,-1
 46.875 0 l 0,0,-1
EndSplineSet
EndChar

StartChar: three
Encoding: 22 51 22
Width: 562
VWidth: 488
Flags: W
LayerCount: 2
Fore
SplineSet
516.11328125 190.91796875 m 0,0,1
 516.11328125 145.5078125 516.11328125 145.5078125 495.361328125 107.421875 c 0,2,3
 474.609375 69.3359375 474.609375 69.3359375 438.96484375 41.9921875 c 0,4,5
 403.3203125 14.6484375 403.3203125 14.6484375 355.712890625 -0.732421875 c 0,6,7
 308.10546875 -16.11328125 308.10546875 -16.11328125 253.90625 -16.11328125 c 0,8,9
 203.125 -16.11328125 203.125 -16.11328125 164.55078125 -4.638671875 c 0,10,11
 125.9765625 6.8359375 125.9765625 6.8359375 99.853515625 24.4140625 c 0,12,13
 73.73046875 41.9921875 73.73046875 41.9921875 60.302734375 62.744140625 c 0,14,15
 46.875 83.49609375 46.875 83.49609375 46.875 102.05078125 c 0,16,17
 46.875 112.3046875 46.875 112.3046875 50.537109375 121.826171875 c 0,18,19
 54.19921875 131.34765625 54.19921875 131.34765625 61.5234375 138.916015625 c 0,20,21
 68.84765625 146.484375 68.84765625 146.484375 79.833984375 151.123046875 c 0,22,23
 90.8203125 155.76171875 90.8203125 155.76171875 105.95703125 155.76171875 c 0,24,25
 111.81640625 155.76171875 111.81640625 155.76171875 122.802734375 154.541015625 c 0,26,27
 133.7890625 153.3203125 133.7890625 153.3203125 140.13671875 148.92578125 c 0,28,-1
 169.921875 60.05859375 l 0,29,30
 189.453125 48.828125 189.453125 48.828125 211.181640625 41.50390625 c 0,31,32
 232.91015625 34.1796875 232.91015625 34.1796875 256.8359375 34.1796875 c 0,33,34
 291.9921875 34.1796875 291.9921875 34.1796875 320.80078125 47.36328125 c 0,35,36
 349.609375 60.546875 349.609375 60.546875 370.1171875 82.51953125 c 0,37,38
 390.625 104.4921875 390.625 104.4921875 401.85546875 132.568359375 c 0,39,40
 413.0859375 160.64453125 413.0859375 160.64453125 413.0859375 190.91796875 c 0,41,42
 413.0859375 227.5390625 413.0859375 227.5390625 398.92578125 251.708984375 c 0,43,44
 384.765625 275.87890625 384.765625 275.87890625 362.79296875 290.283203125 c 0,45,46
 340.8203125 304.6875 340.8203125 304.6875 314.453125 310.791015625 c 0,47,48
 288.0859375 316.89453125 288.0859375 316.89453125 263.18359375 316.89453125 c 0,49,50
 250 316.89453125 250 316.89453125 238.76953125 316.40625 c 0,51,52
 227.5390625 315.91796875 227.5390625 315.91796875 219.23828125 314.94140625 c 0,53,54
 209.9609375 313.96484375 209.9609375 313.96484375 202.1484375 312.98828125 c 0,55,-1
 202.1484375 375 l 0,56,57
 203.61328125 375 203.61328125 375 211.9140625 374.51171875 c 0,58,59
 220.21484375 374.0234375 220.21484375 374.0234375 228.02734375 374.0234375 c 0,60,61
 259.27734375 374.0234375 259.27734375 374.0234375 288.330078125 381.591796875 c 0,62,63
 317.3828125 389.16015625 317.3828125 389.16015625 339.599609375 404.541015625 c 0,64,65
 361.81640625 419.921875 361.81640625 419.921875 375 443.84765625 c 0,66,67
 388.18359375 467.7734375 388.18359375 467.7734375 388.18359375 500.9765625 c 0,68,69
 388.18359375 532.2265625 388.18359375 532.2265625 377.197265625 556.640625 c 0,70,71
 366.2109375 581.0546875 366.2109375 581.0546875 348.14453125 597.900390625 c 0,72,73
 330.078125 614.74609375 330.078125 614.74609375 306.15234375 623.291015625 c 0,74,75
 282.2265625 631.8359375 282.2265625 631.8359375 256.8359375 631.8359375 c 0,76,77
 236.81640625 631.8359375 236.81640625 631.8359375 220.21484375 627.44140625 c 0,78,79
 203.61328125 623.046875 203.61328125 623.046875 191.89453125 617.67578125 c 0,80,81
 177.734375 611.81640625 177.734375 611.81640625 166.9921875 604.00390625 c 0,82,-1
 166.9921875 503.90625 l 0,83,84
 164.0625 502.44140625 164.0625 502.44140625 152.34375 496.826171875 c 0,85,86
 140.625 491.2109375 140.625 491.2109375 122.0703125 491.2109375 c 0,87,88
 113.28125 491.2109375 113.28125 491.2109375 103.02734375 493.896484375 c 0,89,90
 92.7734375 496.58203125 92.7734375 496.58203125 83.984375 502.9296875 c 0,91,92
 75.1953125 509.27734375 75.1953125 509.27734375 69.580078125 520.01953125 c 0,93,94
 63.96484375 530.76171875 63.96484375 530.76171875 63.96484375 546.875 c 0,95,96
 63.96484375 575.1953125 63.96484375 575.1953125 81.54296875 600.830078125 c 0,97,98
 99.12109375 626.46484375 99.12109375 626.46484375 129.39453125 645.5078125 c 0,99,100
 159.66796875 664.55078125 159.66796875 664.55078125 199.951171875 675.78125 c 0,101,102
 240.234375 687.01171875 240.234375 687.01171875 285.15625 687.01171875 c 0,103,104
 328.61328125 687.01171875 328.61328125 687.01171875 365.966796875 674.8046875 c 0,105,106
 403.3203125 662.59765625 403.3203125 662.59765625 430.908203125 640.13671875 c 0,107,108
 458.49609375 617.67578125 458.49609375 617.67578125 474.365234375 585.693359375 c 0,109,110
 490.234375 553.7109375 490.234375 553.7109375 490.234375 514.16015625 c 0,111,112
 490.234375 457.51953125 490.234375 457.51953125 450.439453125 415.771484375 c 0,113,114
 410.64453125 374.0234375 410.64453125 374.0234375 335.9375 353.02734375 c 0,115,116
 367.1875 351.5625 367.1875 351.5625 399.4140625 341.552734375 c 0,117,118
 431.640625 331.54296875 431.640625 331.54296875 457.51953125 311.767578125 c 0,119,120
 483.3984375 291.9921875 483.3984375 291.9921875 499.755859375 261.962890625 c 0,121,122
 516.11328125 231.93359375 516.11328125 231.93359375 516.11328125 190.91796875 c 0,0,1
EndSplineSet
EndChar

StartChar: four
Encoding: 23 52 23
Width: 562
VWidth: 488
Flags: W
LayerCount: 2
Fore
SplineSet
437.98828125 199.21875 m 0,0,-1
 437.98828125 -16.11328125 l 0,1,-1
 344.23828125 -16.11328125 l 0,2,-1
 344.23828125 199.21875 l 0,3,-1
 40.0390625 199.21875 l 0,4,-1
 40.0390625 268.06640625 l 0,5,-1
 368.1640625 687.01171875 l 0,6,-1
 437.98828125 687.01171875 l 0,7,-1
 437.98828125 267.08984375 l 0,8,-1
 522.94921875 267.08984375 l 0,9,-1
 522.94921875 199.21875 l 0,10,-1
 437.98828125 199.21875 l 0,0,-1
344.23828125 559.08203125 m 0,11,-1
 119.140625 267.08984375 l 0,12,-1
 344.23828125 267.08984375 l 0,13,-1
 344.23828125 559.08203125 l 0,11,-1
EndSplineSet
EndChar

StartChar: five
Encoding: 24 53 24
Width: 562
VWidth: 488
Flags: W
LayerCount: 2
Fore
SplineSet
517.08984375 216.796875 m 0,0,1
 517.08984375 166.015625 517.08984375 166.015625 498.779296875 123.291015625 c 0,2,3
 480.46875 80.56640625 480.46875 80.56640625 444.82421875 49.560546875 c 0,4,5
 409.1796875 18.5546875 409.1796875 18.5546875 356.4453125 1.220703125 c 0,6,7
 303.7109375 -16.11328125 303.7109375 -16.11328125 234.86328125 -16.11328125 c 0,8,9
 195.80078125 -16.11328125 195.80078125 -16.11328125 161.376953125 -4.8828125 c 0,10,11
 126.953125 6.34765625 126.953125 6.34765625 101.07421875 23.4375 c 0,12,13
 75.1953125 40.52734375 75.1953125 40.52734375 60.05859375 61.5234375 c 0,14,15
 44.921875 82.51953125 44.921875 82.51953125 44.921875 102.05078125 c 0,16,17
 44.921875 129.39453125 44.921875 129.39453125 62.744140625 143.798828125 c 0,18,19
 80.56640625 158.203125 80.56640625 158.203125 107.91015625 158.203125 c 0,20,21
 116.2109375 158.203125 116.2109375 158.203125 124.0234375 156.494140625 c 0,22,23
 131.8359375 154.78515625 131.8359375 154.78515625 134.765625 153.80859375 c 0,24,-1
 172.8515625 62.01171875 l 0,25,26
 178.7109375 56.15234375 178.7109375 56.15234375 188.4765625 51.025390625 c 0,27,28
 198.2421875 45.8984375 198.2421875 45.8984375 208.984375 41.9921875 c 0,29,30
 219.7265625 38.0859375 219.7265625 38.0859375 230.46875 35.64453125 c 0,31,32
 241.2109375 33.203125 241.2109375 33.203125 250 33.203125 c 0,33,34
 289.55078125 33.203125 289.55078125 33.203125 320.3125 48.095703125 c 0,35,36
 351.07421875 62.98828125 351.07421875 62.98828125 372.0703125 86.42578125 c 0,37,38
 393.06640625 109.86328125 393.06640625 109.86328125 404.052734375 138.18359375 c 0,39,40
 415.0390625 166.50390625 415.0390625 166.50390625 415.0390625 192.87109375 c 0,41,42
 415.0390625 234.86328125 415.0390625 234.86328125 401.85546875 265.869140625 c 0,43,44
 388.671875 296.875 388.671875 296.875 365.72265625 317.3828125 c 0,45,46
 342.7734375 337.890625 342.7734375 337.890625 311.5234375 347.900390625 c 0,47,48
 280.2734375 357.91015625 280.2734375 357.91015625 244.140625 357.91015625 c 0,49,50
 219.23828125 357.91015625 219.23828125 357.91015625 191.650390625 352.5390625 c 0,51,52
 164.0625 347.16796875 164.0625 347.16796875 140.13671875 340.8203125 c 0,53,54
 112.3046875 333.49609375 112.3046875 333.49609375 84.9609375 324.21875 c 0,55,-1
 84.9609375 670.8984375 l 0,56,-1
 471.19140625 670.8984375 l 0,57,-1
 471.19140625 585.9375 l 0,58,-1
 155.76171875 585.9375 l 0,59,-1
 155.76171875 395.99609375 l 0,60,61
 156.73828125 395.99609375 156.73828125 395.99609375 168.45703125 400.146484375 c 0,62,63
 180.17578125 404.296875 180.17578125 404.296875 199.21875 408.935546875 c 0,64,65
 218.26171875 413.57421875 218.26171875 413.57421875 242.1875 417.724609375 c 0,66,67
 266.11328125 421.875 266.11328125 421.875 291.015625 421.875 c 0,68,69
 343.26171875 421.875 343.26171875 421.875 385.009765625 407.958984375 c 0,70,71
 426.7578125 394.04296875 426.7578125 394.04296875 456.0546875 367.67578125 c 0,72,73
 485.3515625 341.30859375 485.3515625 341.30859375 501.220703125 303.22265625 c 0,74,75
 517.08984375 265.13671875 517.08984375 265.13671875 517.08984375 216.796875 c 0,0,1
EndSplineSet
EndChar

StartChar: six
Encoding: 25 54 25
Width: 562
VWidth: 488
Flags: W
LayerCount: 2
Fore
SplineSet
522.94921875 229.00390625 m 0,0,1
 522.94921875 174.31640625 522.94921875 174.31640625 503.90625 129.150390625 c 0,2,3
 484.86328125 83.984375 484.86328125 83.984375 451.904296875 51.7578125 c 0,4,5
 418.9453125 19.53125 418.9453125 19.53125 374.755859375 1.708984375 c 0,6,7
 330.56640625 -16.11328125 330.56640625 -16.11328125 279.78515625 -16.11328125 c 0,8,9
 229.00390625 -16.11328125 229.00390625 -16.11328125 185.302734375 0.48828125 c 0,10,11
 141.6015625 17.08984375 141.6015625 17.08984375 109.375 53.22265625 c 0,12,13
 77.1484375 89.35546875 77.1484375 89.35546875 58.59375 147.216796875 c 0,14,15
 40.0390625 205.078125 40.0390625 205.078125 40.0390625 287.109375 c 0,16,17
 40.0390625 376.46484375 40.0390625 376.46484375 66.89453125 450.1953125 c 0,18,19
 93.75 523.92578125 93.75 523.92578125 144.775390625 576.66015625 c 0,20,21
 195.80078125 629.39453125 195.80078125 629.39453125 270.263671875 658.203125 c 0,22,23
 344.7265625 687.01171875 344.7265625 687.01171875 439.94140625 687.01171875 c 0,24,-1
 439.94140625 625 l 0,25,-1
 405.76171875 625.9765625 l 0,26,27
 357.91015625 627.44140625 357.91015625 627.44140625 314.697265625 610.595703125 c 0,28,29
 271.484375 593.75 271.484375 593.75 237.060546875 561.03515625 c 0,30,31
 202.63671875 528.3203125 202.63671875 528.3203125 179.19921875 480.95703125 c 0,32,33
 155.76171875 433.59375 155.76171875 433.59375 147.94921875 374.0234375 c 0,34,35
 189.453125 409.66796875 189.453125 409.66796875 231.201171875 423.33984375 c 0,36,37
 272.94921875 437.01171875 272.94921875 437.01171875 314.94140625 437.01171875 c 0,38,39
 362.3046875 437.01171875 362.3046875 437.01171875 400.634765625 421.142578125 c 0,40,41
 438.96484375 405.2734375 438.96484375 405.2734375 466.064453125 377.44140625 c 0,42,43
 493.1640625 349.609375 493.1640625 349.609375 508.056640625 311.5234375 c 0,44,45
 522.94921875 273.4375 522.94921875 273.4375 522.94921875 229.00390625 c 0,0,1
420.8984375 215.8203125 m 0,46,47
 420.8984375 252.44140625 420.8984375 252.44140625 411.376953125 281.494140625 c 0,48,49
 401.85546875 310.546875 401.85546875 310.546875 383.544921875 330.810546875 c 0,50,51
 365.234375 351.07421875 365.234375 351.07421875 339.111328125 361.572265625 c 0,52,53
 312.98828125 372.0703125 312.98828125 372.0703125 279.78515625 372.0703125 c 0,54,55
 263.671875 372.0703125 263.671875 372.0703125 246.09375 368.408203125 c 0,56,57
 228.515625 364.74609375 228.515625 364.74609375 210.9375 358.154296875 c 0,58,59
 193.359375 351.5625 193.359375 351.5625 176.513671875 342.28515625 c 0,60,61
 159.66796875 333.0078125 159.66796875 333.0078125 145.01953125 321.77734375 c 0,62,63
 143.5546875 306.15234375 143.5546875 306.15234375 143.310546875 292.236328125 c 0,64,65
 143.06640625 278.3203125 143.06640625 278.3203125 143.06640625 267.08984375 c 0,66,67
 143.06640625 215.8203125 143.06640625 215.8203125 150.87890625 173.33984375 c 0,68,69
 158.69140625 130.859375 158.69140625 130.859375 175.537109375 100.341796875 c 0,70,71
 192.3828125 69.82421875 192.3828125 69.82421875 218.017578125 52.978515625 c 0,72,73
 243.65234375 36.1328125 243.65234375 36.1328125 279.78515625 36.1328125 c 0,74,75
 315.91796875 36.1328125 315.91796875 36.1328125 342.529296875 50.29296875 c 0,76,77
 369.140625 64.453125 369.140625 64.453125 386.474609375 88.623046875 c 0,78,79
 403.80859375 112.79296875 403.80859375 112.79296875 412.353515625 145.5078125 c 0,80,81
 420.8984375 178.22265625 420.8984375 178.22265625 420.8984375 215.8203125 c 0,46,47
EndSplineSet
EndChar

StartChar: seven
Encoding: 26 55 26
Width: 562
VWidth: 488
Flags: W
LayerCount: 2
Fore
SplineSet
192.87109375 17.08984375 m 0,0,-1
 192.87109375 -16.11328125 l 0,1,-1
 86.9140625 -16.11328125 l 0,2,-1
 416.9921875 585.9375 l 0,3,-1
 108.88671875 585.9375 l 0,4,-1
 92.7734375 495.1171875 l 0,5,-1
 41.9921875 495.1171875 l 0,6,-1
 41.9921875 670.8984375 l 0,7,-1
 520.99609375 670.8984375 l 0,8,-1
 520.99609375 615.234375 l 0,9,-1
 192.87109375 17.08984375 l 0,0,-1
EndSplineSet
EndChar

StartChar: eight
Encoding: 27 56 27
Width: 562
VWidth: 488
Flags: W
LayerCount: 2
Fore
SplineSet
521.97265625 182.12890625 m 0,0,1
 521.97265625 139.16015625 521.97265625 139.16015625 503.662109375 102.783203125 c 0,2,3
 485.3515625 66.40625 485.3515625 66.40625 453.125 40.0390625 c 0,4,5
 420.8984375 13.671875 420.8984375 13.671875 376.708984375 -1.220703125 c 0,6,7
 332.51953125 -16.11328125 332.51953125 -16.11328125 280.76171875 -16.11328125 c 0,8,9
 225.5859375 -16.11328125 225.5859375 -16.11328125 181.15234375 -1.46484375 c 0,10,11
 136.71875 13.18359375 136.71875 13.18359375 105.224609375 39.55078125 c 0,12,13
 73.73046875 65.91796875 73.73046875 65.91796875 56.884765625 101.806640625 c 0,14,15
 40.0390625 137.6953125 40.0390625 137.6953125 40.0390625 180.17578125 c 0,16,17
 40.0390625 214.35546875 40.0390625 214.35546875 52.001953125 240.72265625 c 0,18,19
 63.96484375 267.08984375 63.96484375 267.08984375 83.740234375 287.109375 c 0,20,21
 103.515625 307.12890625 103.515625 307.12890625 129.39453125 321.77734375 c 0,22,23
 155.2734375 336.42578125 155.2734375 336.42578125 183.10546875 347.16796875 c 0,24,25
 162.59765625 355.46875 162.59765625 355.46875 141.845703125 369.140625 c 0,26,27
 121.09375 382.8125 121.09375 382.8125 104.4921875 401.85546875 c 0,28,29
 87.890625 420.8984375 87.890625 420.8984375 77.392578125 445.068359375 c 0,30,31
 66.89453125 469.23828125 66.89453125 469.23828125 66.89453125 499.0234375 c 0,32,33
 66.89453125 541.9921875 66.89453125 541.9921875 82.275390625 576.66015625 c 0,34,35
 97.65625 611.328125 97.65625 611.328125 125.732421875 635.986328125 c 0,36,37
 153.80859375 660.64453125 153.80859375 660.64453125 193.359375 673.828125 c 0,38,39
 232.91015625 687.01171875 232.91015625 687.01171875 280.76171875 687.01171875 c 0,40,41
 326.66015625 687.01171875 326.66015625 687.01171875 365.72265625 673.828125 c 0,42,43
 404.78515625 660.64453125 404.78515625 660.64453125 433.59375 637.451171875 c 0,44,45
 462.40234375 614.2578125 462.40234375 614.2578125 478.759765625 582.763671875 c 0,46,47
 495.1171875 551.26953125 495.1171875 551.26953125 495.1171875 515.13671875 c 0,48,49
 495.1171875 483.3984375 495.1171875 483.3984375 483.154296875 457.51953125 c 0,50,51
 471.19140625 431.640625 471.19140625 431.640625 453.125 411.62109375 c 0,52,53
 435.05859375 391.6015625 435.05859375 391.6015625 413.57421875 376.953125 c 0,54,55
 392.08984375 362.3046875 392.08984375 362.3046875 373.046875 353.02734375 c 0,56,57
 396.97265625 344.23828125 396.97265625 344.23828125 423.33984375 330.810546875 c 0,58,59
 449.70703125 317.3828125 449.70703125 317.3828125 471.6796875 296.875 c 0,60,61
 493.65234375 276.3671875 493.65234375 276.3671875 507.8125 248.291015625 c 0,62,63
 521.97265625 220.21484375 521.97265625 220.21484375 521.97265625 182.12890625 c 0,0,1
402.83203125 505.859375 m 0,64,65
 402.83203125 536.62109375 402.83203125 536.62109375 393.06640625 560.791015625 c 0,66,67
 383.30078125 584.9609375 383.30078125 584.9609375 366.69921875 601.806640625 c 0,68,69
 350.09765625 618.65234375 350.09765625 618.65234375 327.880859375 627.44140625 c 0,70,71
 305.6640625 636.23046875 305.6640625 636.23046875 280.76171875 636.23046875 c 0,72,73
 255.37109375 636.23046875 255.37109375 636.23046875 234.130859375 626.708984375 c 0,74,75
 212.890625 617.1875 212.890625 617.1875 197.75390625 601.5625 c 0,76,77
 182.6171875 585.9375 182.6171875 585.9375 174.31640625 565.185546875 c 0,78,79
 166.015625 544.43359375 166.015625 544.43359375 166.015625 521.97265625 c 0,80,81
 166.015625 495.60546875 166.015625 495.60546875 177.24609375 474.365234375 c 0,82,83
 188.4765625 453.125 188.4765625 453.125 209.47265625 435.05859375 c 0,84,85
 230.46875 416.9921875 230.46875 416.9921875 260.986328125 401.611328125 c 0,86,87
 291.50390625 386.23046875 291.50390625 386.23046875 330.078125 372.0703125 c 0,88,89
 345.21484375 383.30078125 345.21484375 383.30078125 358.642578125 396.97265625 c 0,90,91
 372.0703125 410.64453125 372.0703125 410.64453125 381.8359375 427.24609375 c 0,92,93
 391.6015625 443.84765625 391.6015625 443.84765625 397.216796875 463.37890625 c 0,94,95
 402.83203125 482.91015625 402.83203125 482.91015625 402.83203125 505.859375 c 0,64,65
420.8984375 166.015625 m 0,96,97
 420.8984375 197.265625 420.8984375 197.265625 407.71484375 218.994140625 c 0,98,99
 394.53125 240.72265625 394.53125 240.72265625 369.140625 258.056640625 c 0,100,101
 343.75 275.390625 343.75 275.390625 307.12890625 290.771484375 c 0,102,103
 270.5078125 306.15234375 270.5078125 306.15234375 223.14453125 325.1953125 c 0,104,105
 204.1015625 314.94140625 204.1015625 314.94140625 187.744140625 302.24609375 c 0,106,107
 171.38671875 289.55078125 171.38671875 289.55078125 159.1796875 273.193359375 c 0,108,109
 146.97265625 256.8359375 146.97265625 256.8359375 139.892578125 235.83984375 c 0,110,111
 132.8125 214.84375 132.8125 214.84375 132.8125 187.98828125 c 0,112,113
 132.8125 155.76171875 132.8125 155.76171875 142.333984375 128.41796875 c 0,114,115
 151.85546875 101.07421875 151.85546875 101.07421875 170.41015625 80.810546875 c 0,116,117
 188.96484375 60.546875 188.96484375 60.546875 216.796875 49.31640625 c 0,118,119
 244.62890625 38.0859375 244.62890625 38.0859375 280.76171875 38.0859375 c 0,120,121
 312.98828125 38.0859375 312.98828125 38.0859375 339.111328125 48.583984375 c 0,122,123
 365.234375 59.08203125 365.234375 59.08203125 383.30078125 76.904296875 c 0,124,125
 401.3671875 94.7265625 401.3671875 94.7265625 411.1328125 117.919921875 c 0,126,127
 420.8984375 141.11328125 420.8984375 141.11328125 420.8984375 166.015625 c 0,96,97
EndSplineSet
EndChar

StartChar: nine
Encoding: 28 57 28
Width: 562
VWidth: 488
Flags: W
LayerCount: 2
Fore
SplineSet
522.94921875 383.7890625 m 0,0,1
 522.94921875 294.43359375 522.94921875 294.43359375 496.09375 220.703125 c 0,2,3
 469.23828125 146.97265625 469.23828125 146.97265625 417.724609375 94.23828125 c 0,4,5
 366.2109375 41.50390625 366.2109375 41.50390625 291.748046875 12.6953125 c 0,6,7
 217.28515625 -16.11328125 217.28515625 -16.11328125 122.0703125 -16.11328125 c 0,8,-1
 122.0703125 45.8984375 l 0,9,-1
 155.76171875 44.921875 l 0,10,11
 203.61328125 43.45703125 203.61328125 43.45703125 247.0703125 60.302734375 c 0,12,13
 290.52734375 77.1484375 290.52734375 77.1484375 325.1953125 109.86328125 c 0,14,15
 359.86328125 142.578125 359.86328125 142.578125 383.544921875 189.94140625 c 0,16,17
 407.2265625 237.3046875 407.2265625 237.3046875 415.0390625 296.875 c 0,18,19
 394.53125 278.80859375 394.53125 278.80859375 373.53515625 266.845703125 c 0,20,21
 352.5390625 254.8828125 352.5390625 254.8828125 331.787109375 247.55859375 c 0,22,23
 311.03515625 240.234375 311.03515625 240.234375 290.0390625 237.060546875 c 0,24,25
 269.04296875 233.88671875 269.04296875 233.88671875 248.046875 233.88671875 c 0,26,27
 200.68359375 233.88671875 200.68359375 233.88671875 162.353515625 249.51171875 c 0,28,29
 124.0234375 265.13671875 124.0234375 265.13671875 96.923828125 292.724609375 c 0,30,31
 69.82421875 320.3125 69.82421875 320.3125 54.931640625 358.154296875 c 0,32,33
 40.0390625 395.99609375 40.0390625 395.99609375 40.0390625 440.91796875 c 0,34,35
 40.0390625 495.60546875 40.0390625 495.60546875 58.837890625 541.015625 c 0,36,37
 77.63671875 586.42578125 77.63671875 586.42578125 110.3515625 618.896484375 c 0,38,39
 143.06640625 651.3671875 143.06640625 651.3671875 187.255859375 669.189453125 c 0,40,41
 231.4453125 687.01171875 231.4453125 687.01171875 282.2265625 687.01171875 c 0,42,43
 332.51953125 687.01171875 332.51953125 687.01171875 376.46484375 670.41015625 c 0,44,45
 420.41015625 653.80859375 420.41015625 653.80859375 453.125 617.67578125 c 0,46,47
 485.83984375 581.54296875 485.83984375 581.54296875 504.39453125 523.681640625 c 0,48,49
 522.94921875 465.8203125 522.94921875 465.8203125 522.94921875 383.7890625 c 0,0,1
418.9453125 403.80859375 m 0,50,51
 418.9453125 455.078125 418.9453125 455.078125 411.1328125 497.55859375 c 0,52,53
 403.3203125 540.0390625 403.3203125 540.0390625 386.474609375 570.556640625 c 0,54,55
 369.62890625 601.07421875 369.62890625 601.07421875 343.75 617.919921875 c 0,56,57
 317.87109375 634.765625 317.87109375 634.765625 282.2265625 634.765625 c 0,58,59
 246.09375 634.765625 246.09375 634.765625 219.482421875 620.849609375 c 0,60,61
 192.87109375 606.93359375 192.87109375 606.93359375 175.537109375 582.51953125 c 0,62,63
 158.203125 558.10546875 158.203125 558.10546875 149.658203125 525.390625 c 0,64,65
 141.11328125 492.67578125 141.11328125 492.67578125 141.11328125 455.078125 c 0,66,67
 141.11328125 418.45703125 141.11328125 418.45703125 150.634765625 389.404296875 c 0,68,69
 160.15625 360.3515625 160.15625 360.3515625 178.466796875 340.087890625 c 0,70,71
 196.77734375 319.82421875 196.77734375 319.82421875 222.900390625 309.326171875 c 0,72,73
 249.0234375 298.828125 249.0234375 298.828125 282.2265625 298.828125 c 0,74,75
 298.33984375 298.828125 298.33984375 298.828125 315.91796875 302.490234375 c 0,76,77
 333.49609375 306.15234375 333.49609375 306.15234375 351.07421875 312.744140625 c 0,78,79
 368.65234375 319.3359375 368.65234375 319.3359375 385.498046875 328.61328125 c 0,80,81
 402.34375 337.890625 402.34375 337.890625 416.9921875 349.12109375 c 0,82,83
 418.45703125 364.74609375 418.45703125 364.74609375 418.701171875 378.662109375 c 0,84,85
 418.9453125 392.578125 418.9453125 392.578125 418.9453125 403.80859375 c 0,50,51
EndSplineSet
EndChar

StartChar: colon
Encoding: 29 58 29
Width: 279
VWidth: 488
Flags: W
LayerCount: 2
Fore
SplineSet
195.80078125 426.7578125 m 0,0,1
 195.80078125 413.0859375 195.80078125 413.0859375 190.4296875 400.87890625 c 0,2,3
 185.05859375 388.671875 185.05859375 388.671875 175.78125 379.638671875 c 0,4,5
 166.50390625 370.60546875 166.50390625 370.60546875 154.052734375 365.234375 c 0,6,7
 141.6015625 359.86328125 141.6015625 359.86328125 127.9296875 359.86328125 c 0,8,9
 113.76953125 359.86328125 113.76953125 359.86328125 101.806640625 365.234375 c 0,10,11
 89.84375 370.60546875 89.84375 370.60546875 80.56640625 379.638671875 c 0,12,13
 71.2890625 388.671875 71.2890625 388.671875 66.162109375 400.87890625 c 0,14,15
 61.03515625 413.0859375 61.03515625 413.0859375 61.03515625 426.7578125 c 0,16,17
 61.03515625 440.4296875 61.03515625 440.4296875 66.162109375 452.880859375 c 0,18,19
 71.2890625 465.33203125 71.2890625 465.33203125 80.56640625 474.365234375 c 0,20,21
 89.84375 483.3984375 89.84375 483.3984375 101.806640625 488.76953125 c 0,22,23
 113.76953125 494.140625 113.76953125 494.140625 127.9296875 494.140625 c 0,24,25
 141.6015625 494.140625 141.6015625 494.140625 154.052734375 488.76953125 c 0,26,27
 166.50390625 483.3984375 166.50390625 483.3984375 175.78125 474.365234375 c 0,28,29
 185.05859375 465.33203125 185.05859375 465.33203125 190.4296875 452.880859375 c 0,30,31
 195.80078125 440.4296875 195.80078125 440.4296875 195.80078125 426.7578125 c 0,0,1
195.80078125 55.17578125 m 0,32,33
 195.80078125 41.015625 195.80078125 41.015625 190.4296875 28.80859375 c 0,34,35
 185.05859375 16.6015625 185.05859375 16.6015625 175.78125 7.568359375 c 0,36,37
 166.50390625 -1.46484375 166.50390625 -1.46484375 154.052734375 -6.8359375 c 0,38,39
 141.6015625 -12.20703125 141.6015625 -12.20703125 127.9296875 -12.20703125 c 0,40,41
 113.76953125 -12.20703125 113.76953125 -12.20703125 101.806640625 -6.8359375 c 0,42,43
 89.84375 -1.46484375 89.84375 -1.46484375 80.56640625 7.568359375 c 0,44,45
 71.2890625 16.6015625 71.2890625 16.6015625 66.162109375 28.80859375 c 0,46,47
 61.03515625 41.015625 61.03515625 41.015625 61.03515625 55.17578125 c 0,48,49
 61.03515625 68.84765625 61.03515625 68.84765625 66.162109375 81.0546875 c 0,50,51
 71.2890625 93.26171875 71.2890625 93.26171875 80.56640625 102.294921875 c 0,52,53
 89.84375 111.328125 89.84375 111.328125 101.806640625 116.69921875 c 0,54,55
 113.76953125 122.0703125 113.76953125 122.0703125 127.9296875 122.0703125 c 0,56,57
 141.6015625 122.0703125 141.6015625 122.0703125 154.052734375 116.69921875 c 0,58,59
 166.50390625 111.328125 166.50390625 111.328125 175.78125 102.294921875 c 0,60,61
 185.05859375 93.26171875 185.05859375 93.26171875 190.4296875 81.0546875 c 0,62,63
 195.80078125 68.84765625 195.80078125 68.84765625 195.80078125 55.17578125 c 0,32,33
EndSplineSet
EndChar

StartChar: semicolon
Encoding: 30 59 30
Width: 279
VWidth: 488
Flags: W
LayerCount: 2
Fore
SplineSet
194.82421875 426.7578125 m 0,0,1
 194.82421875 413.0859375 194.82421875 413.0859375 189.697265625 400.87890625 c 0,2,3
 184.5703125 388.671875 184.5703125 388.671875 175.29296875 379.638671875 c 0,4,5
 166.015625 370.60546875 166.015625 370.60546875 153.80859375 365.234375 c 0,6,7
 141.6015625 359.86328125 141.6015625 359.86328125 127.9296875 359.86328125 c 0,8,9
 113.76953125 359.86328125 113.76953125 359.86328125 101.806640625 365.234375 c 0,10,11
 89.84375 370.60546875 89.84375 370.60546875 80.56640625 379.638671875 c 0,12,13
 71.2890625 388.671875 71.2890625 388.671875 66.162109375 400.87890625 c 0,14,15
 61.03515625 413.0859375 61.03515625 413.0859375 61.03515625 426.7578125 c 0,16,17
 61.03515625 440.4296875 61.03515625 440.4296875 66.40625 452.880859375 c 0,18,19
 71.77734375 465.33203125 71.77734375 465.33203125 81.0546875 474.365234375 c 0,20,21
 90.33203125 483.3984375 90.33203125 483.3984375 102.5390625 488.76953125 c 0,22,23
 114.74609375 494.140625 114.74609375 494.140625 128.90625 494.140625 c 0,24,25
 142.578125 494.140625 142.578125 494.140625 154.78515625 488.76953125 c 0,26,27
 166.9921875 483.3984375 166.9921875 483.3984375 175.78125 474.365234375 c 0,28,29
 184.5703125 465.33203125 184.5703125 465.33203125 189.697265625 452.880859375 c 0,30,31
 194.82421875 440.4296875 194.82421875 440.4296875 194.82421875 426.7578125 c 0,0,1
206.0546875 9.765625 m 0,32,33
 206.0546875 -27.83203125 206.0546875 -27.83203125 191.650390625 -59.326171875 c 0,34,35
 177.24609375 -90.8203125 177.24609375 -90.8203125 153.076171875 -114.501953125 c 0,36,37
 128.90625 -138.18359375 128.90625 -138.18359375 97.65625 -152.587890625 c 0,38,39
 66.40625 -166.9921875 66.40625 -166.9921875 32.2265625 -169.921875 c 0,40,-1
 32.2265625 -133.7890625 l 0,41,42
 58.59375 -127.9296875 58.59375 -127.9296875 79.345703125 -117.919921875 c 0,43,44
 100.09765625 -107.91015625 100.09765625 -107.91015625 114.013671875 -91.552734375 c 0,45,46
 127.9296875 -75.1953125 127.9296875 -75.1953125 135.25390625 -51.26953125 c 0,47,48
 142.578125 -27.34375 142.578125 -27.34375 142.08984375 6.8359375 c 0,49,-1
 79.1015625 6.8359375 l 0,50,51
 78.125 7.8125 78.125 7.8125 75.1953125 11.474609375 c 0,52,53
 72.265625 15.13671875 72.265625 15.13671875 69.091796875 20.99609375 c 0,54,55
 65.91796875 26.85546875 65.91796875 26.85546875 63.4765625 34.912109375 c 0,56,57
 61.03515625 42.96875 61.03515625 42.96875 61.03515625 53.22265625 c 0,58,59
 61.03515625 66.40625 61.03515625 66.40625 65.673828125 78.61328125 c 0,60,61
 70.3125 90.8203125 70.3125 90.8203125 78.61328125 100.5859375 c 0,62,63
 86.9140625 110.3515625 86.9140625 110.3515625 98.14453125 116.2109375 c 0,64,65
 109.375 122.0703125 109.375 122.0703125 123.046875 122.0703125 c 0,66,67
 144.53125 122.0703125 144.53125 122.0703125 160.15625 113.525390625 c 0,68,69
 175.78125 104.98046875 175.78125 104.98046875 186.03515625 90.087890625 c 0,70,71
 196.2890625 75.1953125 196.2890625 75.1953125 201.171875 54.443359375 c 0,72,73
 206.0546875 33.69140625 206.0546875 33.69140625 206.0546875 9.765625 c 0,32,33
EndSplineSet
EndChar

StartChar: less
Encoding: 31 60 31
Width: 1000
VWidth: 488
Flags: W
LayerCount: 2
Fore
SplineSet
200.1953125 269.04296875 m 0,0,-1
 200.1953125 331.0546875 l 0,1,-1
 799.8046875 561.03515625 l 0,2,-1
 799.8046875 499.0234375 l 0,3,-1
 264.16015625 299.8046875 l 0,4,-1
 799.8046875 101.07421875 l 0,5,-1
 799.8046875 39.0625 l 0,6,-1
 200.1953125 269.04296875 l 0,0,-1
EndSplineSet
EndChar

StartChar: equal
Encoding: 32 61 32
Width: 1000
VWidth: 488
Flags: W
LayerCount: 2
Fore
SplineSet
200.1953125 359.86328125 m 0,0,-1
 200.1953125 421.875 l 0,1,-1
 799.8046875 421.875 l 0,2,-1
 799.8046875 359.86328125 l 0,3,-1
 200.1953125 359.86328125 l 0,0,-1
200.1953125 178.22265625 m 0,4,-1
 200.1953125 240.234375 l 0,5,-1
 799.8046875 240.234375 l 0,6,-1
 799.8046875 178.22265625 l 0,7,-1
 200.1953125 178.22265625 l 0,4,-1
EndSplineSet
EndChar

StartChar: greater
Encoding: 33 62 33
Width: 1000
VWidth: 488
Flags: W
LayerCount: 2
Fore
SplineSet
200.1953125 39.0625 m 0,0,-1
 200.1953125 101.07421875 l 0,1,-1
 735.83984375 299.8046875 l 0,2,-1
 200.1953125 499.0234375 l 0,3,-1
 200.1953125 561.03515625 l 0,4,-1
 799.8046875 331.0546875 l 0,5,-1
 799.8046875 269.04296875 l 0,6,-1
 200.1953125 39.0625 l 0,0,-1
EndSplineSet
EndChar

StartChar: question
Encoding: 34 63 34
Width: 485
VWidth: 488
Flags: W
LayerCount: 2
Fore
SplineSet
262.20703125 48.828125 m 0,0,1
 262.20703125 36.1328125 262.20703125 36.1328125 257.32421875 25.146484375 c 0,2,3
 252.44140625 14.16015625 252.44140625 14.16015625 243.896484375 5.859375 c 0,4,5
 235.3515625 -2.44140625 235.3515625 -2.44140625 224.12109375 -7.32421875 c 0,6,7
 212.890625 -12.20703125 212.890625 -12.20703125 200.1953125 -12.20703125 c 0,8,9
 187.5 -12.20703125 187.5 -12.20703125 176.26953125 -7.32421875 c 0,10,11
 165.0390625 -2.44140625 165.0390625 -2.44140625 156.73828125 6.103515625 c 0,12,13
 148.4375 14.6484375 148.4375 14.6484375 143.798828125 25.87890625 c 0,14,15
 139.16015625 37.109375 139.16015625 37.109375 139.16015625 49.8046875 c 0,16,17
 139.16015625 62.5 139.16015625 62.5 143.798828125 73.73046875 c 0,18,19
 148.4375 84.9609375 148.4375 84.9609375 156.73828125 93.26171875 c 0,20,21
 165.0390625 101.5625 165.0390625 101.5625 176.26953125 106.201171875 c 0,22,23
 187.5 110.83984375 187.5 110.83984375 200.1953125 110.83984375 c 0,24,25
 213.37890625 110.83984375 213.37890625 110.83984375 224.609375 105.95703125 c 0,26,27
 235.83984375 101.07421875 235.83984375 101.07421875 244.140625 92.529296875 c 0,28,29
 252.44140625 83.984375 252.44140625 83.984375 257.32421875 72.75390625 c 0,30,31
 262.20703125 61.5234375 262.20703125 61.5234375 262.20703125 48.828125 c 0,0,1
416.9921875 507.8125 m 0,32,33
 416.9921875 476.07421875 416.9921875 476.07421875 408.203125 449.951171875 c 0,34,35
 399.4140625 423.828125 399.4140625 423.828125 384.765625 402.587890625 c 0,36,37
 370.1171875 381.34765625 370.1171875 381.34765625 350.830078125 364.501953125 c 0,38,39
 331.54296875 347.65625 331.54296875 347.65625 310.546875 334.228515625 c 0,40,41
 289.55078125 320.80078125 289.55078125 320.80078125 267.822265625 310.05859375 c 0,42,43
 246.09375 299.31640625 246.09375 299.31640625 227.05078125 291.015625 c 0,44,-1
 227.05078125 180.17578125 l 0,45,-1
 170.8984375 180.17578125 l 0,46,-1
 170.8984375 325.1953125 l 0,47,48
 194.3359375 333.0078125 194.3359375 333.0078125 219.970703125 347.412109375 c 0,49,50
 245.60546875 361.81640625 245.60546875 361.81640625 266.845703125 383.30078125 c 0,51,52
 288.0859375 404.78515625 288.0859375 404.78515625 302.001953125 433.837890625 c 0,53,54
 315.91796875 462.890625 315.91796875 462.890625 315.91796875 500 c 0,55,56
 315.91796875 569.82421875 315.91796875 569.82421875 278.80859375 604.00390625 c 0,57,58
 241.69921875 638.18359375 241.69921875 638.18359375 172.8515625 638.18359375 c 0,59,-1
 131.8359375 536.1328125 l 0,60,61
 127.44140625 535.64453125 127.44140625 535.64453125 124.0234375 535.64453125 c 0,62,63
 121.09375 535.15625 121.09375 535.15625 118.65234375 535.15625 c 0,64,-1
 115.234375 535.15625 l 0,65,66
 101.5625 535.15625 101.5625 535.15625 89.599609375 538.0859375 c 0,67,68
 77.63671875 541.015625 77.63671875 541.015625 68.84765625 547.607421875 c 0,69,70
 60.05859375 554.19921875 60.05859375 554.19921875 54.931640625 564.453125 c 0,71,72
 49.8046875 574.70703125 49.8046875 574.70703125 49.8046875 588.8671875 c 0,73,74
 49.8046875 606.4453125 49.8046875 606.4453125 59.326171875 624.0234375 c 0,75,76
 68.84765625 641.6015625 68.84765625 641.6015625 88.623046875 655.517578125 c 0,77,78
 108.3984375 669.43359375 108.3984375 669.43359375 138.18359375 678.22265625 c 0,79,80
 167.96875 687.01171875 167.96875 687.01171875 208.984375 687.01171875 c 0,81,82
 253.41796875 687.01171875 253.41796875 687.01171875 291.50390625 674.31640625 c 0,83,84
 329.58984375 661.62109375 329.58984375 661.62109375 357.421875 638.427734375 c 0,85,86
 385.25390625 615.234375 385.25390625 615.234375 401.123046875 582.03125 c 0,87,88
 416.9921875 548.828125 416.9921875 548.828125 416.9921875 507.8125 c 0,32,33
EndSplineSet
EndChar

StartChar: at
Encoding: 35 64 35
Width: 936
VWidth: 488
Flags: W
LayerCount: 2
Fore
SplineSet
863.76953125 373.046875 m 0,0,1
 863.76953125 322.265625 863.76953125 322.265625 852.783203125 279.052734375 c 0,2,3
 841.796875 235.83984375 841.796875 235.83984375 822.998046875 200.68359375 c 0,4,5
 804.19921875 165.52734375 804.19921875 165.52734375 779.541015625 138.427734375 c 0,6,7
 754.8828125 111.328125 754.8828125 111.328125 727.783203125 93.017578125 c 0,8,9
 700.68359375 74.70703125 700.68359375 74.70703125 672.8515625 65.4296875 c 0,10,11
 645.01953125 56.15234375 645.01953125 56.15234375 620.1171875 56.15234375 c 0,12,13
 578.61328125 56.15234375 578.61328125 56.15234375 560.302734375 76.904296875 c 0,14,15
 541.9921875 97.65625 541.9921875 97.65625 541.9921875 139.16015625 c 0,16,17
 502.9296875 99.609375 502.9296875 99.609375 467.529296875 78.369140625 c 0,18,19
 432.12890625 57.12890625 432.12890625 57.12890625 396.97265625 57.12890625 c 0,20,21
 369.62890625 57.12890625 369.62890625 57.12890625 346.6796875 68.603515625 c 0,22,23
 323.73046875 80.078125 323.73046875 80.078125 307.12890625 101.318359375 c 0,24,25
 290.52734375 122.55859375 290.52734375 122.55859375 281.25 152.587890625 c 0,26,27
 271.97265625 182.6171875 271.97265625 182.6171875 271.97265625 220.21484375 c 0,28,29
 271.97265625 277.34375 271.97265625 277.34375 293.212890625 327.1484375 c 0,30,31
 314.453125 376.953125 314.453125 376.953125 349.365234375 413.57421875 c 0,32,33
 384.27734375 450.1953125 384.27734375 450.1953125 428.955078125 471.19140625 c 0,34,35
 473.6328125 492.1875 473.6328125 492.1875 520.99609375 492.1875 c 0,36,37
 531.73828125 492.1875 531.73828125 492.1875 544.43359375 490.234375 c 0,38,39
 557.12890625 488.28125 557.12890625 488.28125 570.068359375 484.619140625 c 0,40,41
 583.0078125 480.95703125 583.0078125 480.95703125 595.458984375 475.830078125 c 0,42,43
 607.91015625 470.703125 607.91015625 470.703125 619.140625 464.84375 c 0,44,-1
 637.20703125 487.79296875 l 0,45,-1
 692.87109375 487.79296875 l 0,46,47
 691.89453125 484.86328125 691.89453125 484.86328125 688.4765625 470.458984375 c 0,48,49
 685.05859375 456.0546875 685.05859375 456.0546875 680.17578125 434.814453125 c 0,50,51
 675.29296875 413.57421875 675.29296875 413.57421875 669.189453125 386.962890625 c 0,52,53
 663.0859375 360.3515625 663.0859375 360.3515625 657.2265625 333.49609375 c 0,54,55
 642.578125 270.01953125 642.578125 270.01953125 625 190.91796875 c 0,56,57
 620.60546875 173.828125 620.60546875 173.828125 620.60546875 159.423828125 c 0,58,59
 620.60546875 145.01953125 620.60546875 145.01953125 625 134.765625 c 0,60,61
 629.39453125 124.51171875 629.39453125 124.51171875 638.671875 118.65234375 c 0,62,63
 647.94921875 112.79296875 647.94921875 112.79296875 662.109375 112.79296875 c 0,64,65
 684.08203125 112.79296875 684.08203125 112.79296875 710.9375 130.859375 c 0,66,67
 737.79296875 148.92578125 737.79296875 148.92578125 760.7421875 182.6171875 c 0,68,69
 783.69140625 216.30859375 783.69140625 216.30859375 799.31640625 264.404296875 c 0,70,71
 814.94140625 312.5 814.94140625 312.5 814.94140625 372.0703125 c 0,72,73
 814.94140625 442.3828125 814.94140625 442.3828125 791.015625 494.140625 c 0,74,75
 767.08984375 545.8984375 767.08984375 545.8984375 727.783203125 579.833984375 c 0,76,77
 688.4765625 613.76953125 688.4765625 613.76953125 638.18359375 630.37109375 c 0,78,79
 587.890625 646.97265625 587.890625 646.97265625 535.15625 646.97265625 c 0,80,81
 478.02734375 646.97265625 478.02734375 646.97265625 427.001953125 633.544921875 c 0,82,83
 375.9765625 620.1171875 375.9765625 620.1171875 332.763671875 595.458984375 c 0,84,85
 289.55078125 570.80078125 289.55078125 570.80078125 254.638671875 535.64453125 c 0,86,87
 219.7265625 500.48828125 219.7265625 500.48828125 195.556640625 457.03125 c 0,88,89
 171.38671875 413.57421875 171.38671875 413.57421875 158.203125 363.037109375 c 0,90,91
 145.01953125 312.5 145.01953125 312.5 145.01953125 256.8359375 c 0,92,93
 145.01953125 180.6640625 145.01953125 180.6640625 168.701171875 114.74609375 c 0,94,95
 192.3828125 48.828125 192.3828125 48.828125 237.3046875 0.48828125 c 0,96,97
 282.2265625 -47.8515625 282.2265625 -47.8515625 347.16796875 -75.439453125 c 0,98,99
 412.109375 -103.02734375 412.109375 -103.02734375 495.1171875 -103.02734375 c 0,100,101
 539.0625 -103.02734375 539.0625 -103.02734375 577.1484375 -96.19140625 c 0,102,103
 615.234375 -89.35546875 615.234375 -89.35546875 647.94921875 -78.61328125 c 0,104,105
 680.6640625 -67.87109375 680.6640625 -67.87109375 708.251953125 -54.6875 c 0,106,107
 735.83984375 -41.50390625 735.83984375 -41.50390625 758.7890625 -28.80859375 c 0,108,-1
 772.94921875 -64.94140625 l 0,109,110
 739.2578125 -83.0078125 739.2578125 -83.0078125 704.1015625 -98.876953125 c 0,111,112
 668.9453125 -114.74609375 668.9453125 -114.74609375 631.591796875 -126.708984375 c 0,113,114
 594.23828125 -138.671875 594.23828125 -138.671875 554.443359375 -145.751953125 c 0,115,116
 514.6484375 -152.83203125 514.6484375 -152.83203125 471.19140625 -152.83203125 c 0,117,118
 417.48046875 -152.83203125 417.48046875 -152.83203125 367.1875 -140.625 c 0,119,120
 316.89453125 -128.41796875 316.89453125 -128.41796875 272.705078125 -105.224609375 c 0,121,122
 228.515625 -82.03125 228.515625 -82.03125 191.89453125 -48.095703125 c 0,123,124
 155.2734375 -14.16015625 155.2734375 -14.16015625 128.90625 29.296875 c 0,125,126
 102.5390625 72.75390625 102.5390625 72.75390625 87.890625 125.48828125 c 0,127,128
 73.2421875 178.22265625 73.2421875 178.22265625 73.2421875 238.76953125 c 0,129,130
 73.2421875 312.98828125 73.2421875 312.98828125 91.064453125 375.244140625 c 0,131,132
 108.88671875 437.5 108.88671875 437.5 140.13671875 487.79296875 c 0,133,134
 171.38671875 538.0859375 171.38671875 538.0859375 214.111328125 576.171875 c 0,135,136
 256.8359375 614.2578125 256.8359375 614.2578125 306.640625 639.6484375 c 0,137,138
 356.4453125 665.0390625 356.4453125 665.0390625 411.376953125 677.978515625 c 0,139,140
 466.30859375 690.91796875 466.30859375 690.91796875 521.97265625 690.91796875 c 0,141,142
 596.19140625 690.91796875 596.19140625 690.91796875 658.935546875 670.166015625 c 0,143,144
 721.6796875 649.4140625 721.6796875 649.4140625 767.08984375 609.130859375 c 0,145,146
 812.5 568.84765625 812.5 568.84765625 838.134765625 509.521484375 c 0,147,148
 863.76953125 450.1953125 863.76953125 450.1953125 863.76953125 373.046875 c 0,0,1
583.984375 393.06640625 m 0,149,150
 585.44921875 399.4140625 585.44921875 399.4140625 581.54296875 409.1796875 c 0,151,152
 577.63671875 418.9453125 577.63671875 418.9453125 569.580078125 427.978515625 c 0,153,154
 561.5234375 437.01171875 561.5234375 437.01171875 550.048828125 443.603515625 c 0,155,156
 538.57421875 450.1953125 538.57421875 450.1953125 524.90234375 450.1953125 c 0,157,158
 487.79296875 450.1953125 487.79296875 450.1953125 458.0078125 432.861328125 c 0,159,160
 428.22265625 415.52734375 428.22265625 415.52734375 407.2265625 385.498046875 c 0,161,162
 386.23046875 355.46875 386.23046875 355.46875 375 315.185546875 c 0,163,164
 363.76953125 274.90234375 363.76953125 274.90234375 363.76953125 229.00390625 c 0,165,166
 363.76953125 174.8046875 363.76953125 174.8046875 384.033203125 147.94921875 c 0,167,168
 404.296875 121.09375 404.296875 121.09375 441.89453125 121.09375 c 0,169,170
 458.49609375 121.09375 458.49609375 121.09375 473.6328125 127.685546875 c 0,171,172
 488.76953125 134.27734375 488.76953125 134.27734375 501.708984375 144.04296875 c 0,173,174
 514.6484375 153.80859375 514.6484375 153.80859375 525.390625 165.0390625 c 0,175,176
 536.1328125 176.26953125 536.1328125 176.26953125 543.9453125 186.03515625 c 0,177,-1
 583.984375 393.06640625 l 0,149,150
EndSplineSet
EndChar

StartChar: A
Encoding: 36 65 36
Width: 673
VWidth: 488
Flags: W
LayerCount: 2
Fore
SplineSet
431.15234375 0 m 0,0,-1
 431.15234375 42.96875 l 0,1,-1
 488.76953125 47.8515625 l 0,2,3
 493.65234375 47.8515625 493.65234375 47.8515625 497.0703125 54.443359375 c 0,4,5
 500.48828125 61.03515625 500.48828125 61.03515625 499.0234375 64.94140625 c 0,6,-1
 430.17578125 248.046875 l 0,7,-1
 199.21875 248.046875 l 0,8,-1
 132.8125 67.87109375 l 0,9,10
 131.8359375 64.94140625 131.8359375 64.94140625 132.8125 61.5234375 c 0,11,12
 133.7890625 58.10546875 133.7890625 58.10546875 136.23046875 54.931640625 c 0,13,14
 138.671875 51.7578125 138.671875 51.7578125 141.6015625 49.8046875 c 0,15,16
 144.53125 47.8515625 144.53125 47.8515625 146.97265625 47.8515625 c 0,17,-1
 206.0546875 42.96875 l 0,18,-1
 206.0546875 0 l 0,19,-1
 4.8828125 0 l 0,20,-1
 4.8828125 42.96875 l 0,21,-1
 62.98828125 55.17578125 l 0,22,-1
 295.8984375 687.01171875 l 0,23,-1
 371.09375 687.01171875 l 0,24,-1
 603.02734375 69.82421875 l 0,25,26
 606.4453125 59.5703125 606.4453125 59.5703125 609.619140625 56.15234375 c 0,27,28
 612.79296875 52.734375 612.79296875 52.734375 624.0234375 50.78125 c 0,29,-1
 668.9453125 42.96875 l 0,30,-1
 668.9453125 0 l 0,31,-1
 431.15234375 0 l 0,0,-1
313.96484375 558.10546875 m 0,32,-1
 216.796875 295.8984375 l 0,33,-1
 412.109375 295.8984375 l 0,34,-1
 313.96484375 558.10546875 l 0,32,-1
EndSplineSet
EndChar

StartChar: B
Encoding: 37 66 37
Width: 604
VWidth: 488
Flags: W
LayerCount: 2
Fore
SplineSet
416.9921875 502.9296875 m 0,0,1
 416.9921875 562.01171875 416.9921875 562.01171875 378.90625 593.505859375 c 0,2,3
 340.8203125 625 340.8203125 625 263.18359375 625 c 0,4,5
 255.37109375 625 255.37109375 625 246.337890625 624.51171875 c 0,6,7
 237.3046875 624.0234375 237.3046875 624.0234375 229.248046875 623.53515625 c 0,8,9
 221.19140625 623.046875 221.19140625 623.046875 214.84375 622.55859375 c 0,10,11
 208.49609375 622.0703125 208.49609375 622.0703125 206.0546875 622.0703125 c 0,12,-1
 206.0546875 369.140625 l 0,13,14
 212.890625 368.65234375 212.890625 368.65234375 219.7265625 368.65234375 c 0,15,16
 225.5859375 368.1640625 225.5859375 368.1640625 231.4453125 368.1640625 c 0,17,-1
 242.1875 368.1640625 l 0,18,19
 291.015625 368.1640625 291.015625 368.1640625 324.462890625 377.197265625 c 0,20,21
 357.91015625 386.23046875 357.91015625 386.23046875 378.41796875 403.3203125 c 0,22,23
 398.92578125 420.41015625 398.92578125 420.41015625 407.958984375 445.556640625 c 0,24,25
 416.9921875 470.703125 416.9921875 470.703125 416.9921875 502.9296875 c 0,0,1
457.03125 189.94140625 m 0,26,27
 457.03125 258.30078125 457.03125 258.30078125 416.50390625 290.0390625 c 0,28,29
 375.9765625 321.77734375 375.9765625 321.77734375 295.8984375 321.77734375 c 0,30,31
 283.69140625 321.77734375 283.69140625 321.77734375 268.798828125 320.80078125 c 0,32,33
 253.90625 319.82421875 253.90625 319.82421875 240.72265625 318.84765625 c 0,34,35
 227.5390625 317.87109375 227.5390625 317.87109375 217.7734375 316.89453125 c 0,36,37
 208.0078125 315.91796875 208.0078125 315.91796875 206.0546875 315.91796875 c 0,38,-1
 206.0546875 51.7578125 l 0,39,40
 218.26171875 50.78125 218.26171875 50.78125 229.98046875 50.29296875 c 0,41,42
 239.74609375 49.31640625 239.74609375 49.31640625 250.244140625 49.072265625 c 0,43,44
 260.7421875 48.828125 260.7421875 48.828125 268.06640625 48.828125 c 0,45,46
 320.80078125 48.828125 320.80078125 48.828125 356.689453125 57.6171875 c 0,47,48
 392.578125 66.40625 392.578125 66.40625 415.0390625 83.984375 c 0,49,50
 437.5 101.5625 437.5 101.5625 447.265625 127.9296875 c 0,51,52
 457.03125 154.296875 457.03125 154.296875 457.03125 189.94140625 c 0,26,27
565.91796875 198.2421875 m 0,53,54
 565.91796875 157.71484375 565.91796875 157.71484375 554.443359375 127.197265625 c 0,55,56
 542.96875 96.6796875 542.96875 96.6796875 523.4375 74.70703125 c 0,57,58
 503.90625 52.734375 503.90625 52.734375 478.271484375 38.330078125 c 0,59,60
 452.63671875 23.92578125 452.63671875 23.92578125 424.560546875 15.380859375 c 0,61,62
 396.484375 6.8359375 396.484375 6.8359375 367.431640625 3.41796875 c 0,63,64
 338.37890625 0 338.37890625 0 312.01171875 0 c 0,65,-1
 32.2265625 0 l 0,66,-1
 32.2265625 42.96875 l 0,67,-1
 84.9609375 46.875 l 0,68,69
 95.703125 47.8515625 95.703125 47.8515625 100.830078125 54.6875 c 0,70,71
 105.95703125 61.5234375 105.95703125 61.5234375 105.95703125 68.84765625 c 0,72,-1
 105.95703125 602.05078125 l 0,73,74
 105.95703125 609.375 105.95703125 609.375 100.830078125 616.2109375 c 0,75,76
 95.703125 623.046875 95.703125 623.046875 84.9609375 624.0234375 c 0,77,-1
 32.2265625 627.9296875 l 0,78,-1
 32.2265625 670.8984375 l 0,79,-1
 299.8046875 670.8984375 l 0,80,81
 359.375 670.8984375 359.375 670.8984375 402.099609375 659.912109375 c 0,82,83
 444.82421875 648.92578125 444.82421875 648.92578125 472.16796875 627.9296875 c 0,84,85
 499.51171875 606.93359375 499.51171875 606.93359375 512.20703125 577.1484375 c 0,86,87
 524.90234375 547.36328125 524.90234375 547.36328125 524.90234375 509.765625 c 0,88,89
 524.90234375 472.16796875 524.90234375 472.16796875 510.7421875 445.80078125 c 0,90,91
 496.58203125 419.43359375 496.58203125 419.43359375 475.09765625 401.3671875 c 0,92,93
 453.61328125 383.30078125 453.61328125 383.30078125 428.22265625 372.55859375 c 0,94,95
 402.83203125 361.81640625 402.83203125 361.81640625 380.859375 355.95703125 c 0,96,97
 414.55078125 355.95703125 414.55078125 355.95703125 447.509765625 347.900390625 c 0,98,99
 480.46875 339.84375 480.46875 339.84375 506.8359375 321.2890625 c 0,100,101
 533.203125 302.734375 533.203125 302.734375 549.560546875 272.4609375 c 0,102,103
 565.91796875 242.1875 565.91796875 242.1875 565.91796875 198.2421875 c 0,53,54
EndSplineSet
EndChar

StartChar: C
Encoding: 38 67 38
Width: 626
VWidth: 488
Flags: W
LayerCount: 2
Fore
SplineSet
587.890625 22.94921875 m 0,0,1
 585.9375 21.97265625 585.9375 21.97265625 568.84765625 15.869140625 c 0,2,3
 551.7578125 9.765625 551.7578125 9.765625 524.4140625 2.685546875 c 0,4,5
 497.0703125 -4.39453125 497.0703125 -4.39453125 461.669921875 -10.25390625 c 0,6,7
 426.26953125 -16.11328125 426.26953125 -16.11328125 388.18359375 -16.11328125 c 0,8,9
 332.03125 -16.11328125 332.03125 -16.11328125 284.423828125 -2.685546875 c 0,10,11
 236.81640625 10.7421875 236.81640625 10.7421875 197.998046875 34.66796875 c 0,12,13
 159.1796875 58.59375 159.1796875 58.59375 129.638671875 91.796875 c 0,14,15
 100.09765625 125 100.09765625 125 79.833984375 164.0625 c 0,16,17
 59.5703125 203.125 59.5703125 203.125 49.31640625 247.0703125 c 0,18,19
 39.0625 291.015625 39.0625 291.015625 39.0625 336.9140625 c 0,20,21
 39.0625 414.55078125 39.0625 414.55078125 64.453125 479.00390625 c 0,22,23
 89.84375 543.45703125 89.84375 543.45703125 135.7421875 589.599609375 c 0,24,25
 181.640625 635.7421875 181.640625 635.7421875 246.09375 661.376953125 c 0,26,27
 310.546875 687.01171875 310.546875 687.01171875 389.16015625 687.01171875 c 0,28,29
 413.57421875 687.01171875 413.57421875 687.01171875 436.279296875 684.326171875 c 0,30,31
 458.984375 681.640625 458.984375 681.640625 482.421875 676.7578125 c 0,32,33
 505.859375 671.875 505.859375 671.875 531.73828125 664.55078125 c 0,34,35
 557.6171875 657.2265625 557.6171875 657.2265625 587.890625 647.94921875 c 0,36,-1
 587.890625 491.2109375 l 0,37,-1
 527.83203125 491.2109375 l 0,38,-1
 513.18359375 582.03125 l 0,39,40
 512.20703125 588.8671875 512.20703125 588.8671875 506.34765625 595.703125 c 0,41,42
 500.48828125 602.5390625 500.48828125 602.5390625 496.09375 604.98046875 c 0,43,44
 490.234375 607.421875 490.234375 607.421875 480.712890625 611.81640625 c 0,45,46
 471.19140625 616.2109375 471.19140625 616.2109375 458.0078125 620.361328125 c 0,47,48
 444.82421875 624.51171875 444.82421875 624.51171875 428.7109375 627.685546875 c 0,49,50
 412.59765625 630.859375 412.59765625 630.859375 394.04296875 630.859375 c 0,51,52
 342.7734375 630.859375 342.7734375 630.859375 298.828125 611.81640625 c 0,53,54
 254.8828125 592.7734375 254.8828125 592.7734375 222.65625 555.6640625 c 0,55,56
 190.4296875 518.5546875 190.4296875 518.5546875 172.119140625 463.623046875 c 0,57,58
 153.80859375 408.69140625 153.80859375 408.69140625 153.80859375 336.9140625 c 0,59,60
 153.80859375 267.08984375 153.80859375 267.08984375 171.142578125 211.9140625 c 0,61,62
 188.4765625 156.73828125 188.4765625 156.73828125 221.19140625 118.1640625 c 0,63,64
 253.90625 79.58984375 253.90625 79.58984375 300.78125 59.326171875 c 0,65,66
 347.65625 39.0625 347.65625 39.0625 407.2265625 39.0625 c 0,67,68
 424.8046875 39.0625 424.8046875 39.0625 439.208984375 41.50390625 c 0,69,70
 453.61328125 43.9453125 453.61328125 43.9453125 464.35546875 47.119140625 c 0,71,72
 475.09765625 50.29296875 475.09765625 50.29296875 480.95703125 52.978515625 c 0,73,74
 486.81640625 55.6640625 486.81640625 55.6640625 487.79296875 56.15234375 c 0,75,76
 495.60546875 59.08203125 495.60546875 59.08203125 500.48828125 64.453125 c 0,77,78
 505.37109375 69.82421875 505.37109375 69.82421875 506.8359375 76.171875 c 0,79,-1
 529.78515625 185.05859375 l 0,80,-1
 587.890625 185.05859375 l 0,81,-1
 587.890625 22.94921875 l 0,0,1
EndSplineSet
EndChar

StartChar: D
Encoding: 39 68 39
Width: 695
VWidth: 488
Flags: W
LayerCount: 2
Fore
SplineSet
657.2265625 336.9140625 m 0,0,1
 657.2265625 292.96875 657.2265625 292.96875 648.92578125 251.220703125 c 0,2,3
 640.625 209.47265625 640.625 209.47265625 623.046875 171.875 c 0,4,5
 605.46875 134.27734375 605.46875 134.27734375 577.880859375 102.783203125 c 0,6,7
 550.29296875 71.2890625 550.29296875 71.2890625 511.71875 48.33984375 c 0,8,9
 473.14453125 25.390625 473.14453125 25.390625 423.095703125 12.6953125 c 0,10,11
 373.046875 0 373.046875 0 310.05859375 0 c 0,12,-1
 32.2265625 0 l 0,13,-1
 32.2265625 42.96875 l 0,14,-1
 84.9609375 46.875 l 0,15,16
 95.703125 47.8515625 95.703125 47.8515625 101.318359375 54.6875 c 0,17,18
 106.93359375 61.5234375 106.93359375 61.5234375 106.93359375 68.84765625 c 0,19,-1
 106.93359375 602.05078125 l 0,20,21
 106.93359375 609.375 106.93359375 609.375 101.318359375 616.2109375 c 0,22,23
 95.703125 623.046875 95.703125 623.046875 84.9609375 624.0234375 c 0,24,-1
 32.2265625 627.9296875 l 0,25,-1
 32.2265625 670.8984375 l 0,26,-1
 290.0390625 670.8984375 l 0,27,28
 368.65234375 670.8984375 368.65234375 670.8984375 436.03515625 651.123046875 c 0,29,30
 503.41796875 631.34765625 503.41796875 631.34765625 552.490234375 590.33203125 c 0,31,32
 601.5625 549.31640625 601.5625 549.31640625 629.39453125 486.328125 c 0,33,34
 657.2265625 423.33984375 657.2265625 423.33984375 657.2265625 336.9140625 c 0,0,1
543.9453125 334.9609375 m 0,35,36
 543.9453125 413.57421875 543.9453125 413.57421875 525.634765625 468.505859375 c 0,37,38
 507.32421875 523.4375 507.32421875 523.4375 473.388671875 557.861328125 c 0,39,40
 439.453125 592.28515625 439.453125 592.28515625 391.357421875 607.666015625 c 0,41,42
 343.26171875 623.046875 343.26171875 623.046875 284.1796875 623.046875 c 0,43,-1
 208.0078125 623.046875 l 0,44,-1
 208.0078125 47.8515625 l 0,45,-1
 289.0625 48.828125 l 0,46,47
 346.6796875 49.31640625 346.6796875 49.31640625 393.798828125 65.185546875 c 0,48,49
 440.91796875 81.0546875 440.91796875 81.0546875 474.12109375 115.234375 c 0,50,51
 507.32421875 149.4140625 507.32421875 149.4140625 525.634765625 203.61328125 c 0,52,53
 543.9453125 257.8125 543.9453125 257.8125 543.9453125 334.9609375 c 0,35,36
EndSplineSet
EndChar

StartChar: E
Encoding: 40 69 40
Width: 583
VWidth: 488
Flags: W
LayerCount: 2
Fore
SplineSet
32.2265625 0 m 0,0,-1
 32.2265625 42.96875 l 0,1,-1
 83.984375 46.875 l 0,2,3
 94.7265625 47.8515625 94.7265625 47.8515625 100.341796875 54.6875 c 0,4,5
 105.95703125 61.5234375 105.95703125 61.5234375 105.95703125 68.84765625 c 0,6,-1
 105.95703125 602.05078125 l 0,7,8
 105.95703125 609.375 105.95703125 609.375 100.341796875 616.2109375 c 0,9,10
 94.7265625 623.046875 94.7265625 623.046875 83.984375 624.0234375 c 0,11,-1
 32.2265625 627.9296875 l 0,12,-1
 32.2265625 670.8984375 l 0,13,-1
 518.06640625 670.8984375 l 0,14,-1
 518.06640625 521.97265625 l 0,15,-1
 458.0078125 521.97265625 l 0,16,-1
 442.87109375 604.00390625 l 0,17,18
 441.89453125 611.328125 441.89453125 611.328125 436.767578125 617.1875 c 0,19,20
 431.640625 623.046875 431.640625 623.046875 424.8046875 623.046875 c 0,21,-1
 208.0078125 623.046875 l 0,22,-1
 208.0078125 374.0234375 l 0,23,-1
 357.91015625 374.0234375 l 0,24,25
 364.74609375 374.0234375 364.74609375 374.0234375 370.361328125 379.8828125 c 0,26,27
 375.9765625 385.7421875 375.9765625 385.7421875 375.9765625 391.11328125 c 0,28,-1
 386.23046875 459.9609375 l 0,29,-1
 437.01171875 459.9609375 l 0,30,-1
 437.01171875 236.81640625 l 0,31,-1
 386.23046875 236.81640625 l 0,32,-1
 375.9765625 306.15234375 l 0,33,34
 375.9765625 311.5234375 375.9765625 311.5234375 370.1171875 317.87109375 c 0,35,36
 364.2578125 324.21875 364.2578125 324.21875 357.91015625 324.21875 c 0,37,-1
 208.0078125 324.21875 l 0,38,-1
 208.0078125 48.828125 l 0,39,-1
 460.9375 48.828125 l 0,40,41
 467.28515625 48.828125 467.28515625 48.828125 472.65625 55.6640625 c 0,42,43
 478.02734375 62.5 478.02734375 62.5 479.00390625 67.87109375 c 0,44,-1
 497.0703125 166.9921875 l 0,45,-1
 550.78125 166.9921875 l 0,46,-1
 550.78125 0 l 0,47,-1
 32.2265625 0 l 0,0,-1
EndSplineSet
EndChar

StartChar: F
Encoding: 41 70 41
Width: 541
VWidth: 488
Flags: W
LayerCount: 2
Fore
SplineSet
452.1484375 512.20703125 m 0,0,-1
 437.98828125 604.00390625 l 0,1,2
 436.5234375 611.328125 436.5234375 611.328125 432.12890625 616.69921875 c 0,3,4
 427.734375 622.0703125 427.734375 622.0703125 420.8984375 622.0703125 c 0,5,-1
 208.0078125 622.0703125 l 0,6,-1
 208.0078125 361.81640625 l 0,7,-1
 360.83984375 361.81640625 l 0,8,9
 367.67578125 361.81640625 367.67578125 361.81640625 372.802734375 368.1640625 c 0,10,11
 377.9296875 374.51171875 377.9296875 374.51171875 378.90625 379.8828125 c 0,12,-1
 388.18359375 450.1953125 l 0,13,-1
 437.98828125 450.1953125 l 0,14,-1
 437.98828125 225.09765625 l 0,15,-1
 388.18359375 225.09765625 l 0,16,-1
 378.90625 294.921875 l 0,17,18
 377.9296875 300.29296875 377.9296875 300.29296875 372.55859375 306.640625 c 0,19,20
 367.1875 312.98828125 367.1875 312.98828125 360.83984375 312.98828125 c 0,21,-1
 208.0078125 312.98828125 l 0,22,-1
 208.0078125 68.84765625 l 0,23,24
 208.0078125 61.5234375 208.0078125 61.5234375 213.134765625 54.6875 c 0,25,26
 218.26171875 47.8515625 218.26171875 47.8515625 229.00390625 46.875 c 0,27,-1
 295.8984375 42.96875 l 0,28,-1
 295.8984375 0 l 0,29,-1
 33.203125 0 l 0,30,-1
 33.203125 42.96875 l 0,31,-1
 85.9375 46.875 l 0,32,33
 96.6796875 47.8515625 96.6796875 47.8515625 101.806640625 54.6875 c 0,34,35
 106.93359375 61.5234375 106.93359375 61.5234375 106.93359375 68.84765625 c 0,36,-1
 106.93359375 602.05078125 l 0,37,38
 106.93359375 609.375 106.93359375 609.375 101.806640625 616.2109375 c 0,39,40
 96.6796875 623.046875 96.6796875 623.046875 85.9375 624.0234375 c 0,41,-1
 24.90234375 627.9296875 l 0,42,-1
 24.90234375 670.8984375 l 0,43,-1
 511.23046875 670.8984375 l 0,44,-1
 511.23046875 512.20703125 l 0,45,-1
 452.1484375 512.20703125 l 0,0,-1
EndSplineSet
EndChar

StartChar: G
Encoding: 42 71 42
Width: 694
VWidth: 488
Flags: W
LayerCount: 2
Fore
SplineSet
619.140625 275.87890625 m 0,0,1
 608.3984375 274.90234375 608.3984375 274.90234375 603.271484375 268.798828125 c 0,2,3
 598.14453125 262.6953125 598.14453125 262.6953125 598.14453125 254.8828125 c 0,4,-1
 598.14453125 23.92578125 l 0,5,6
 567.87109375 12.6953125 567.87109375 12.6953125 533.69140625 3.90625 c 0,7,8
 504.39453125 -3.90625 504.39453125 -3.90625 466.552734375 -10.009765625 c 0,9,10
 428.7109375 -16.11328125 428.7109375 -16.11328125 388.18359375 -16.11328125 c 0,11,12
 332.51953125 -16.11328125 332.51953125 -16.11328125 284.912109375 -2.9296875 c 0,13,14
 237.3046875 10.25390625 237.3046875 10.25390625 198.486328125 34.1796875 c 0,15,16
 159.66796875 58.10546875 159.66796875 58.10546875 129.8828125 91.064453125 c 0,17,18
 100.09765625 124.0234375 100.09765625 124.0234375 79.833984375 163.0859375 c 0,19,20
 59.5703125 202.1484375 59.5703125 202.1484375 49.31640625 246.337890625 c 0,21,22
 39.0625 290.52734375 39.0625 290.52734375 39.0625 336.9140625 c 0,23,24
 39.0625 415.52734375 39.0625 415.52734375 63.96484375 480.224609375 c 0,25,26
 88.8671875 544.921875 88.8671875 544.921875 135.7421875 590.8203125 c 0,27,28
 182.6171875 636.71875 182.6171875 636.71875 249.755859375 661.865234375 c 0,29,30
 316.89453125 687.01171875 316.89453125 687.01171875 400.87890625 687.01171875 c 0,31,32
 429.19921875 687.01171875 429.19921875 687.01171875 454.833984375 683.837890625 c 0,33,34
 480.46875 680.6640625 480.46875 680.6640625 504.39453125 675.78125 c 0,35,36
 528.3203125 670.8984375 528.3203125 670.8984375 551.26953125 664.794921875 c 0,37,38
 574.21875 658.69140625 574.21875 658.69140625 597.16796875 652.83203125 c 0,39,-1
 597.16796875 491.2109375 l 0,40,-1
 537.109375 491.2109375 l 0,41,-1
 520.99609375 581.0546875 l 0,42,43
 519.53125 589.84375 519.53125 589.84375 513.671875 595.947265625 c 0,44,45
 507.8125 602.05078125 507.8125 602.05078125 500.9765625 604.98046875 c 0,46,47
 493.65234375 607.91015625 493.65234375 607.91015625 483.154296875 612.3046875 c 0,48,49
 472.65625 616.69921875 472.65625 616.69921875 459.47265625 620.849609375 c 0,50,51
 446.2890625 625 446.2890625 625 430.419921875 627.9296875 c 0,52,53
 414.55078125 630.859375 414.55078125 630.859375 396.97265625 630.859375 c 0,54,55
 342.7734375 630.859375 342.7734375 630.859375 297.8515625 611.81640625 c 0,56,57
 252.9296875 592.7734375 252.9296875 592.7734375 220.703125 556.15234375 c 0,58,59
 188.4765625 519.53125 188.4765625 519.53125 170.654296875 465.576171875 c 0,60,61
 152.83203125 411.62109375 152.83203125 411.62109375 152.83203125 341.796875 c 0,62,63
 152.83203125 270.01953125 152.83203125 270.01953125 170.8984375 213.8671875 c 0,64,65
 188.96484375 157.71484375 188.96484375 157.71484375 222.412109375 119.140625 c 0,66,67
 255.859375 80.56640625 255.859375 80.56640625 303.22265625 60.302734375 c 0,68,69
 350.5859375 40.0390625 350.5859375 40.0390625 409.1796875 40.0390625 c 0,70,71
 425.78125 40.0390625 425.78125 40.0390625 440.91796875 42.48046875 c 0,72,73
 456.0546875 44.921875 456.0546875 44.921875 467.7734375 47.607421875 c 0,74,75
 479.4921875 50.29296875 479.4921875 50.29296875 487.3046875 52.734375 c 0,76,77
 495.1171875 55.17578125 495.1171875 55.17578125 497.0703125 55.17578125 c 0,78,-1
 497.0703125 254.8828125 l 0,79,80
 497.0703125 262.6953125 497.0703125 262.6953125 491.943359375 268.798828125 c 0,81,82
 486.81640625 274.90234375 486.81640625 274.90234375 476.07421875 275.87890625 c 0,83,-1
 409.1796875 280.76171875 l 0,84,-1
 409.1796875 324.21875 l 0,85,-1
 669.921875 324.21875 l 0,86,-1
 669.921875 280.76171875 l 0,87,-1
 619.140625 275.87890625 l 0,0,1
EndSplineSet
EndChar

StartChar: H
Encoding: 43 72 43
Width: 743
VWidth: 488
Flags: W
LayerCount: 2
Fore
SplineSet
458.0078125 0 m 0,0,-1
 458.0078125 42.96875 l 0,1,-1
 515.13671875 46.875 l 0,2,3
 525.390625 47.8515625 525.390625 47.8515625 530.76171875 54.6875 c 0,4,5
 536.1328125 61.5234375 536.1328125 61.5234375 536.1328125 68.84765625 c 0,6,-1
 536.1328125 327.1484375 l 0,7,-1
 207.03125 327.1484375 l 0,8,-1
 207.03125 68.84765625 l 0,9,10
 207.03125 61.5234375 207.03125 61.5234375 212.158203125 54.6875 c 0,11,12
 217.28515625 47.8515625 217.28515625 47.8515625 228.02734375 46.875 c 0,13,-1
 285.15625 42.96875 l 0,14,-1
 285.15625 0 l 0,15,-1
 32.2265625 0 l 0,16,-1
 32.2265625 42.96875 l 0,17,-1
 83.984375 46.875 l 0,18,19
 94.7265625 47.8515625 94.7265625 47.8515625 100.341796875 54.6875 c 0,20,21
 105.95703125 61.5234375 105.95703125 61.5234375 105.95703125 68.84765625 c 0,22,-1
 105.95703125 602.05078125 l 0,23,24
 105.95703125 609.375 105.95703125 609.375 100.341796875 615.72265625 c 0,25,26
 94.7265625 622.0703125 94.7265625 622.0703125 83.984375 623.046875 c 0,27,-1
 32.2265625 626.953125 l 0,28,-1
 32.2265625 670.8984375 l 0,29,-1
 285.15625 670.8984375 l 0,30,-1
 285.15625 626.953125 l 0,31,-1
 228.02734375 623.046875 l 0,32,33
 217.28515625 622.0703125 217.28515625 622.0703125 212.158203125 615.72265625 c 0,34,35
 207.03125 609.375 207.03125 609.375 207.03125 602.05078125 c 0,36,-1
 207.03125 376.953125 l 0,37,-1
 536.1328125 376.953125 l 0,38,-1
 536.1328125 602.05078125 l 0,39,40
 536.1328125 609.375 536.1328125 609.375 530.76171875 615.72265625 c 0,41,42
 525.390625 622.0703125 525.390625 622.0703125 515.13671875 623.046875 c 0,43,-1
 458.0078125 626.953125 l 0,44,-1
 458.0078125 670.8984375 l 0,45,-1
 710.9375 670.8984375 l 0,46,-1
 710.9375 626.953125 l 0,47,-1
 659.1796875 623.046875 l 0,48,49
 648.4375 622.0703125 648.4375 622.0703125 642.822265625 615.72265625 c 0,50,51
 637.20703125 609.375 637.20703125 609.375 637.20703125 602.05078125 c 0,52,-1
 637.20703125 68.84765625 l 0,53,54
 637.20703125 61.5234375 637.20703125 61.5234375 642.822265625 54.6875 c 0,55,56
 648.4375 47.8515625 648.4375 47.8515625 659.1796875 46.875 c 0,57,-1
 710.9375 42.96875 l 0,58,-1
 710.9375 0 l 0,59,-1
 458.0078125 0 l 0,0,-1
EndSplineSet
EndChar

StartChar: I
Encoding: 44 73 44
Width: 330
VWidth: 488
Flags: W
LayerCount: 2
Fore
SplineSet
33.203125 0 m 0,0,-1
 33.203125 42.96875 l 0,1,-1
 92.7734375 46.875 l 0,2,3
 103.515625 47.8515625 103.515625 47.8515625 108.642578125 54.6875 c 0,4,5
 113.76953125 61.5234375 113.76953125 61.5234375 113.76953125 68.84765625 c 0,6,-1
 113.76953125 602.05078125 l 0,7,8
 113.76953125 609.375 113.76953125 609.375 108.642578125 615.72265625 c 0,9,10
 103.515625 622.0703125 103.515625 622.0703125 92.7734375 623.046875 c 0,11,-1
 33.203125 626.953125 l 0,12,-1
 33.203125 670.8984375 l 0,13,-1
 296.875 670.8984375 l 0,14,-1
 296.875 626.953125 l 0,15,-1
 235.83984375 623.046875 l 0,16,17
 225.5859375 622.0703125 225.5859375 622.0703125 220.21484375 615.72265625 c 0,18,19
 214.84375 609.375 214.84375 609.375 214.84375 602.05078125 c 0,20,-1
 214.84375 68.84765625 l 0,21,22
 214.84375 61.5234375 214.84375 61.5234375 220.21484375 54.6875 c 0,23,24
 225.5859375 47.8515625 225.5859375 47.8515625 235.83984375 46.875 c 0,25,-1
 296.875 42.96875 l 0,26,-1
 296.875 0 l 0,27,-1
 33.203125 0 l 0,0,-1
EndSplineSet
EndChar

StartChar: J
Encoding: 45 74 45
Width: 484
VWidth: 488
Flags: W
LayerCount: 2
Fore
SplineSet
400.87890625 624.0234375 m 0,0,1
 390.625 623.046875 390.625 623.046875 385.25390625 616.2109375 c 0,2,3
 379.8828125 609.375 379.8828125 609.375 379.8828125 602.05078125 c 0,4,-1
 379.8828125 252.9296875 l 0,5,6
 379.8828125 190.4296875 379.8828125 190.4296875 368.1640625 140.625 c 0,7,8
 356.4453125 90.8203125 356.4453125 90.8203125 330.56640625 56.15234375 c 0,9,10
 304.6875 21.484375 304.6875 21.484375 262.6953125 2.685546875 c 0,11,12
 220.703125 -16.11328125 220.703125 -16.11328125 160.15625 -16.11328125 c 0,13,14
 135.7421875 -16.11328125 135.7421875 -16.11328125 112.3046875 -11.962890625 c 0,15,16
 88.8671875 -7.8125 88.8671875 -7.8125 70.3125 -2.685546875 c 0,17,18
 51.7578125 2.44140625 51.7578125 2.44140625 39.306640625 6.8359375 c 0,19,20
 26.85546875 11.23046875 26.85546875 11.23046875 24.90234375 12.20703125 c 0,21,-1
 24.90234375 183.10546875 l 0,22,-1
 84.9609375 183.10546875 l 0,23,-1
 106.93359375 61.03515625 l 0,24,25
 108.3984375 53.7109375 108.3984375 53.7109375 113.037109375 48.583984375 c 0,26,27
 117.67578125 43.45703125 117.67578125 43.45703125 124.0234375 40.52734375 c 0,28,29
 130.37109375 37.59765625 130.37109375 37.59765625 137.939453125 36.376953125 c 0,30,31
 145.5078125 35.15625 145.5078125 35.15625 152.83203125 35.15625 c 0,32,33
 187.01171875 35.15625 187.01171875 35.15625 210.9375 48.33984375 c 0,34,35
 234.86328125 61.5234375 234.86328125 61.5234375 250 87.890625 c 0,36,37
 265.13671875 114.2578125 265.13671875 114.2578125 271.97265625 153.80859375 c 0,38,39
 278.80859375 193.359375 278.80859375 193.359375 278.80859375 246.09375 c 0,40,-1
 278.80859375 602.05078125 l 0,41,42
 278.80859375 609.375 278.80859375 609.375 273.681640625 616.2109375 c 0,43,44
 268.5546875 623.046875 268.5546875 623.046875 257.8125 624.0234375 c 0,45,-1
 194.82421875 627.9296875 l 0,46,-1
 194.82421875 670.8984375 l 0,47,-1
 458.984375 670.8984375 l 0,48,-1
 458.984375 627.9296875 l 0,49,-1
 400.87890625 624.0234375 l 0,0,1
EndSplineSet
EndChar

StartChar: K
Encoding: 46 75 46
Width: 638
VWidth: 488
Flags: W
LayerCount: 2
Fore
SplineSet
462.890625 0 m 0,0,-1
 462.890625 30.76171875 l 0,1,-1
 276.85546875 297.8515625 l 0,2,-1
 207.03125 297.8515625 l 0,3,-1
 207.03125 68.84765625 l 0,4,5
 207.03125 61.5234375 207.03125 61.5234375 212.646484375 54.6875 c 0,6,7
 218.26171875 47.8515625 218.26171875 47.8515625 229.00390625 46.875 c 0,8,-1
 286.1328125 42.96875 l 0,9,-1
 286.1328125 0 l 0,10,-1
 32.2265625 0 l 0,11,-1
 32.2265625 42.96875 l 0,12,-1
 84.9609375 46.875 l 0,13,14
 95.703125 47.8515625 95.703125 47.8515625 100.830078125 54.6875 c 0,15,16
 105.95703125 61.5234375 105.95703125 61.5234375 105.95703125 68.84765625 c 0,17,-1
 105.95703125 602.05078125 l 0,18,19
 105.95703125 609.375 105.95703125 609.375 100.830078125 616.2109375 c 0,20,21
 95.703125 623.046875 95.703125 623.046875 84.9609375 624.0234375 c 0,22,-1
 32.2265625 627.9296875 l 0,23,-1
 32.2265625 670.8984375 l 0,24,-1
 286.1328125 670.8984375 l 0,25,-1
 286.1328125 627.9296875 l 0,26,-1
 229.00390625 624.0234375 l 0,27,28
 218.26171875 623.046875 218.26171875 623.046875 212.646484375 616.2109375 c 0,29,30
 207.03125 609.375 207.03125 609.375 207.03125 602.05078125 c 0,31,-1
 207.03125 339.84375 l 0,32,-1
 243.1640625 339.84375 l 0,33,-1
 460.9375 605.95703125 l 0,34,35
 464.35546875 610.3515625 464.35546875 610.3515625 461.181640625 616.2109375 c 0,36,37
 458.0078125 622.0703125 458.0078125 622.0703125 453.125 623.046875 c 0,38,-1
 401.85546875 627.9296875 l 0,39,-1
 401.85546875 670.8984375 l 0,40,-1
 613.76953125 670.8984375 l 0,41,-1
 613.76953125 627.9296875 l 0,42,43
 596.19140625 626.46484375 596.19140625 626.46484375 582.03125 624.51171875 c 0,44,45
 569.82421875 623.046875 569.82421875 623.046875 559.08203125 621.826171875 c 0,46,47
 548.33984375 620.60546875 548.33984375 620.60546875 545.8984375 620.1171875 c 0,48,-1
 341.796875 375.9765625 l 0,49,-1
 565.91796875 47.8515625 l 0,50,-1
 638.18359375 42.96875 l 0,51,-1
 638.18359375 0 l 0,52,-1
 462.890625 0 l 0,0,-1
EndSplineSet
EndChar

StartChar: L
Encoding: 47 76 47
Width: 530
VWidth: 488
Flags: W
LayerCount: 2
Fore
SplineSet
26.85546875 0 m 0,0,-1
 26.85546875 42.96875 l 0,1,-1
 84.9609375 46.875 l 0,2,3
 95.703125 47.8515625 95.703125 47.8515625 100.830078125 54.6875 c 0,4,5
 105.95703125 61.5234375 105.95703125 61.5234375 105.95703125 68.84765625 c 0,6,-1
 105.95703125 602.05078125 l 0,7,8
 105.95703125 609.375 105.95703125 609.375 100.830078125 616.2109375 c 0,9,10
 95.703125 623.046875 95.703125 623.046875 84.9609375 624.0234375 c 0,11,-1
 26.85546875 627.9296875 l 0,12,-1
 26.85546875 670.8984375 l 0,13,-1
 282.2265625 670.8984375 l 0,14,-1
 282.2265625 627.9296875 l 0,15,-1
 229.00390625 624.0234375 l 0,16,17
 218.26171875 623.046875 218.26171875 623.046875 212.646484375 616.2109375 c 0,18,19
 207.03125 609.375 207.03125 609.375 207.03125 602.05078125 c 0,20,-1
 207.03125 48.828125 l 0,21,-1
 416.9921875 48.828125 l 0,22,23
 423.828125 48.828125 423.828125 48.828125 430.908203125 53.955078125 c 0,24,25
 437.98828125 59.08203125 437.98828125 59.08203125 438.96484375 65.91796875 c 0,26,-1
 455.078125 186.03515625 l 0,27,-1
 513.18359375 186.03515625 l 0,28,-1
 513.18359375 0 l 0,29,-1
 26.85546875 0 l 0,0,-1
EndSplineSet
EndChar

StartChar: M
Encoding: 48 77 48
Width: 875
VWidth: 488
Flags: W
LayerCount: 2
Fore
SplineSet
592.7734375 0 m 0,0,-1
 592.7734375 42.96875 l 0,1,-1
 645.99609375 46.875 l 0,2,3
 656.73828125 47.8515625 656.73828125 47.8515625 662.353515625 54.6875 c 0,4,5
 667.96875 61.5234375 667.96875 61.5234375 667.96875 68.84765625 c 0,6,-1
 667.96875 620.1171875 l 0,7,-1
 437.98828125 0 l 0,8,-1
 388.18359375 0 l 0,9,-1
 166.015625 610.83984375 l 0,10,-1
 166.015625 68.84765625 l 0,11,12
 166.015625 61.5234375 166.015625 61.5234375 171.630859375 54.6875 c 0,13,14
 177.24609375 47.8515625 177.24609375 47.8515625 187.98828125 46.875 c 0,15,-1
 245.1171875 42.96875 l 0,16,-1
 245.1171875 0 l 0,17,-1
 28.80859375 0 l 0,18,-1
 28.80859375 42.96875 l 0,19,-1
 85.9375 46.875 l 0,20,21
 96.6796875 47.8515625 96.6796875 47.8515625 101.806640625 54.6875 c 0,22,23
 106.93359375 61.5234375 106.93359375 61.5234375 106.93359375 68.84765625 c 0,24,-1
 106.93359375 602.05078125 l 0,25,26
 106.93359375 609.375 106.93359375 609.375 101.806640625 616.2109375 c 0,27,28
 96.6796875 623.046875 96.6796875 623.046875 85.9375 624.0234375 c 0,29,-1
 28.80859375 627.9296875 l 0,30,-1
 28.80859375 670.8984375 l 0,31,-1
 252.9296875 670.8984375 l 0,32,-1
 252.9296875 644.04296875 l 0,33,-1
 434.08203125 152.83203125 l 0,34,-1
 615.234375 641.11328125 l 0,35,-1
 615.234375 670.8984375 l 0,36,-1
 845.21484375 670.8984375 l 0,37,-1
 845.21484375 627.9296875 l 0,38,-1
 791.015625 624.0234375 l 0,39,40
 780.2734375 623.046875 780.2734375 623.046875 774.658203125 616.2109375 c 0,41,42
 769.04296875 609.375 769.04296875 609.375 769.04296875 602.05078125 c 0,43,-1
 769.04296875 68.84765625 l 0,44,45
 769.04296875 61.5234375 769.04296875 61.5234375 774.658203125 54.6875 c 0,46,47
 780.2734375 47.8515625 780.2734375 47.8515625 791.015625 46.875 c 0,48,-1
 845.21484375 42.96875 l 0,49,-1
 845.21484375 0 l 0,50,-1
 592.7734375 0 l 0,0,-1
EndSplineSet
EndChar

StartChar: N
Encoding: 49 78 49
Width: 721
VWidth: 488
Flags: W
LayerCount: 2
Fore
SplineSet
636.23046875 624.0234375 m 0,0,1
 625.48828125 623.046875 625.48828125 623.046875 620.361328125 616.2109375 c 0,2,3
 615.234375 609.375 615.234375 609.375 615.234375 602.05078125 c 0,4,-1
 615.234375 0 l 0,5,-1
 537.109375 0 l 0,6,-1
 165.0390625 560.05859375 l 0,7,-1
 165.0390625 68.84765625 l 0,8,9
 165.0390625 61.5234375 165.0390625 61.5234375 170.166015625 54.6875 c 0,10,11
 175.29296875 47.8515625 175.29296875 47.8515625 186.03515625 46.875 c 0,12,-1
 243.1640625 42.96875 l 0,13,-1
 243.1640625 0 l 0,14,-1
 26.85546875 0 l 0,15,-1
 26.85546875 42.96875 l 0,16,-1
 83.984375 46.875 l 0,17,18
 94.7265625 47.8515625 94.7265625 47.8515625 100.341796875 54.6875 c 0,19,20
 105.95703125 61.5234375 105.95703125 61.5234375 105.95703125 68.84765625 c 0,21,-1
 105.95703125 602.05078125 l 0,22,23
 105.95703125 609.375 105.95703125 609.375 100.341796875 616.2109375 c 0,24,25
 94.7265625 623.046875 94.7265625 623.046875 83.984375 624.0234375 c 0,26,-1
 24.90234375 627.9296875 l 0,27,-1
 24.90234375 670.8984375 l 0,28,-1
 223.14453125 670.8984375 l 0,29,-1
 223.14453125 645.99609375 l 0,30,-1
 556.15234375 143.06640625 l 0,31,-1
 556.15234375 602.05078125 l 0,32,33
 556.15234375 609.375 556.15234375 609.375 550.78125 616.2109375 c 0,34,35
 545.41015625 623.046875 545.41015625 623.046875 535.15625 624.0234375 c 0,36,-1
 478.02734375 627.9296875 l 0,37,-1
 478.02734375 670.8984375 l 0,38,-1
 691.89453125 670.8984375 l 0,39,-1
 691.89453125 627.9296875 l 0,40,-1
 636.23046875 624.0234375 l 0,0,1
EndSplineSet
EndChar

StartChar: O
Encoding: 50 79 50
Width: 730
VWidth: 488
Flags: W
LayerCount: 2
Fore
SplineSet
691.89453125 334.9609375 m 0,0,1
 691.89453125 262.20703125 691.89453125 262.20703125 668.45703125 198.2421875 c 0,2,3
 645.01953125 134.27734375 645.01953125 134.27734375 602.294921875 86.669921875 c 0,4,5
 559.5703125 39.0625 559.5703125 39.0625 499.51171875 11.474609375 c 0,6,7
 439.453125 -16.11328125 439.453125 -16.11328125 366.2109375 -16.11328125 c 0,8,9
 292.48046875 -16.11328125 292.48046875 -16.11328125 232.177734375 10.498046875 c 0,10,11
 171.875 37.109375 171.875 37.109375 128.90625 84.47265625 c 0,12,13
 85.9375 131.8359375 85.9375 131.8359375 62.5 196.044921875 c 0,14,15
 39.0625 260.25390625 39.0625 260.25390625 39.0625 335.9375 c 0,16,17
 39.0625 409.1796875 39.0625 409.1796875 62.01171875 473.14453125 c 0,18,19
 84.9609375 537.109375 84.9609375 537.109375 127.44140625 584.716796875 c 0,20,21
 169.921875 632.32421875 169.921875 632.32421875 230.224609375 659.66796875 c 0,22,23
 290.52734375 687.01171875 290.52734375 687.01171875 365.234375 687.01171875 c 0,24,25
 439.453125 687.01171875 439.453125 687.01171875 499.755859375 659.1796875 c 0,26,27
 560.05859375 631.34765625 560.05859375 631.34765625 602.783203125 583.49609375 c 0,28,29
 645.5078125 535.64453125 645.5078125 535.64453125 668.701171875 471.6796875 c 0,30,31
 691.89453125 407.71484375 691.89453125 407.71484375 691.89453125 334.9609375 c 0,0,1
576.171875 333.984375 m 0,32,33
 576.171875 395.01953125 576.171875 395.01953125 562.98828125 448.974609375 c 0,34,35
 549.8046875 502.9296875 549.8046875 502.9296875 523.4375 543.212890625 c 0,36,37
 497.0703125 583.49609375 497.0703125 583.49609375 457.763671875 606.689453125 c 0,38,39
 418.45703125 629.8828125 418.45703125 629.8828125 366.2109375 629.8828125 c 0,40,41
 312.01171875 629.8828125 312.01171875 629.8828125 271.97265625 606.4453125 c 0,42,43
 231.93359375 583.0078125 231.93359375 583.0078125 205.56640625 542.724609375 c 0,44,45
 179.19921875 502.44140625 179.19921875 502.44140625 166.50390625 448.974609375 c 0,46,47
 153.80859375 395.5078125 153.80859375 395.5078125 153.80859375 335.9375 c 0,48,49
 153.80859375 275.87890625 153.80859375 275.87890625 166.748046875 221.923828125 c 0,50,51
 179.6875 167.96875 179.6875 167.96875 205.810546875 127.44140625 c 0,52,53
 231.93359375 86.9140625 231.93359375 86.9140625 271.240234375 62.98828125 c 0,54,55
 310.546875 39.0625 310.546875 39.0625 363.76953125 39.0625 c 0,56,57
 417.96875 39.0625 417.96875 39.0625 457.763671875 62.98828125 c 0,58,59
 497.55859375 86.9140625 497.55859375 86.9140625 523.92578125 127.197265625 c 0,60,61
 550.29296875 167.48046875 550.29296875 167.48046875 563.232421875 220.947265625 c 0,62,63
 576.171875 274.4140625 576.171875 274.4140625 576.171875 333.984375 c 0,32,33
EndSplineSet
EndChar

StartChar: P
Encoding: 51 80 51
Width: 579
VWidth: 488
Flags: W
LayerCount: 2
Fore
SplineSet
540.0390625 469.23828125 m 0,0,1
 540.0390625 414.0625 540.0390625 414.0625 519.53125 372.802734375 c 0,2,3
 499.0234375 331.54296875 499.0234375 331.54296875 463.623046875 304.443359375 c 0,4,5
 428.22265625 277.34375 428.22265625 277.34375 380.615234375 263.916015625 c 0,6,7
 333.0078125 250.48828125 333.0078125 250.48828125 278.80859375 250.9765625 c 0,8,9
 269.04296875 250.9765625 269.04296875 250.9765625 257.568359375 251.46484375 c 0,10,11
 246.09375 251.953125 246.09375 251.953125 235.595703125 252.685546875 c 0,12,13
 225.09765625 253.41796875 225.09765625 253.41796875 217.529296875 253.90625 c 0,14,15
 209.9609375 254.39453125 209.9609375 254.39453125 208.0078125 254.8828125 c 0,16,-1
 208.0078125 68.84765625 l 0,17,18
 208.0078125 61.5234375 208.0078125 61.5234375 213.134765625 54.6875 c 0,19,20
 218.26171875 47.8515625 218.26171875 47.8515625 229.00390625 46.875 c 0,21,-1
 294.921875 42.96875 l 0,22,-1
 294.921875 0 l 0,23,-1
 32.2265625 0 l 0,24,-1
 32.2265625 42.96875 l 0,25,-1
 84.9609375 46.875 l 0,26,27
 95.703125 47.8515625 95.703125 47.8515625 101.318359375 54.6875 c 0,28,29
 106.93359375 61.5234375 106.93359375 61.5234375 106.93359375 68.84765625 c 0,30,-1
 106.93359375 602.05078125 l 0,31,32
 106.93359375 609.375 106.93359375 609.375 101.318359375 616.2109375 c 0,33,34
 95.703125 623.046875 95.703125 623.046875 84.9609375 624.0234375 c 0,35,-1
 24.90234375 627.9296875 l 0,36,-1
 24.90234375 670.8984375 l 0,37,-1
 264.16015625 670.8984375 l 0,38,39
 334.9609375 670.8984375 334.9609375 670.8984375 386.962890625 660.15625 c 0,40,41
 438.96484375 649.4140625 438.96484375 649.4140625 472.900390625 625.48828125 c 0,42,43
 506.8359375 601.5625 506.8359375 601.5625 523.4375 563.232421875 c 0,44,45
 540.0390625 524.90234375 540.0390625 524.90234375 540.0390625 469.23828125 c 0,0,1
436.03515625 467.7734375 m 0,46,47
 436.03515625 504.39453125 436.03515625 504.39453125 426.26953125 532.958984375 c 0,48,49
 416.50390625 561.5234375 416.50390625 561.5234375 395.263671875 581.298828125 c 0,50,51
 374.0234375 601.07421875 374.0234375 601.07421875 340.33203125 611.572265625 c 0,52,53
 306.640625 622.0703125 306.640625 622.0703125 258.7890625 622.0703125 c 0,54,55
 251.953125 622.0703125 251.953125 622.0703125 243.1640625 621.826171875 c 0,56,57
 234.375 621.58203125 234.375 621.58203125 226.5625 621.58203125 c 0,58,59
 217.7734375 621.09375 217.7734375 621.09375 208.0078125 621.09375 c 0,60,-1
 208.0078125 306.15234375 l 0,61,62
 208.984375 306.15234375 208.984375 306.15234375 215.33203125 305.419921875 c 0,63,64
 221.6796875 304.6875 221.6796875 304.6875 229.98046875 303.466796875 c 0,65,66
 238.28125 302.24609375 238.28125 302.24609375 247.55859375 301.513671875 c 0,67,68
 256.8359375 300.78125 256.8359375 300.78125 264.16015625 300.78125 c 0,69,70
 303.7109375 300.29296875 303.7109375 300.29296875 335.44921875 310.05859375 c 0,71,72
 367.1875 319.82421875 367.1875 319.82421875 389.404296875 340.33203125 c 0,73,74
 411.62109375 360.83984375 411.62109375 360.83984375 423.828125 392.578125 c 0,75,76
 436.03515625 424.31640625 436.03515625 424.31640625 436.03515625 467.7734375 c 0,46,47
EndSplineSet
EndChar

StartChar: Q
Encoding: 52 81 52
Width: 738
VWidth: 488
Flags: W
LayerCount: 2
Fore
SplineSet
700.1953125 334.9609375 m 0,0,1
 700.1953125 267.578125 700.1953125 267.578125 681.396484375 208.984375 c 0,2,3
 662.59765625 150.390625 662.59765625 150.390625 626.953125 104.98046875 c 0,4,5
 591.30859375 59.5703125 591.30859375 59.5703125 540.0390625 29.541015625 c 0,6,7
 488.76953125 -0.48828125 488.76953125 -0.48828125 423.828125 -11.23046875 c 0,8,9
 424.8046875 -67.3828125 424.8046875 -67.3828125 458.740234375 -99.609375 c 0,10,11
 492.67578125 -131.8359375 492.67578125 -131.8359375 562.01171875 -131.8359375 c 0,12,13
 580.078125 -131.8359375 580.078125 -131.8359375 596.19140625 -130.37109375 c 0,14,15
 612.3046875 -128.90625 612.3046875 -128.90625 625 -127.197265625 c 0,16,17
 637.6953125 -125.48828125 637.6953125 -125.48828125 646.240234375 -123.779296875 c 0,18,19
 654.78515625 -122.0703125 654.78515625 -122.0703125 658.203125 -121.09375 c 0,20,-1
 658.203125 -164.0625 l 0,21,22
 652.83203125 -165.0390625 652.83203125 -165.0390625 638.916015625 -167.96875 c 0,23,24
 625 -170.8984375 625 -170.8984375 604.98046875 -173.828125 c 0,25,26
 584.9609375 -176.7578125 584.9609375 -176.7578125 560.546875 -178.955078125 c 0,27,28
 536.1328125 -181.15234375 536.1328125 -181.15234375 509.765625 -181.15234375 c 0,29,30
 457.03125 -181.15234375 457.03125 -181.15234375 420.41015625 -169.43359375 c 0,31,32
 383.7890625 -157.71484375 383.7890625 -157.71484375 360.595703125 -135.7421875 c 0,33,34
 337.40234375 -113.76953125 337.40234375 -113.76953125 327.1484375 -82.763671875 c 0,35,36
 316.89453125 -51.7578125 316.89453125 -51.7578125 316.89453125 -13.18359375 c 0,37,38
 256.8359375 -4.39453125 256.8359375 -4.39453125 206.0546875 23.4375 c 0,39,40
 155.2734375 51.26953125 155.2734375 51.26953125 118.1640625 95.947265625 c 0,41,42
 81.0546875 140.625 81.0546875 140.625 60.05859375 201.171875 c 0,43,44
 39.0625 261.71875 39.0625 261.71875 39.0625 334.9609375 c 0,45,46
 39.0625 383.7890625 39.0625 383.7890625 49.560546875 428.955078125 c 0,47,48
 60.05859375 474.12109375 60.05859375 474.12109375 79.833984375 513.18359375 c 0,49,50
 99.609375 552.24609375 99.609375 552.24609375 128.41796875 584.228515625 c 0,51,52
 157.2265625 616.2109375 157.2265625 616.2109375 193.84765625 639.16015625 c 0,53,54
 230.46875 662.109375 230.46875 662.109375 274.4140625 674.560546875 c 0,55,56
 318.359375 687.01171875 318.359375 687.01171875 368.1640625 687.01171875 c 0,57,58
 444.3359375 687.01171875 444.3359375 687.01171875 505.615234375 659.66796875 c 0,59,60
 566.89453125 632.32421875 566.89453125 632.32421875 610.107421875 584.9609375 c 0,61,62
 653.3203125 537.59765625 653.3203125 537.59765625 676.7578125 473.14453125 c 0,63,64
 700.1953125 408.69140625 700.1953125 408.69140625 700.1953125 334.9609375 c 0,0,1
582.03125 334.9609375 m 0,65,66
 582.03125 394.04296875 582.03125 394.04296875 569.3359375 447.509765625 c 0,67,68
 556.640625 500.9765625 556.640625 500.9765625 530.517578125 541.748046875 c 0,69,70
 504.39453125 582.51953125 504.39453125 582.51953125 464.35546875 606.689453125 c 0,71,72
 424.31640625 630.859375 424.31640625 630.859375 369.140625 630.859375 c 0,73,74
 314.453125 630.859375 314.453125 630.859375 274.169921875 607.421875 c 0,75,76
 233.88671875 583.984375 233.88671875 583.984375 207.51953125 543.701171875 c 0,77,78
 181.15234375 503.41796875 181.15234375 503.41796875 168.45703125 449.951171875 c 0,79,80
 155.76171875 396.484375 155.76171875 396.484375 155.76171875 336.9140625 c 0,81,82
 155.76171875 278.3203125 155.76171875 278.3203125 168.9453125 224.365234375 c 0,83,84
 182.12890625 170.41015625 182.12890625 170.41015625 208.740234375 129.150390625 c 0,85,86
 235.3515625 87.890625 235.3515625 87.890625 275.390625 63.4765625 c 0,87,88
 315.4296875 39.0625 315.4296875 39.0625 369.140625 39.0625 c 0,89,90
 423.33984375 39.0625 423.33984375 39.0625 463.37890625 63.232421875 c 0,91,92
 503.41796875 87.40234375 503.41796875 87.40234375 529.78515625 128.173828125 c 0,93,94
 556.15234375 168.9453125 556.15234375 168.9453125 569.091796875 222.65625 c 0,95,96
 582.03125 276.3671875 582.03125 276.3671875 582.03125 334.9609375 c 0,65,66
EndSplineSet
EndChar

StartChar: R
Encoding: 53 82 53
Width: 648
VWidth: 488
Flags: W
LayerCount: 2
Fore
SplineSet
648.92578125 -2.9296875 m 0,0,1
 645.5078125 -3.41796875 645.5078125 -3.41796875 639.16015625 -5.37109375 c 0,2,3
 632.8125 -7.32421875 632.8125 -7.32421875 624.0234375 -9.765625 c 0,4,5
 615.234375 -12.20703125 615.234375 -12.20703125 604.736328125 -14.16015625 c 0,6,7
 594.23828125 -16.11328125 594.23828125 -16.11328125 583.0078125 -16.11328125 c 0,8,9
 538.0859375 -16.11328125 538.0859375 -16.11328125 510.25390625 -2.685546875 c 0,10,11
 482.421875 10.7421875 482.421875 10.7421875 465.087890625 32.958984375 c 0,12,13
 447.75390625 55.17578125 447.75390625 55.17578125 437.98828125 83.49609375 c 0,14,15
 428.22265625 111.81640625 428.22265625 111.81640625 419.921875 141.357421875 c 0,16,17
 411.62109375 170.8984375 411.62109375 170.8984375 401.611328125 199.21875 c 0,18,19
 391.6015625 227.5390625 391.6015625 227.5390625 373.53515625 249.755859375 c 0,20,21
 355.46875 271.97265625 355.46875 271.97265625 326.66015625 285.400390625 c 0,22,23
 297.8515625 298.828125 297.8515625 298.828125 251.953125 298.828125 c 0,24,25
 244.140625 298.828125 244.140625 298.828125 236.328125 298.583984375 c 0,26,27
 228.515625 298.33984375 228.515625 298.33984375 222.412109375 297.8515625 c 0,28,29
 216.30859375 297.36328125 216.30859375 297.36328125 211.9140625 297.119140625 c 0,30,31
 207.51953125 296.875 207.51953125 296.875 207.03125 296.875 c 0,32,-1
 207.03125 68.84765625 l 0,33,34
 207.03125 61.5234375 207.03125 61.5234375 212.158203125 54.6875 c 0,35,36
 217.28515625 47.8515625 217.28515625 47.8515625 228.02734375 46.875 c 0,37,-1
 280.76171875 42.96875 l 0,38,-1
 280.76171875 0 l 0,39,-1
 32.2265625 0 l 0,40,-1
 32.2265625 42.96875 l 0,41,-1
 83.984375 46.875 l 0,42,43
 94.7265625 47.8515625 94.7265625 47.8515625 100.341796875 54.6875 c 0,44,45
 105.95703125 61.5234375 105.95703125 61.5234375 105.95703125 68.84765625 c 0,46,-1
 105.95703125 602.05078125 l 0,47,48
 105.95703125 609.375 105.95703125 609.375 100.341796875 616.2109375 c 0,49,50
 94.7265625 623.046875 94.7265625 623.046875 83.984375 624.0234375 c 0,51,-1
 32.2265625 627.9296875 l 0,52,-1
 32.2265625 670.8984375 l 0,53,-1
 292.96875 670.8984375 l 0,54,55
 350.09765625 670.8984375 350.09765625 670.8984375 395.5078125 661.62109375 c 0,56,57
 440.91796875 652.34375 440.91796875 652.34375 472.65625 631.34765625 c 0,58,59
 504.39453125 610.3515625 504.39453125 610.3515625 521.240234375 576.416015625 c 0,60,61
 538.0859375 542.48046875 538.0859375 542.48046875 538.0859375 493.1640625 c 0,62,63
 538.0859375 453.61328125 538.0859375 453.61328125 524.4140625 425.29296875 c 0,64,65
 510.7421875 396.97265625 510.7421875 396.97265625 488.037109375 377.44140625 c 0,66,67
 465.33203125 357.91015625 465.33203125 357.91015625 435.546875 345.703125 c 0,68,69
 405.76171875 333.49609375 405.76171875 333.49609375 374.0234375 326.171875 c 0,70,71
 414.55078125 316.40625 414.55078125 316.40625 438.96484375 299.072265625 c 0,72,73
 463.37890625 281.73828125 463.37890625 281.73828125 477.5390625 259.765625 c 0,74,75
 491.69921875 237.79296875 491.69921875 237.79296875 498.53515625 213.134765625 c 0,76,77
 505.37109375 188.4765625 505.37109375 188.4765625 510.7421875 164.306640625 c 0,78,79
 516.11328125 140.13671875 516.11328125 140.13671875 522.94921875 118.1640625 c 0,80,81
 529.78515625 96.19140625 529.78515625 96.19140625 544.189453125 79.1015625 c 0,82,83
 558.59375 62.01171875 558.59375 62.01171875 583.251953125 52.001953125 c 0,84,85
 607.91015625 41.9921875 607.91015625 41.9921875 648.92578125 41.9921875 c 0,86,-1
 648.92578125 -2.9296875 l 0,0,1
429.19921875 488.76953125 m 0,87,88
 429.19921875 520.99609375 429.19921875 520.99609375 419.43359375 545.654296875 c 0,89,90
 409.66796875 570.3125 409.66796875 570.3125 388.427734375 587.40234375 c 0,91,92
 367.1875 604.4921875 367.1875 604.4921875 333.740234375 613.28125 c 0,93,94
 300.29296875 622.0703125 300.29296875 622.0703125 252.9296875 622.0703125 c 0,95,-1
 207.03125 622.0703125 l 0,96,-1
 207.03125 348.14453125 l 0,97,98
 208.0078125 348.14453125 208.0078125 348.14453125 213.8671875 347.900390625 c 0,99,100
 219.7265625 347.65625 219.7265625 347.65625 227.294921875 347.65625 c 0,101,102
 234.86328125 347.65625 234.86328125 347.65625 242.919921875 347.412109375 c 0,103,104
 250.9765625 347.16796875 250.9765625 347.16796875 256.8359375 347.16796875 c 0,105,106
 298.33984375 347.16796875 298.33984375 347.16796875 330.56640625 354.248046875 c 0,107,108
 362.79296875 361.328125 362.79296875 361.328125 384.765625 377.9296875 c 0,109,110
 406.73828125 394.53125 406.73828125 394.53125 417.96875 421.630859375 c 0,111,112
 429.19921875 448.73046875 429.19921875 448.73046875 429.19921875 488.76953125 c 0,87,88
EndSplineSet
EndChar

StartChar: S
Encoding: 54 83 54
Width: 520
VWidth: 488
Flags: W
LayerCount: 2
Fore
SplineSet
481.93359375 187.98828125 m 0,0,1
 481.93359375 149.90234375 481.93359375 149.90234375 467.041015625 113.28125 c 0,2,3
 452.1484375 76.66015625 452.1484375 76.66015625 419.921875 47.8515625 c 0,4,5
 387.6953125 19.04296875 387.6953125 19.04296875 337.40234375 1.46484375 c 0,6,7
 287.109375 -16.11328125 287.109375 -16.11328125 216.796875 -16.11328125 c 0,8,9
 175.78125 -16.11328125 175.78125 -16.11328125 143.310546875 -10.25390625 c 0,10,11
 110.83984375 -4.39453125 110.83984375 -4.39453125 87.40234375 2.44140625 c 0,12,13
 60.546875 10.7421875 60.546875 10.7421875 39.0625 20.99609375 c 0,14,-1
 39.0625 198.2421875 l 0,15,-1
 102.05078125 198.2421875 l 0,16,-1
 115.234375 84.9609375 l 0,17,18
 116.2109375 79.1015625 116.2109375 79.1015625 121.337890625 72.265625 c 0,19,20
 126.46484375 65.4296875 126.46484375 65.4296875 131.8359375 62.98828125 c 0,21,-1
 140.13671875 58.59375 l 0,22,23
 147.4609375 55.17578125 147.4609375 55.17578125 160.15625 51.025390625 c 0,24,25
 172.8515625 46.875 172.8515625 46.875 191.162109375 43.45703125 c 0,26,27
 209.47265625 40.0390625 209.47265625 40.0390625 232.91015625 40.0390625 c 0,28,29
 264.6484375 40.0390625 264.6484375 40.0390625 291.748046875 48.095703125 c 0,30,31
 318.84765625 56.15234375 318.84765625 56.15234375 338.37890625 71.2890625 c 0,32,33
 357.91015625 86.42578125 357.91015625 86.42578125 368.896484375 108.3984375 c 0,34,35
 379.8828125 130.37109375 379.8828125 130.37109375 379.8828125 158.203125 c 0,36,37
 379.8828125 188.4765625 379.8828125 188.4765625 362.548828125 211.181640625 c 0,38,39
 345.21484375 233.88671875 345.21484375 233.88671875 319.091796875 251.708984375 c 0,40,41
 292.96875 269.53125 292.96875 269.53125 262.20703125 283.69140625 c 0,42,43
 231.4453125 297.8515625 231.4453125 297.8515625 204.1015625 311.03515625 c 0,44,45
 173.33984375 325.68359375 173.33984375 325.68359375 145.263671875 341.30859375 c 0,46,47
 117.1875 356.93359375 117.1875 356.93359375 95.947265625 377.44140625 c 0,48,49
 74.70703125 397.94921875 74.70703125 397.94921875 62.255859375 425.537109375 c 0,50,51
 49.8046875 453.125 49.8046875 453.125 49.8046875 491.2109375 c 0,52,53
 49.8046875 535.64453125 49.8046875 535.64453125 67.3828125 571.77734375 c 0,54,55
 84.9609375 607.91015625 84.9609375 607.91015625 115.966796875 633.544921875 c 0,56,57
 146.97265625 659.1796875 146.97265625 659.1796875 189.208984375 673.095703125 c 0,58,59
 231.4453125 687.01171875 231.4453125 687.01171875 280.76171875 687.01171875 c 0,60,61
 309.08203125 687.01171875 309.08203125 687.01171875 334.228515625 683.59375 c 0,62,63
 359.375 680.17578125 359.375 680.17578125 381.103515625 675.048828125 c 0,64,65
 402.83203125 669.921875 402.83203125 669.921875 421.630859375 664.0625 c 0,66,67
 440.4296875 658.203125 440.4296875 658.203125 457.03125 652.83203125 c 0,68,-1
 457.03125 497.0703125 l 0,69,-1
 399.90234375 497.0703125 l 0,70,-1
 384.765625 592.7734375 l 0,71,72
 383.7890625 597.65625 383.7890625 597.65625 379.150390625 602.5390625 c 0,73,74
 374.51171875 607.421875 374.51171875 607.421875 370.1171875 609.86328125 c 0,75,76
 369.140625 610.3515625 369.140625 610.3515625 363.76953125 614.2578125 c 0,77,78
 358.3984375 618.1640625 358.3984375 618.1640625 347.900390625 622.0703125 c 0,79,80
 337.40234375 625.9765625 337.40234375 625.9765625 321.044921875 629.39453125 c 0,81,82
 304.6875 632.8125 304.6875 632.8125 282.2265625 632.8125 c 0,83,84
 251.953125 632.8125 251.953125 632.8125 228.02734375 624.0234375 c 0,85,86
 204.1015625 615.234375 204.1015625 615.234375 187.5 599.365234375 c 0,87,88
 170.8984375 583.49609375 170.8984375 583.49609375 161.865234375 562.01171875 c 0,89,90
 152.83203125 540.52734375 152.83203125 540.52734375 152.83203125 515.13671875 c 0,91,92
 152.83203125 492.1875 152.83203125 492.1875 161.865234375 473.388671875 c 0,93,94
 170.8984375 454.58984375 170.8984375 454.58984375 188.720703125 438.720703125 c 0,95,96
 206.54296875 422.8515625 206.54296875 422.8515625 232.421875 409.1796875 c 0,97,98
 258.30078125 395.5078125 258.30078125 395.5078125 291.9921875 382.8125 c 0,99,100
 337.40234375 365.72265625 337.40234375 365.72265625 372.802734375 347.16796875 c 0,101,102
 408.203125 328.61328125 408.203125 328.61328125 432.373046875 305.6640625 c 0,103,104
 456.54296875 282.71484375 456.54296875 282.71484375 469.23828125 254.150390625 c 0,105,106
 481.93359375 225.5859375 481.93359375 225.5859375 481.93359375 187.98828125 c 0,0,1
EndSplineSet
EndChar

StartChar: T
Encoding: 55 84 55
Width: 599
VWidth: 488
Flags: W
LayerCount: 2
Fore
SplineSet
523.92578125 511.23046875 m 0,0,-1
 509.765625 604.98046875 l 0,1,2
 508.30078125 612.79296875 508.30078125 612.79296875 504.150390625 617.431640625 c 0,3,4
 500 622.0703125 500 622.0703125 493.1640625 622.0703125 c 0,5,-1
 350.09765625 622.0703125 l 0,6,-1
 350.09765625 68.84765625 l 0,7,8
 350.09765625 61.5234375 350.09765625 61.5234375 355.224609375 54.6875 c 0,9,10
 360.3515625 47.8515625 360.3515625 47.8515625 371.09375 46.875 c 0,11,-1
 435.05859375 42.96875 l 0,12,-1
 435.05859375 0 l 0,13,-1
 164.0625 0 l 0,14,-1
 164.0625 42.96875 l 0,15,-1
 228.02734375 46.875 l 0,16,17
 238.76953125 47.8515625 238.76953125 47.8515625 243.896484375 54.6875 c 0,18,19
 249.0234375 61.5234375 249.0234375 61.5234375 249.0234375 68.84765625 c 0,20,-1
 249.0234375 622.0703125 l 0,21,-1
 104.98046875 622.0703125 l 0,22,23
 98.14453125 622.0703125 98.14453125 622.0703125 93.505859375 617.431640625 c 0,24,25
 88.8671875 612.79296875 88.8671875 612.79296875 87.890625 604.98046875 c 0,26,-1
 74.21875 511.23046875 l 0,27,-1
 16.11328125 511.23046875 l 0,28,-1
 16.11328125 670.8984375 l 0,29,-1
 583.0078125 670.8984375 l 0,30,-1
 583.0078125 511.23046875 l 0,31,-1
 523.92578125 511.23046875 l 0,0,-1
EndSplineSet
EndChar

StartChar: U
Encoding: 56 85 56
Width: 711
VWidth: 488
Flags: W
LayerCount: 2
Fore
SplineSet
626.953125 624.0234375 m 0,0,1
 616.2109375 623.046875 616.2109375 623.046875 611.083984375 616.2109375 c 0,2,3
 605.95703125 609.375 605.95703125 609.375 605.95703125 602.05078125 c 0,4,-1
 605.95703125 222.16796875 l 0,5,6
 605.95703125 160.64453125 605.95703125 160.64453125 589.35546875 115.72265625 c 0,7,8
 572.75390625 70.80078125 572.75390625 70.80078125 540.283203125 41.50390625 c 0,9,10
 507.8125 12.20703125 507.8125 12.20703125 459.716796875 -1.953125 c 0,11,12
 411.62109375 -16.11328125 411.62109375 -16.11328125 349.12109375 -16.11328125 c 0,13,14
 225.09765625 -16.11328125 225.09765625 -16.11328125 165.0390625 43.9453125 c 0,15,16
 104.98046875 104.00390625 104.98046875 104.00390625 104.98046875 222.16796875 c 0,17,-1
 104.98046875 602.05078125 l 0,18,19
 104.98046875 609.375 104.98046875 609.375 99.853515625 616.2109375 c 0,20,21
 94.7265625 623.046875 94.7265625 623.046875 83.984375 624.0234375 c 0,22,-1
 30.76171875 627.9296875 l 0,23,-1
 30.76171875 670.8984375 l 0,24,-1
 285.15625 670.8984375 l 0,25,-1
 285.15625 627.9296875 l 0,26,-1
 228.02734375 624.0234375 l 0,27,28
 217.28515625 623.046875 217.28515625 623.046875 212.158203125 616.2109375 c 0,29,30
 207.03125 609.375 207.03125 609.375 207.03125 602.05078125 c 0,31,-1
 207.03125 248.046875 l 0,32,33
 207.03125 204.1015625 207.03125 204.1015625 213.8671875 167.724609375 c 0,34,35
 220.703125 131.34765625 220.703125 131.34765625 239.2578125 105.46875 c 0,36,37
 257.8125 79.58984375 257.8125 79.58984375 290.771484375 65.185546875 c 0,38,39
 323.73046875 50.78125 323.73046875 50.78125 375.9765625 50.78125 c 0,40,41
 427.734375 50.78125 427.734375 50.78125 460.9375 65.91796875 c 0,42,43
 494.140625 81.0546875 494.140625 81.0546875 513.18359375 107.666015625 c 0,44,45
 532.2265625 134.27734375 532.2265625 134.27734375 539.55078125 170.41015625 c 0,46,47
 546.875 206.54296875 546.875 206.54296875 546.875 248.046875 c 0,48,-1
 546.875 602.05078125 l 0,49,50
 546.875 609.375 546.875 609.375 541.259765625 616.2109375 c 0,51,52
 535.64453125 623.046875 535.64453125 623.046875 524.90234375 624.0234375 c 0,53,-1
 467.7734375 627.9296875 l 0,54,-1
 467.7734375 670.8984375 l 0,55,-1
 685.05859375 670.8984375 l 0,56,-1
 685.05859375 627.9296875 l 0,57,-1
 626.953125 624.0234375 l 0,0,1
EndSplineSet
EndChar

StartChar: V
Encoding: 57 86 57
Width: 666
VWidth: 488
Flags: W
LayerCount: 2
Fore
SplineSet
598.14453125 617.1875 m 0,0,-1
 374.0234375 -16.11328125 l 0,1,-1
 297.8515625 -16.11328125 l 0,2,-1
 68.84765625 618.1640625 l 0,3,-1
 9.765625 627.9296875 l 0,4,-1
 9.765625 670.8984375 l 0,5,-1
 249.0234375 670.8984375 l 0,6,-1
 249.0234375 627.9296875 l 0,7,-1
 189.94140625 623.046875 l 0,8,9
 184.5703125 622.0703125 184.5703125 622.0703125 182.12890625 615.72265625 c 0,10,11
 179.6875 609.375 179.6875 609.375 181.15234375 604.98046875 c 0,12,-1
 356.93359375 110.83984375 l 0,13,-1
 525.87890625 603.02734375 l 0,14,15
 527.83203125 608.88671875 527.83203125 608.88671875 523.193359375 615.478515625 c 0,16,17
 518.5546875 622.0703125 518.5546875 622.0703125 512.20703125 623.046875 c 0,18,-1
 457.03125 627.9296875 l 0,19,-1
 457.03125 670.8984375 l 0,20,-1
 655.76171875 670.8984375 l 0,21,-1
 655.76171875 627.9296875 l 0,22,-1
 598.14453125 617.1875 l 0,0,-1
EndSplineSet
EndChar

StartChar: W
Encoding: 58 87 58
Width: 931
VWidth: 488
Flags: W
LayerCount: 2
Fore
SplineSet
859.86328125 616.2109375 m 0,0,-1
 707.03125 -16.11328125 l 0,1,-1
 633.7890625 -16.11328125 l 0,2,-1
 466.796875 538.0859375 l 0,3,-1
 303.22265625 -16.11328125 l 0,4,-1
 230.95703125 -16.11328125 l 0,5,-1
 67.87109375 616.2109375 l 0,6,-1
 9.765625 627.9296875 l 0,7,-1
 9.765625 670.8984375 l 0,8,-1
 238.76953125 670.8984375 l 0,9,-1
 238.76953125 627.9296875 l 0,10,-1
 179.19921875 622.0703125 l 0,11,12
 172.36328125 621.09375 172.36328125 621.09375 169.921875 614.990234375 c 0,13,14
 167.48046875 608.88671875 167.48046875 608.88671875 168.9453125 602.05078125 c 0,15,-1
 288.0859375 150.87890625 l 0,16,-1
 444.82421875 670.8984375 l 0,17,-1
 521.97265625 670.8984375 l 0,18,-1
 683.10546875 134.765625 l 0,19,-1
 793.9453125 602.05078125 l 0,20,21
 795.41015625 608.88671875 795.41015625 608.88671875 791.50390625 614.990234375 c 0,22,23
 787.59765625 621.09375 787.59765625 621.09375 779.78515625 622.0703125 c 0,24,-1
 716.796875 627.9296875 l 0,25,-1
 716.796875 670.8984375 l 0,26,-1
 920.8984375 670.8984375 l 0,27,-1
 920.8984375 627.9296875 l 0,28,-1
 859.86328125 616.2109375 l 0,0,-1
EndSplineSet
EndChar

StartChar: X
Encoding: 59 88 59
Width: 633
VWidth: 488
Flags: W
LayerCount: 2
Fore
SplineSet
367.1875 0 m 0,0,-1
 367.1875 42.96875 l 0,1,-1
 424.8046875 48.828125 l 0,2,3
 432.6171875 49.8046875 432.6171875 49.8046875 437.01171875 56.15234375 c 0,4,5
 441.40625 62.5 441.40625 62.5 437.01171875 69.82421875 c 0,6,-1
 304.19921875 278.80859375 l 0,7,-1
 149.90234375 66.89453125 l 0,8,9
 145.99609375 61.5234375 145.99609375 61.5234375 147.94921875 55.17578125 c 0,10,11
 149.90234375 48.828125 149.90234375 48.828125 162.109375 47.8515625 c 0,12,-1
 222.16796875 42.96875 l 0,13,-1
 222.16796875 0 l 0,14,-1
 9.765625 0 l 0,15,-1
 9.765625 42.96875 l 0,16,-1
 69.82421875 55.17578125 l 0,17,-1
 270.99609375 331.0546875 l 0,18,-1
 88.8671875 616.2109375 l 0,19,-1
 22.94921875 627.9296875 l 0,20,-1
 22.94921875 670.8984375 l 0,21,-1
 273.92578125 670.8984375 l 0,22,-1
 273.92578125 627.9296875 l 0,23,-1
 223.14453125 623.046875 l 0,24,25
 210.9375 622.0703125 210.9375 622.0703125 208.984375 615.478515625 c 0,26,27
 207.03125 608.88671875 207.03125 608.88671875 210.9375 603.02734375 c 0,28,-1
 333.0078125 415.0390625 l 0,29,-1
 467.7734375 600.09765625 l 0,30,31
 473.14453125 607.421875 473.14453125 607.421875 468.75 613.76953125 c 0,32,33
 464.35546875 620.1171875 464.35546875 620.1171875 457.03125 621.09375 c 0,34,-1
 405.76171875 627.9296875 l 0,35,-1
 405.76171875 670.8984375 l 0,36,-1
 615.234375 670.8984375 l 0,37,-1
 615.234375 627.9296875 l 0,38,-1
 550.78125 618.1640625 l 0,39,-1
 365.234375 362.79296875 l 0,40,-1
 562.01171875 55.17578125 l 0,41,-1
 624.0234375 42.96875 l 0,42,-1
 624.0234375 0 l 0,43,-1
 367.1875 0 l 0,0,-1
EndSplineSet
EndChar

StartChar: Y
Encoding: 60 89 60
Width: 625
VWidth: 488
Flags: W
LayerCount: 2
Fore
SplineSet
562.01171875 618.1640625 m 0,0,-1
 360.83984375 285.15625 l 0,1,-1
 360.83984375 68.84765625 l 0,2,3
 360.83984375 61.5234375 360.83984375 61.5234375 366.2109375 54.6875 c 0,4,5
 371.58203125 47.8515625 371.58203125 47.8515625 381.8359375 46.875 c 0,6,-1
 445.80078125 42.96875 l 0,7,-1
 445.80078125 0 l 0,8,-1
 175.78125 0 l 0,9,-1
 175.78125 42.96875 l 0,10,-1
 237.79296875 46.875 l 0,11,12
 248.53515625 47.8515625 248.53515625 47.8515625 254.150390625 54.6875 c 0,13,14
 259.765625 61.5234375 259.765625 61.5234375 259.765625 68.84765625 c 0,15,-1
 259.765625 270.01953125 l 0,16,-1
 67.87109375 616.2109375 l 0,17,-1
 9.765625 627.9296875 l 0,18,-1
 9.765625 670.8984375 l 0,19,-1
 247.0703125 670.8984375 l 0,20,-1
 247.0703125 627.9296875 l 0,21,-1
 196.77734375 623.046875 l 0,22,23
 185.05859375 621.58203125 185.05859375 621.58203125 183.59375 615.234375 c 0,24,25
 182.12890625 608.88671875 182.12890625 608.88671875 185.05859375 603.02734375 c 0,26,-1
 326.171875 341.796875 l 0,27,-1
 480.95703125 600.09765625 l 0,28,29
 485.3515625 607.421875 485.3515625 607.421875 480.95703125 613.76953125 c 0,30,31
 476.5625 620.1171875 476.5625 620.1171875 469.23828125 621.09375 c 0,32,-1
 413.0859375 627.9296875 l 0,33,-1
 413.0859375 670.8984375 l 0,34,-1
 616.2109375 670.8984375 l 0,35,-1
 616.2109375 627.9296875 l 0,36,-1
 562.01171875 618.1640625 l 0,0,-1
EndSplineSet
EndChar

StartChar: Z
Encoding: 61 90 61
Width: 575
VWidth: 488
Flags: W
LayerCount: 2
Fore
SplineSet
39.0625 0 m 0,0,-1
 39.0625 43.9453125 l 0,1,-1
 411.1328125 621.09375 l 0,2,-1
 150.87890625 621.09375 l 0,3,4
 144.04296875 621.09375 144.04296875 621.09375 139.892578125 616.2109375 c 0,5,6
 135.7421875 611.328125 135.7421875 611.328125 133.7890625 604.00390625 c 0,7,-1
 119.140625 511.23046875 l 0,8,-1
 60.05859375 511.23046875 l 0,9,-1
 60.05859375 670.8984375 l 0,10,-1
 530.76171875 670.8984375 l 0,11,-1
 530.76171875 625 l 0,12,-1
 158.203125 50.78125 l 0,13,-1
 442.87109375 50.78125 l 0,14,15
 449.70703125 50.78125 449.70703125 50.78125 454.1015625 56.15234375 c 0,16,17
 458.49609375 61.5234375 458.49609375 61.5234375 459.9609375 68.84765625 c 0,18,-1
 477.05078125 185.05859375 l 0,19,-1
 536.1328125 185.05859375 l 0,20,-1
 536.1328125 0 l 0,21,-1
 39.0625 0 l 0,0,-1
EndSplineSet
EndChar

StartChar: bracketleft
Encoding: 62 91 62
Width: 422
VWidth: 488
Flags: W
LayerCount: 2
Fore
SplineSet
136.23046875 -131.8359375 m 0,0,-1
 136.23046875 708.0078125 l 0,1,-1
 378.90625 708.0078125 l 0,2,-1
 378.90625 663.0859375 l 0,3,-1
 223.14453125 663.0859375 l 0,4,-1
 223.14453125 -85.9375 l 0,5,-1
 378.90625 -85.9375 l 0,6,-1
 378.90625 -131.8359375 l 0,7,-1
 136.23046875 -131.8359375 l 0,0,-1
EndSplineSet
EndChar

StartChar: backslash
Encoding: 63 92 63
Width: 488
VWidth: 488
Flags: W
LayerCount: 2
Fore
SplineSet
424.8046875 -92.7734375 m 0,0,-1
 0 670.8984375 l 0,1,-1
 63.96484375 670.8984375 l 0,2,-1
 488.76953125 -92.7734375 l 0,3,-1
 424.8046875 -92.7734375 l 0,0,-1
EndSplineSet
EndChar

StartChar: bracketright
Encoding: 64 93 64
Width: 422
VWidth: 488
Flags: W
LayerCount: 2
Fore
SplineSet
43.9453125 -131.8359375 m 0,0,-1
 43.9453125 -85.9375 l 0,1,-1
 201.171875 -85.9375 l 0,2,-1
 201.171875 663.0859375 l 0,3,-1
 43.9453125 663.0859375 l 0,4,-1
 43.9453125 708.0078125 l 0,5,-1
 288.0859375 708.0078125 l 0,6,-1
 288.0859375 -131.8359375 l 0,7,-1
 43.9453125 -131.8359375 l 0,0,-1
EndSplineSet
EndChar

StartChar: asciicircum
Encoding: 65 94 65
Width: 327
Flags: W
LayerCount: 2
Fore
SplineSet
267 550 m 1,0,-1
 164 649 l 1,1,-1
 60 550 l 1,2,-1
 0 550 l 1,3,-1
 125 719 l 1,4,-1
 200 719 l 1,5,-1
 325 550 l 1,6,-1
 267 550 l 1,0,-1
EndSplineSet
Refer: 360 770 N 1 0 0 1 435.547 0 2
EndChar

StartChar: underscore
Encoding: 66 95 66
Width: 334
VWidth: 488
Flags: W
LayerCount: 2
Fore
SplineSet
0 -148.92578125 m 0,0,-1
 0 -85.44921875 l 0,1,-1
 334.9609375 -85.44921875 l 0,2,-1
 334.9609375 -148.92578125 l 0,3,-1
 0 -148.92578125 l 0,0,-1
EndSplineSet
EndChar

StartChar: grave
Encoding: 67 96 67
Width: 350
Flags: W
LayerCount: 2
Fore
SplineSet
174 550 m 1,0,-1
 23 647 l 2,1,2
 13 653 13 653 7 662.5 c 128,-1,3
 1 672 1 672 1 685 c 0,4,5
 1 692 1 692 3 700 c 128,-1,6
 5 708 5 708 10 714 c 128,-1,7
 15 720 15 720 23.5 724 c 128,-1,8
 32 728 32 728 44 728 c 0,9,10
 54 728 54 728 61 726.5 c 128,-1,11
 68 725 68 725 73.5 722 c 128,-1,12
 79 719 79 719 83.5 714 c 128,-1,13
 88 709 88 709 93 703 c 2,14,-1
 226 548 l 1,15,-1
 174 550 l 1,0,-1
EndSplineSet
Refer: 358 768 N 1 0 0 1 415.527 0 2
EndChar

StartChar: a
Encoding: 68 97 68
Width: 508
VWidth: 488
Flags: W
LayerCount: 2
Fore
SplineSet
344.23828125 0 m 0,0,-1
 331.0546875 59.08203125 l 0,1,2
 304.6875 39.0625 304.6875 39.0625 276.85546875 23.4375 c 0,3,4
 264.6484375 16.6015625 264.6484375 16.6015625 250.9765625 10.25390625 c 0,5,6
 237.3046875 3.90625 237.3046875 3.90625 222.900390625 -1.220703125 c 0,7,8
 208.49609375 -6.34765625 208.49609375 -6.34765625 193.603515625 -9.27734375 c 0,9,10
 178.7109375 -12.20703125 178.7109375 -12.20703125 164.0625 -12.20703125 c 0,11,12
 136.71875 -12.20703125 136.71875 -12.20703125 113.037109375 -2.9296875 c 0,13,14
 89.35546875 6.34765625 89.35546875 6.34765625 71.77734375 23.92578125 c 0,15,16
 54.19921875 41.50390625 54.19921875 41.50390625 44.189453125 66.40625 c 0,17,18
 34.1796875 91.30859375 34.1796875 91.30859375 34.1796875 123.046875 c 0,19,20
 34.1796875 141.6015625 34.1796875 141.6015625 37.841796875 158.203125 c 0,21,22
 41.50390625 174.8046875 41.50390625 174.8046875 52.734375 190.4296875 c 0,23,24
 63.96484375 206.0546875 63.96484375 206.0546875 84.228515625 220.458984375 c 0,25,26
 104.4921875 234.86328125 104.4921875 234.86328125 137.451171875 249.0234375 c 0,27,28
 170.41015625 263.18359375 170.41015625 263.18359375 218.017578125 277.099609375 c 0,29,30
 265.625 291.015625 265.625 291.015625 331.0546875 305.17578125 c 0,31,-1
 331.0546875 348.14453125 l 0,32,33
 331.0546875 398.4375 331.0546875 398.4375 308.59375 422.607421875 c 0,34,35
 286.1328125 446.77734375 286.1328125 446.77734375 237.79296875 446.77734375 c 0,36,37
 211.42578125 446.77734375 211.42578125 446.77734375 192.87109375 441.89453125 c 0,38,39
 174.31640625 437.01171875 174.31640625 437.01171875 166.9921875 434.08203125 c 0,40,-1
 166.9921875 347.16796875 l 0,41,-1
 94.23828125 347.16796875 l 0,42,43
 87.40234375 347.16796875 87.40234375 347.16796875 80.810546875 348.14453125 c 0,44,45
 74.21875 349.12109375 74.21875 349.12109375 68.84765625 352.294921875 c 0,46,47
 63.4765625 355.46875 63.4765625 355.46875 60.302734375 361.083984375 c 0,48,49
 57.12890625 366.69921875 57.12890625 366.69921875 57.12890625 375.9765625 c 0,50,51
 57.12890625 406.73828125 57.12890625 406.73828125 75.68359375 428.955078125 c 0,52,53
 94.23828125 451.171875 94.23828125 451.171875 124.0234375 465.8203125 c 0,54,55
 153.80859375 480.46875 153.80859375 480.46875 190.91796875 487.3046875 c 0,56,57
 228.02734375 494.140625 228.02734375 494.140625 265.13671875 494.140625 c 0,58,59
 311.5234375 494.140625 311.5234375 494.140625 342.041015625 482.91015625 c 0,60,61
 372.55859375 471.6796875 372.55859375 471.6796875 390.380859375 451.66015625 c 0,62,63
 408.203125 431.640625 408.203125 431.640625 415.52734375 404.296875 c 0,64,65
 422.8515625 376.953125 422.8515625 376.953125 422.8515625 344.23828125 c 0,66,-1
 422.8515625 63.96484375 l 0,67,68
 422.8515625 54.6875 422.8515625 54.6875 428.955078125 48.828125 c 0,69,70
 435.05859375 42.96875 435.05859375 42.96875 443.84765625 41.9921875 c 0,71,-1
 492.1875 39.0625 l 0,72,-1
 492.1875 0 l 0,73,-1
 344.23828125 0 l 0,0,-1
331.0546875 267.08984375 m 0,74,75
 263.671875 250 263.671875 250 224.12109375 233.3984375 c 0,76,77
 184.5703125 216.796875 184.5703125 216.796875 164.306640625 199.951171875 c 0,78,79
 144.04296875 183.10546875 144.04296875 183.10546875 138.427734375 165.771484375 c 0,80,81
 132.8125 148.4375 132.8125 148.4375 132.8125 129.8828125 c 0,82,83
 132.8125 114.2578125 132.8125 114.2578125 137.939453125 99.365234375 c 0,84,85
 143.06640625 84.47265625 143.06640625 84.47265625 152.587890625 72.75390625 c 0,86,87
 162.109375 61.03515625 162.109375 61.03515625 176.025390625 53.955078125 c 0,88,89
 189.94140625 46.875 189.94140625 46.875 208.0078125 46.875 c 0,90,91
 228.02734375 46.875 228.02734375 46.875 249.755859375 54.19921875 c 0,92,93
 271.484375 61.5234375 271.484375 61.5234375 289.55078125 70.3125 c 0,94,95
 310.546875 80.56640625 310.546875 80.56640625 331.0546875 94.23828125 c 0,96,-1
 331.0546875 267.08984375 l 0,74,75
EndSplineSet
EndChar

StartChar: b
Encoding: 69 98 69
Width: 555
VWidth: 488
Flags: W
LayerCount: 2
Fore
SplineSet
418.9453125 244.140625 m 0,0,1
 418.9453125 338.37890625 418.9453125 338.37890625 378.662109375 386.71875 c 0,2,3
 338.37890625 435.05859375 338.37890625 435.05859375 266.11328125 435.05859375 c 0,4,5
 257.8125 435.05859375 257.8125 435.05859375 246.58203125 433.59375 c 0,6,7
 235.3515625 432.12890625 235.3515625 432.12890625 223.876953125 429.6875 c 0,8,9
 212.40234375 427.24609375 212.40234375 427.24609375 201.416015625 424.31640625 c 0,10,11
 190.4296875 421.38671875 190.4296875 421.38671875 183.10546875 418.9453125 c 0,12,-1
 183.10546875 47.8515625 l 0,13,14
 191.40625 47.36328125 191.40625 47.36328125 200.1953125 47.36328125 c 0,15,16
 207.51953125 46.875 207.51953125 46.875 215.8203125 46.875 c 0,17,-1
 231.93359375 46.875 l 0,18,19
 276.3671875 46.875 276.3671875 46.875 311.03515625 57.12890625 c 0,20,21
 345.703125 67.3828125 345.703125 67.3828125 369.62890625 90.8203125 c 0,22,23
 393.5546875 114.2578125 393.5546875 114.2578125 406.25 151.85546875 c 0,24,25
 418.9453125 189.453125 418.9453125 189.453125 418.9453125 244.140625 c 0,0,1
520.99609375 264.16015625 m 0,26,27
 520.99609375 207.51953125 520.99609375 207.51953125 504.39453125 159.423828125 c 0,28,29
 487.79296875 111.328125 487.79296875 111.328125 452.880859375 75.68359375 c 0,30,31
 417.96875 40.0390625 417.96875 40.0390625 363.525390625 20.01953125 c 0,32,33
 309.08203125 0 309.08203125 0 233.88671875 0 c 0,34,-1
 89.84375 0 l 0,35,-1
 89.84375 665.0390625 l 0,36,-1
 14.16015625 665.0390625 l 0,37,-1
 14.16015625 698.2421875 l 0,38,-1
 143.06640625 736.81640625 l 0,39,-1
 183.10546875 736.81640625 l 0,40,-1
 183.10546875 457.03125 l 0,41,42
 191.89453125 460.9375 191.89453125 460.9375 206.0546875 467.28515625 c 0,43,44
 220.21484375 473.6328125 220.21484375 473.6328125 238.525390625 479.4921875 c 0,45,46
 256.8359375 485.3515625 256.8359375 485.3515625 277.83203125 489.74609375 c 0,47,48
 298.828125 494.140625 298.828125 494.140625 320.80078125 494.140625 c 0,49,50
 370.1171875 494.140625 370.1171875 494.140625 407.470703125 475.5859375 c 0,51,52
 444.82421875 457.03125 444.82421875 457.03125 470.21484375 425.29296875 c 0,53,54
 495.60546875 393.5546875 495.60546875 393.5546875 508.30078125 351.806640625 c 0,55,56
 520.99609375 310.05859375 520.99609375 310.05859375 520.99609375 264.16015625 c 0,26,27
EndSplineSet
EndChar

StartChar: c
Encoding: 70 99 70
Width: 465
VWidth: 488
Flags: W
LayerCount: 2
Fore
SplineSet
432.12890625 37.109375 m 0,0,1
 415.0390625 28.3203125 415.0390625 28.3203125 396.240234375 19.287109375 c 0,2,3
 377.44140625 10.25390625 377.44140625 10.25390625 356.201171875 3.41796875 c 0,4,5
 334.9609375 -3.41796875 334.9609375 -3.41796875 311.767578125 -7.8125 c 0,6,7
 288.57421875 -12.20703125 288.57421875 -12.20703125 263.18359375 -12.20703125 c 0,8,9
 210.44921875 -12.20703125 210.44921875 -12.20703125 168.212890625 6.591796875 c 0,10,11
 125.9765625 25.390625 125.9765625 25.390625 96.19140625 58.837890625 c 0,12,13
 66.40625 92.28515625 66.40625 92.28515625 50.29296875 138.18359375 c 0,14,15
 34.1796875 184.08203125 34.1796875 184.08203125 34.1796875 237.79296875 c 0,16,17
 34.1796875 300.78125 34.1796875 300.78125 53.7109375 348.6328125 c 0,18,19
 73.2421875 396.484375 73.2421875 396.484375 106.4453125 428.955078125 c 0,20,21
 139.6484375 461.42578125 139.6484375 461.42578125 183.349609375 477.783203125 c 0,22,23
 227.05078125 494.140625 227.05078125 494.140625 274.90234375 494.140625 c 0,24,25
 307.6171875 494.140625 307.6171875 494.140625 336.181640625 487.548828125 c 0,26,27
 364.74609375 480.95703125 364.74609375 480.95703125 385.498046875 468.26171875 c 0,28,29
 406.25 455.56640625 406.25 455.56640625 418.212890625 437.01171875 c 0,30,31
 430.17578125 418.45703125 430.17578125 418.45703125 430.17578125 394.04296875 c 0,32,33
 430.17578125 379.39453125 430.17578125 379.39453125 425.048828125 368.408203125 c 0,34,35
 419.921875 357.421875 419.921875 357.421875 411.62109375 349.853515625 c 0,36,37
 403.3203125 342.28515625 403.3203125 342.28515625 392.822265625 338.623046875 c 0,38,39
 382.32421875 334.9609375 382.32421875 334.9609375 371.09375 334.9609375 c 0,40,41
 354.4921875 334.9609375 354.4921875 334.9609375 342.28515625 340.576171875 c 0,42,43
 330.078125 346.19140625 330.078125 346.19140625 320.80078125 352.05078125 c 0,44,-1
 320.80078125 438.96484375 l 0,45,46
 310.546875 444.82421875 310.546875 444.82421875 299.560546875 448.486328125 c 0,47,48
 288.57421875 452.1484375 288.57421875 452.1484375 278.80859375 452.1484375 c 0,49,50
 245.60546875 452.1484375 245.60546875 452.1484375 218.994140625 437.01171875 c 0,51,52
 192.3828125 421.875 192.3828125 421.875 174.072265625 395.01953125 c 0,53,54
 155.76171875 368.1640625 155.76171875 368.1640625 145.99609375 331.298828125 c 0,55,56
 136.23046875 294.43359375 136.23046875 294.43359375 136.23046875 250.9765625 c 0,57,58
 136.23046875 209.47265625 136.23046875 209.47265625 146.728515625 172.8515625 c 0,59,60
 157.2265625 136.23046875 157.2265625 136.23046875 177.978515625 109.130859375 c 0,61,62
 198.73046875 82.03125 198.73046875 82.03125 229.736328125 66.40625 c 0,63,64
 260.7421875 50.78125 260.7421875 50.78125 301.7578125 50.78125 c 0,65,66
 336.9140625 50.78125 336.9140625 50.78125 368.408203125 61.767578125 c 0,67,68
 399.90234375 72.75390625 399.90234375 72.75390625 432.12890625 94.23828125 c 0,69,-1
 432.12890625 37.109375 l 0,0,1
EndSplineSet
EndChar

StartChar: d
Encoding: 71 100 71
Width: 563
VWidth: 488
Flags: W
LayerCount: 2
Fore
SplineSet
380.859375 0 m 0,0,-1
 380.859375 53.22265625 l 0,1,2
 363.76953125 40.0390625 363.76953125 40.0390625 345.458984375 28.076171875 c 0,3,4
 327.1484375 16.11328125 327.1484375 16.11328125 307.861328125 7.32421875 c 0,5,6
 288.57421875 -1.46484375 288.57421875 -1.46484375 268.310546875 -6.8359375 c 0,7,8
 248.046875 -12.20703125 248.046875 -12.20703125 226.07421875 -12.20703125 c 0,9,10
 175.78125 -12.20703125 175.78125 -12.20703125 139.404296875 9.521484375 c 0,11,12
 103.02734375 31.25 103.02734375 31.25 79.58984375 65.673828125 c 0,13,14
 56.15234375 100.09765625 56.15234375 100.09765625 45.166015625 142.822265625 c 0,15,16
 34.1796875 185.546875 34.1796875 185.546875 34.1796875 228.02734375 c 0,17,18
 34.1796875 278.80859375 34.1796875 278.80859375 49.8046875 326.904296875 c 0,19,20
 65.4296875 375 65.4296875 375 97.16796875 412.109375 c 0,21,22
 128.90625 449.21875 128.90625 449.21875 176.7578125 471.6796875 c 0,23,24
 224.609375 494.140625 224.609375 494.140625 289.0625 494.140625 c 0,25,26
 300.78125 494.140625 300.78125 494.140625 314.453125 492.67578125 c 0,27,28
 328.125 491.2109375 328.125 491.2109375 341.064453125 489.501953125 c 0,29,30
 354.00390625 487.79296875 354.00390625 487.79296875 364.501953125 485.595703125 c 0,31,32
 375 483.3984375 375 483.3984375 380.859375 481.93359375 c 0,33,-1
 380.859375 665.0390625 l 0,34,-1
 305.17578125 665.0390625 l 0,35,-1
 305.17578125 698.2421875 l 0,36,-1
 434.08203125 736.81640625 l 0,37,-1
 474.12109375 736.81640625 l 0,38,-1
 474.12109375 63.96484375 l 0,39,40
 474.12109375 54.6875 474.12109375 54.6875 479.98046875 48.828125 c 0,41,42
 485.83984375 42.96875 485.83984375 42.96875 495.1171875 41.9921875 c 0,43,-1
 538.0859375 39.0625 l 0,44,-1
 538.0859375 0 l 0,45,-1
 380.859375 0 l 0,0,-1
380.859375 431.15234375 m 0,46,47
 374.51171875 433.10546875 374.51171875 433.10546875 364.501953125 435.791015625 c 0,48,49
 354.4921875 438.4765625 354.4921875 438.4765625 343.017578125 440.673828125 c 0,50,51
 331.54296875 442.87109375 331.54296875 442.87109375 319.091796875 444.3359375 c 0,52,53
 306.640625 445.80078125 306.640625 445.80078125 295.8984375 445.80078125 c 0,54,55
 258.7890625 445.80078125 258.7890625 445.80078125 228.515625 431.396484375 c 0,56,57
 198.2421875 416.9921875 198.2421875 416.9921875 177.001953125 390.869140625 c 0,58,59
 155.76171875 364.74609375 155.76171875 364.74609375 144.287109375 327.63671875 c 0,60,61
 132.8125 290.52734375 132.8125 290.52734375 132.8125 245.1171875 c 0,62,63
 132.8125 204.1015625 132.8125 204.1015625 142.578125 169.677734375 c 0,64,65
 152.34375 135.25390625 152.34375 135.25390625 170.8984375 109.86328125 c 0,66,67
 189.453125 84.47265625 189.453125 84.47265625 216.30859375 70.3125 c 0,68,69
 243.1640625 56.15234375 243.1640625 56.15234375 277.83203125 56.15234375 c 0,70,71
 292.96875 56.15234375 292.96875 56.15234375 307.12890625 59.326171875 c 0,72,73
 321.2890625 62.5 321.2890625 62.5 334.47265625 67.626953125 c 0,74,75
 347.65625 72.75390625 347.65625 72.75390625 359.375 78.857421875 c 0,76,77
 371.09375 84.9609375 371.09375 84.9609375 380.859375 90.8203125 c 0,78,-1
 380.859375 431.15234375 l 0,46,47
EndSplineSet
EndChar

StartChar: e
Encoding: 72 101 72
Width: 490
VWidth: 488
Flags: W
LayerCount: 2
Fore
SplineSet
355.95703125 328.125 m 0,0,1
 355.95703125 353.02734375 355.95703125 353.02734375 350.09765625 374.267578125 c 0,2,3
 344.23828125 395.5078125 344.23828125 395.5078125 332.275390625 411.1328125 c 0,4,5
 320.3125 426.7578125 320.3125 426.7578125 302.001953125 435.791015625 c 0,6,7
 283.69140625 444.82421875 283.69140625 444.82421875 258.7890625 444.82421875 c 0,8,9
 233.88671875 444.82421875 233.88671875 444.82421875 212.40234375 435.302734375 c 0,10,11
 190.91796875 425.78125 190.91796875 425.78125 174.560546875 407.71484375 c 0,12,13
 158.203125 389.6484375 158.203125 389.6484375 148.193359375 364.013671875 c 0,14,15
 138.18359375 338.37890625 138.18359375 338.37890625 136.23046875 306.15234375 c 0,16,-1
 355.95703125 306.15234375 l 0,17,-1
 355.95703125 328.125 l 0,0,1
456.0546875 49.8046875 m 0,18,19
 435.05859375 36.62109375 435.05859375 36.62109375 412.353515625 25.390625 c 0,20,21
 389.6484375 14.16015625 389.6484375 14.16015625 365.478515625 5.859375 c 0,22,23
 341.30859375 -2.44140625 341.30859375 -2.44140625 316.40625 -7.32421875 c 0,24,25
 291.50390625 -12.20703125 291.50390625 -12.20703125 266.11328125 -12.20703125 c 0,26,27
 220.703125 -12.20703125 220.703125 -12.20703125 178.7109375 3.173828125 c 0,28,29
 136.71875 18.5546875 136.71875 18.5546875 104.736328125 49.31640625 c 0,30,31
 72.75390625 80.078125 72.75390625 80.078125 53.466796875 126.708984375 c 0,32,33
 34.1796875 173.33984375 34.1796875 173.33984375 34.1796875 235.83984375 c 0,34,35
 34.1796875 294.43359375 34.1796875 294.43359375 51.7578125 342.041015625 c 0,36,37
 69.3359375 389.6484375 69.3359375 389.6484375 100.5859375 423.583984375 c 0,38,39
 131.8359375 457.51953125 131.8359375 457.51953125 174.8046875 475.830078125 c 0,40,41
 217.7734375 494.140625 217.7734375 494.140625 269.04296875 494.140625 c 0,42,43
 315.4296875 494.140625 315.4296875 494.140625 350.5859375 478.759765625 c 0,44,45
 385.7421875 463.37890625 385.7421875 463.37890625 409.1796875 436.279296875 c 0,46,47
 432.6171875 409.1796875 432.6171875 409.1796875 444.3359375 371.337890625 c 0,48,49
 456.0546875 333.49609375 456.0546875 333.49609375 456.0546875 289.0625 c 0,50,-1
 456.0546875 275.87890625 l 0,51,52
 456.0546875 268.06640625 456.0546875 268.06640625 455.078125 261.23046875 c 0,53,-1
 130.859375 261.23046875 l 0,54,55
 130.859375 223.14453125 130.859375 223.14453125 138.916015625 185.05859375 c 0,56,57
 146.97265625 146.97265625 146.97265625 146.97265625 166.015625 116.69921875 c 0,58,59
 185.05859375 86.42578125 185.05859375 86.42578125 217.28515625 67.626953125 c 0,60,61
 249.51171875 48.828125 249.51171875 48.828125 297.8515625 48.828125 c 0,62,63
 319.3359375 48.828125 319.3359375 48.828125 340.33203125 54.443359375 c 0,64,65
 361.328125 60.05859375 361.328125 60.05859375 381.591796875 68.84765625 c 0,66,67
 401.85546875 77.63671875 401.85546875 77.63671875 420.41015625 88.623046875 c 0,68,69
 438.96484375 99.609375 438.96484375 99.609375 456.0546875 110.83984375 c 0,70,-1
 456.0546875 49.8046875 l 0,18,19
EndSplineSet
EndChar

StartChar: f
Encoding: 73 102 73
Width: 326
VWidth: 488
Flags: W
LayerCount: 2
Fore
SplineSet
389.16015625 676.7578125 m 0,0,1
 389.16015625 661.62109375 389.16015625 661.62109375 383.056640625 651.611328125 c 0,2,3
 376.953125 641.6015625 376.953125 641.6015625 368.896484375 635.498046875 c 0,4,5
 360.83984375 629.39453125 360.83984375 629.39453125 353.271484375 626.46484375 c 0,6,7
 345.703125 623.53515625 345.703125 623.53515625 342.7734375 623.046875 c 0,8,9
 341.796875 624.0234375 341.796875 624.0234375 334.716796875 629.150390625 c 0,10,11
 327.63671875 634.27734375 327.63671875 634.27734375 317.626953125 641.357421875 c 0,12,13
 307.6171875 648.4375 307.6171875 648.4375 296.142578125 656.25 c 0,14,15
 284.66796875 664.0625 284.66796875 664.0625 274.90234375 671.142578125 c 0,16,17
 265.13671875 678.22265625 265.13671875 678.22265625 258.30078125 682.861328125 c 0,18,19
 251.46484375 687.5 251.46484375 687.5 250.9765625 687.98828125 c 0,20,21
 240.234375 682.12890625 240.234375 682.12890625 229.736328125 671.38671875 c 0,22,23
 219.23828125 660.64453125 219.23828125 660.64453125 210.693359375 642.578125 c 0,24,25
 202.1484375 624.51171875 202.1484375 624.51171875 197.021484375 598.876953125 c 0,26,27
 191.89453125 573.2421875 191.89453125 573.2421875 191.89453125 538.0859375 c 0,28,-1
 191.89453125 474.12109375 l 0,29,-1
 315.91796875 474.12109375 l 0,30,-1
 315.91796875 422.8515625 l 0,31,-1
 191.89453125 422.8515625 l 0,32,-1
 191.89453125 63.96484375 l 0,33,34
 191.89453125 54.6875 191.89453125 54.6875 197.998046875 48.828125 c 0,35,36
 204.1015625 42.96875 204.1015625 42.96875 212.890625 41.9921875 c 0,37,-1
 271.97265625 39.0625 l 0,38,-1
 271.97265625 0 l 0,39,-1
 28.80859375 0 l 0,40,-1
 28.80859375 39.0625 l 0,41,-1
 78.125 41.9921875 l 0,42,43
 86.9140625 42.96875 86.9140625 42.96875 93.017578125 48.828125 c 0,44,45
 99.12109375 54.6875 99.12109375 54.6875 99.12109375 63.96484375 c 0,46,-1
 99.12109375 422.8515625 l 0,47,-1
 35.15625 422.8515625 l 0,48,-1
 35.15625 458.0078125 l 0,49,-1
 99.12109375 476.07421875 l 0,50,51
 99.12109375 500.9765625 99.12109375 500.9765625 100.830078125 520.751953125 c 0,52,53
 102.5390625 540.52734375 102.5390625 540.52734375 106.689453125 557.861328125 c 0,54,55
 110.83984375 575.1953125 110.83984375 575.1953125 117.1875 591.552734375 c 0,56,57
 123.53515625 607.91015625 123.53515625 607.91015625 132.8125 625.9765625 c 0,58,59
 147.4609375 654.296875 147.4609375 654.296875 166.748046875 675.048828125 c 0,60,61
 186.03515625 695.80078125 186.03515625 695.80078125 208.251953125 709.47265625 c 0,62,63
 230.46875 723.14453125 230.46875 723.14453125 254.638671875 729.98046875 c 0,64,65
 278.80859375 736.81640625 278.80859375 736.81640625 303.22265625 736.81640625 c 0,66,67
 324.21875 736.81640625 324.21875 736.81640625 340.33203125 731.93359375 c 0,68,69
 356.4453125 727.05078125 356.4453125 727.05078125 367.431640625 718.75 c 0,70,71
 378.41796875 710.44921875 378.41796875 710.44921875 383.7890625 699.70703125 c 0,72,73
 389.16015625 688.96484375 389.16015625 688.96484375 389.16015625 676.7578125 c 0,0,1
EndSplineSet
EndChar

StartChar: g
Encoding: 74 103 74
Width: 524
VWidth: 488
Flags: W
LayerCount: 2
Fore
SplineSet
408.203125 415.0390625 m 0,0,1
 419.43359375 396.97265625 419.43359375 396.97265625 427.24609375 375.732421875 c 0,2,3
 435.05859375 354.4921875 435.05859375 354.4921875 435.05859375 325.1953125 c 0,4,5
 435.05859375 285.64453125 435.05859375 285.64453125 416.9921875 254.8828125 c 0,6,7
 398.92578125 224.12109375 398.92578125 224.12109375 368.896484375 203.61328125 c 0,8,9
 338.8671875 183.10546875 338.8671875 183.10546875 300.048828125 173.583984375 c 0,10,11
 261.23046875 164.0625 261.23046875 164.0625 219.23828125 166.9921875 c 0,12,13
 213.37890625 157.2265625 213.37890625 157.2265625 211.181640625 145.99609375 c 0,14,15
 208.984375 134.765625 208.984375 134.765625 208.740234375 125 c 0,16,17
 208.49609375 115.234375 208.49609375 115.234375 209.47265625 108.154296875 c 0,18,19
 210.44921875 101.07421875 210.44921875 101.07421875 210.9375 100.09765625 c 0,20,21
 233.3984375 97.65625 233.3984375 97.65625 262.20703125 94.7265625 c 0,22,23
 291.015625 91.796875 291.015625 91.796875 321.044921875 86.181640625 c 0,24,25
 351.07421875 80.56640625 351.07421875 80.56640625 380.126953125 71.2890625 c 0,26,27
 409.1796875 62.01171875 409.1796875 62.01171875 431.640625 47.119140625 c 0,28,29
 454.1015625 32.2265625 454.1015625 32.2265625 468.017578125 10.986328125 c 0,30,31
 481.93359375 -10.25390625 481.93359375 -10.25390625 481.93359375 -40.0390625 c 0,32,33
 481.93359375 -75.68359375 481.93359375 -75.68359375 461.669921875 -109.619140625 c 0,34,35
 441.40625 -143.5546875 441.40625 -143.5546875 406.25 -170.166015625 c 0,36,37
 371.09375 -196.77734375 371.09375 -196.77734375 323.73046875 -212.890625 c 0,38,39
 276.3671875 -229.00390625 276.3671875 -229.00390625 222.16796875 -229.00390625 c 0,40,41
 177.24609375 -229.00390625 177.24609375 -229.00390625 142.333984375 -218.26171875 c 0,42,43
 107.421875 -207.51953125 107.421875 -207.51953125 83.49609375 -188.4765625 c 0,44,45
 59.5703125 -169.43359375 59.5703125 -169.43359375 46.875 -143.310546875 c 0,46,47
 34.1796875 -117.1875 34.1796875 -117.1875 34.1796875 -86.9140625 c 0,48,49
 34.1796875 -64.94140625 34.1796875 -64.94140625 40.52734375 -45.166015625 c 0,50,51
 46.875 -25.390625 46.875 -25.390625 60.05859375 -9.521484375 c 0,52,53
 73.2421875 6.34765625 73.2421875 6.34765625 93.017578125 17.822265625 c 0,54,55
 112.79296875 29.296875 112.79296875 29.296875 140.13671875 34.1796875 c 0,56,57
 137.20703125 41.9921875 137.20703125 41.9921875 135.25390625 47.119140625 c 0,58,59
 133.30078125 52.24609375 133.30078125 52.24609375 132.080078125 56.884765625 c 0,60,61
 130.859375 61.5234375 130.859375 61.5234375 130.37109375 66.650390625 c 0,62,63
 129.8828125 71.77734375 129.8828125 71.77734375 129.8828125 80.078125 c 0,64,65
 129.8828125 99.609375 129.8828125 99.609375 141.845703125 123.291015625 c 0,66,67
 153.80859375 146.97265625 153.80859375 146.97265625 180.17578125 173.828125 c 0,68,69
 155.2734375 179.6875 155.2734375 179.6875 132.8125 192.3828125 c 0,70,71
 110.3515625 205.078125 110.3515625 205.078125 93.26171875 224.365234375 c 0,72,73
 76.171875 243.65234375 76.171875 243.65234375 66.162109375 268.798828125 c 0,74,75
 56.15234375 293.9453125 56.15234375 293.9453125 56.15234375 324.21875 c 0,76,77
 56.15234375 363.76953125 56.15234375 363.76953125 70.80078125 395.263671875 c 0,78,79
 85.44921875 426.7578125 85.44921875 426.7578125 111.81640625 448.73046875 c 0,80,81
 138.18359375 470.703125 138.18359375 470.703125 175.048828125 482.421875 c 0,82,83
 211.9140625 494.140625 211.9140625 494.140625 256.8359375 494.140625 c 0,84,85
 274.4140625 494.140625 274.4140625 494.140625 291.259765625 491.2109375 c 0,86,87
 308.10546875 488.28125 308.10546875 488.28125 322.998046875 483.642578125 c 0,88,89
 337.890625 479.00390625 337.890625 479.00390625 350.5859375 473.6328125 c 0,90,91
 363.28125 468.26171875 363.28125 468.26171875 373.046875 463.8671875 c 0,92,-1
 507.8125 463.8671875 l 0,93,-1
 507.8125 415.0390625 l 0,94,-1
 408.203125 415.0390625 l 0,0,1
339.84375 331.0546875 m 0,95,96
 339.84375 354.4921875 339.84375 354.4921875 333.740234375 376.708984375 c 0,97,98
 327.63671875 398.92578125 327.63671875 398.92578125 315.91796875 415.771484375 c 0,99,100
 304.19921875 432.6171875 304.19921875 432.6171875 286.865234375 442.87109375 c 0,101,102
 269.53125 453.125 269.53125 453.125 247.0703125 453.125 c 0,103,104
 226.07421875 453.125 226.07421875 453.125 208.49609375 444.82421875 c 0,105,106
 190.91796875 436.5234375 190.91796875 436.5234375 178.466796875 420.654296875 c 0,107,108
 166.015625 404.78515625 166.015625 404.78515625 158.935546875 381.8359375 c 0,109,110
 151.85546875 358.88671875 151.85546875 358.88671875 151.85546875 330.078125 c 0,111,112
 151.85546875 305.17578125 151.85546875 305.17578125 157.958984375 282.958984375 c 0,113,114
 164.0625 260.7421875 164.0625 260.7421875 176.025390625 244.140625 c 0,115,116
 187.98828125 227.5390625 187.98828125 227.5390625 205.810546875 217.7734375 c 0,117,118
 223.6328125 208.0078125 223.6328125 208.0078125 247.0703125 208.0078125 c 0,119,120
 269.53125 208.0078125 269.53125 208.0078125 286.865234375 217.7734375 c 0,121,122
 304.19921875 227.5390625 304.19921875 227.5390625 315.91796875 244.140625 c 0,123,124
 327.63671875 260.7421875 327.63671875 260.7421875 333.740234375 283.203125 c 0,125,126
 339.84375 305.6640625 339.84375 305.6640625 339.84375 331.0546875 c 0,95,96
395.99609375 -66.89453125 m 0,127,128
 395.99609375 -46.38671875 395.99609375 -46.38671875 385.7421875 -31.982421875 c 0,129,130
 375.48828125 -17.578125 375.48828125 -17.578125 358.642578125 -8.30078125 c 0,131,132
 341.796875 0.9765625 341.796875 0.9765625 320.556640625 6.591796875 c 0,133,134
 299.31640625 12.20703125 299.31640625 12.20703125 277.587890625 15.869140625 c 0,135,136
 255.859375 19.53125 255.859375 19.53125 235.3515625 21.728515625 c 0,137,138
 214.84375 23.92578125 214.84375 23.92578125 200.1953125 26.85546875 c 0,139,140
 178.22265625 19.04296875 178.22265625 19.04296875 163.57421875 8.056640625 c 0,141,142
 148.92578125 -2.9296875 148.92578125 -2.9296875 140.13671875 -15.625 c 0,143,144
 131.34765625 -28.3203125 131.34765625 -28.3203125 127.685546875 -41.50390625 c 0,145,146
 124.0234375 -54.6875 124.0234375 -54.6875 124.0234375 -66.89453125 c 0,147,148
 124.0234375 -84.9609375 124.0234375 -84.9609375 131.8359375 -105.46875 c 0,149,150
 139.6484375 -125.9765625 139.6484375 -125.9765625 155.76171875 -143.06640625 c 0,151,152
 171.875 -160.15625 171.875 -160.15625 196.533203125 -171.630859375 c 0,153,154
 221.19140625 -183.10546875 221.19140625 -183.10546875 254.8828125 -183.10546875 c 0,155,156
 290.52734375 -183.10546875 290.52734375 -183.10546875 317.138671875 -171.630859375 c 0,157,158
 343.75 -160.15625 343.75 -160.15625 361.328125 -143.06640625 c 0,159,160
 378.90625 -125.9765625 378.90625 -125.9765625 387.451171875 -105.46875 c 0,161,162
 395.99609375 -84.9609375 395.99609375 -84.9609375 395.99609375 -66.89453125 c 0,127,128
EndSplineSet
EndChar

StartChar: h
Encoding: 75 104 75
Width: 574
VWidth: 488
Flags: W
LayerCount: 2
Fore
SplineSet
328.125 0 m 0,0,-1
 328.125 39.0625 l 0,1,-1
 369.140625 41.9921875 l 0,2,3
 377.9296875 42.96875 377.9296875 42.96875 384.521484375 48.828125 c 0,4,5
 391.11328125 54.6875 391.11328125 54.6875 391.11328125 63.96484375 c 0,6,-1
 391.11328125 321.77734375 l 0,7,8
 391.11328125 343.26171875 391.11328125 343.26171875 386.474609375 361.328125 c 0,9,10
 381.8359375 379.39453125 381.8359375 379.39453125 370.361328125 392.578125 c 0,11,12
 358.88671875 405.76171875 358.88671875 405.76171875 339.84375 413.330078125 c 0,13,14
 320.80078125 420.8984375 320.80078125 420.8984375 291.9921875 420.8984375 c 0,15,16
 278.80859375 420.8984375 278.80859375 420.8984375 264.16015625 418.701171875 c 0,17,18
 249.51171875 416.50390625 249.51171875 416.50390625 235.107421875 412.59765625 c 0,19,20
 220.703125 408.69140625 220.703125 408.69140625 207.275390625 403.3203125 c 0,21,22
 193.84765625 397.94921875 193.84765625 397.94921875 183.10546875 392.08984375 c 0,23,-1
 183.10546875 63.96484375 l 0,24,25
 183.10546875 54.6875 183.10546875 54.6875 188.4765625 48.828125 c 0,26,27
 193.84765625 42.96875 193.84765625 42.96875 203.125 41.9921875 c 0,28,-1
 246.09375 39.0625 l 0,29,-1
 246.09375 0 l 0,30,-1
 20.99609375 0 l 0,31,-1
 20.99609375 39.0625 l 0,32,-1
 68.84765625 41.9921875 l 0,33,34
 78.125 42.96875 78.125 42.96875 83.984375 48.828125 c 0,35,36
 89.84375 54.6875 89.84375 54.6875 89.84375 63.96484375 c 0,37,-1
 89.84375 665.0390625 l 0,38,-1
 15.13671875 665.0390625 l 0,39,-1
 15.13671875 698.2421875 l 0,40,-1
 143.06640625 736.81640625 l 0,41,-1
 183.10546875 736.81640625 l 0,42,-1
 183.10546875 432.12890625 l 0,43,44
 196.77734375 440.4296875 196.77734375 440.4296875 216.796875 451.171875 c 0,45,46
 236.81640625 461.9140625 236.81640625 461.9140625 259.521484375 471.435546875 c 0,47,48
 282.2265625 480.95703125 282.2265625 480.95703125 305.419921875 487.548828125 c 0,49,50
 328.61328125 494.140625 328.61328125 494.140625 348.14453125 494.140625 c 0,51,52
 376.953125 494.140625 376.953125 494.140625 401.611328125 484.86328125 c 0,53,54
 426.26953125 475.5859375 426.26953125 475.5859375 444.580078125 457.03125 c 0,55,56
 462.890625 438.4765625 462.890625 438.4765625 473.388671875 409.912109375 c 0,57,58
 483.88671875 381.34765625 483.88671875 381.34765625 483.88671875 342.7734375 c 0,59,-1
 483.88671875 63.96484375 l 0,60,61
 483.88671875 54.6875 483.88671875 54.6875 490.478515625 48.828125 c 0,62,63
 497.0703125 42.96875 497.0703125 42.96875 505.859375 41.9921875 c 0,64,-1
 550.78125 39.0625 l 0,65,-1
 550.78125 0 l 0,66,-1
 328.125 0 l 0,0,-1
EndSplineSet
EndChar

StartChar: i
Encoding: 76 105 76
Width: 303
VWidth: 488
Flags: W
LayerCount: 2
Fore
SplineSet
217.7734375 646.97265625 m 0,0,1
 217.7734375 634.27734375 217.7734375 634.27734375 213.134765625 622.802734375 c 0,2,3
 208.49609375 611.328125 208.49609375 611.328125 200.1953125 603.02734375 c 0,4,5
 191.89453125 594.7265625 191.89453125 594.7265625 180.908203125 589.84375 c 0,6,7
 169.921875 584.9609375 169.921875 584.9609375 157.2265625 584.9609375 c 0,8,9
 144.53125 584.9609375 144.53125 584.9609375 133.056640625 589.84375 c 0,10,11
 121.58203125 594.7265625 121.58203125 594.7265625 113.28125 603.02734375 c 0,12,13
 104.98046875 611.328125 104.98046875 611.328125 100.09765625 622.802734375 c 0,14,15
 95.21484375 634.27734375 95.21484375 634.27734375 95.21484375 646.97265625 c 0,16,17
 95.21484375 659.66796875 95.21484375 659.66796875 100.09765625 670.8984375 c 0,18,19
 104.98046875 682.12890625 104.98046875 682.12890625 113.28125 690.4296875 c 0,20,21
 121.58203125 698.73046875 121.58203125 698.73046875 133.056640625 703.369140625 c 0,22,23
 144.53125 708.0078125 144.53125 708.0078125 157.2265625 708.0078125 c 0,24,25
 169.921875 708.0078125 169.921875 708.0078125 180.908203125 703.369140625 c 0,26,27
 191.89453125 698.73046875 191.89453125 698.73046875 200.1953125 690.4296875 c 0,28,29
 208.49609375 682.12890625 208.49609375 682.12890625 213.134765625 670.8984375 c 0,30,31
 217.7734375 659.66796875 217.7734375 659.66796875 217.7734375 646.97265625 c 0,0,1
34.1796875 0 m 0,32,-1
 34.1796875 39.0625 l 0,33,-1
 83.0078125 41.9921875 l 0,34,35
 92.28515625 42.96875 92.28515625 42.96875 98.14453125 48.828125 c 0,36,37
 104.00390625 54.6875 104.00390625 54.6875 104.00390625 63.96484375 c 0,38,-1
 104.00390625 420.8984375 l 0,39,-1
 35.15625 420.8984375 l 0,40,-1
 35.15625 456.0546875 l 0,41,-1
 157.2265625 494.140625 l 0,42,-1
 196.77734375 494.140625 l 0,43,-1
 196.77734375 63.96484375 l 0,44,45
 196.77734375 54.6875 196.77734375 54.6875 202.880859375 48.828125 c 0,46,47
 208.984375 42.96875 208.984375 42.96875 217.7734375 41.9921875 c 0,48,-1
 269.04296875 39.0625 l 0,49,-1
 269.04296875 0 l 0,50,-1
 34.1796875 0 l 0,32,-1
EndSplineSet
EndChar

StartChar: j
Encoding: 77 106 77
Width: 291
VWidth: 488
Flags: W
LayerCount: 2
Fore
SplineSet
212.890625 646.97265625 m 0,0,1
 212.890625 634.27734375 212.890625 634.27734375 208.251953125 622.802734375 c 0,2,3
 203.61328125 611.328125 203.61328125 611.328125 195.3125 603.02734375 c 0,4,5
 187.01171875 594.7265625 187.01171875 594.7265625 175.78125 589.84375 c 0,6,7
 164.55078125 584.9609375 164.55078125 584.9609375 151.85546875 584.9609375 c 0,8,9
 139.16015625 584.9609375 139.16015625 584.9609375 127.9296875 589.84375 c 0,10,11
 116.69921875 594.7265625 116.69921875 594.7265625 108.154296875 603.02734375 c 0,12,13
 99.609375 611.328125 99.609375 611.328125 94.7265625 622.802734375 c 0,14,15
 89.84375 634.27734375 89.84375 634.27734375 89.84375 646.97265625 c 0,16,17
 89.84375 659.66796875 89.84375 659.66796875 94.7265625 670.8984375 c 0,18,19
 99.609375 682.12890625 99.609375 682.12890625 108.154296875 690.4296875 c 0,20,21
 116.69921875 698.73046875 116.69921875 698.73046875 127.9296875 703.369140625 c 0,22,23
 139.16015625 708.0078125 139.16015625 708.0078125 151.85546875 708.0078125 c 0,24,25
 164.55078125 708.0078125 164.55078125 708.0078125 175.78125 703.369140625 c 0,26,27
 187.01171875 698.73046875 187.01171875 698.73046875 195.3125 690.4296875 c 0,28,29
 203.61328125 682.12890625 203.61328125 682.12890625 208.251953125 670.8984375 c 0,30,31
 212.890625 659.66796875 212.890625 659.66796875 212.890625 646.97265625 c 0,0,1
202.1484375 63.96484375 m 0,32,33
 202.1484375 41.50390625 202.1484375 41.50390625 200.68359375 14.892578125 c 0,34,35
 199.21875 -11.71875 199.21875 -11.71875 195.068359375 -38.57421875 c 0,36,37
 190.91796875 -65.4296875 190.91796875 -65.4296875 183.349609375 -90.8203125 c 0,38,39
 175.78125 -116.2109375 175.78125 -116.2109375 163.0859375 -136.23046875 c 0,40,41
 132.32421875 -183.59375 132.32421875 -183.59375 88.37890625 -206.298828125 c 0,42,43
 44.43359375 -229.00390625 44.43359375 -229.00390625 -2.9296875 -229.00390625 c 0,44,45
 -18.5546875 -229.00390625 -18.5546875 -229.00390625 -32.2265625 -225.830078125 c 0,46,47
 -45.8984375 -222.65625 -45.8984375 -222.65625 -56.396484375 -215.8203125 c 0,48,49
 -66.89453125 -208.984375 -66.89453125 -208.984375 -72.998046875 -198.486328125 c 0,50,51
 -79.1015625 -187.98828125 -79.1015625 -187.98828125 -79.1015625 -173.828125 c 0,52,53
 -79.1015625 -161.1328125 -79.1015625 -161.1328125 -75.1953125 -151.611328125 c 0,54,55
 -71.2890625 -142.08984375 -71.2890625 -142.08984375 -65.185546875 -135.009765625 c 0,56,57
 -59.08203125 -127.9296875 -59.08203125 -127.9296875 -51.26953125 -123.291015625 c 0,58,59
 -43.45703125 -118.65234375 -43.45703125 -118.65234375 -36.1328125 -116.2109375 c 0,60,-1
 61.03515625 -183.10546875 l 0,61,62
 74.70703125 -175.29296875 74.70703125 -175.29296875 83.984375 -159.912109375 c 0,63,64
 93.26171875 -144.53125 93.26171875 -144.53125 98.876953125 -123.291015625 c 0,65,66
 104.4921875 -102.05078125 104.4921875 -102.05078125 106.689453125 -75.927734375 c 0,67,68
 108.88671875 -49.8046875 108.88671875 -49.8046875 108.88671875 -20.99609375 c 0,69,-1
 108.88671875 422.8515625 l 0,70,-1
 38.0859375 422.8515625 l 0,71,-1
 38.0859375 456.0546875 l 0,72,-1
 161.1328125 494.140625 l 0,73,-1
 202.1484375 494.140625 l 0,74,-1
 202.1484375 63.96484375 l 0,32,33
EndSplineSet
EndChar

StartChar: k
Encoding: 78 107 78
Width: 534
VWidth: 488
Flags: W
LayerCount: 2
Fore
SplineSet
363.76953125 0 m 0,0,-1
 363.76953125 39.0625 l 0,1,-1
 238.76953125 227.05078125 l 0,2,-1
 183.10546875 227.05078125 l 0,3,-1
 183.10546875 63.96484375 l 0,4,5
 183.10546875 54.6875 183.10546875 54.6875 188.96484375 48.828125 c 0,6,7
 194.82421875 42.96875 194.82421875 42.96875 204.1015625 41.9921875 c 0,8,-1
 247.0703125 39.0625 l 0,9,-1
 247.0703125 0 l 0,10,-1
 20.01953125 0 l 0,11,-1
 20.01953125 39.0625 l 0,12,-1
 68.84765625 41.9921875 l 0,13,14
 78.125 42.96875 78.125 42.96875 83.984375 48.828125 c 0,15,16
 89.84375 54.6875 89.84375 54.6875 89.84375 63.96484375 c 0,17,-1
 89.84375 665.0390625 l 0,18,-1
 14.16015625 665.0390625 l 0,19,-1
 14.16015625 698.2421875 l 0,20,-1
 142.08984375 736.81640625 l 0,21,-1
 183.10546875 736.81640625 l 0,22,-1
 183.10546875 255.859375 l 0,23,-1
 203.125 255.859375 l 0,24,-1
 350.09765625 421.875 l 0,25,26
 354.00390625 426.7578125 354.00390625 426.7578125 351.318359375 432.373046875 c 0,27,28
 348.6328125 437.98828125 348.6328125 437.98828125 341.796875 438.96484375 c 0,29,-1
 300.78125 442.87109375 l 0,30,-1
 300.78125 481.93359375 l 0,31,-1
 495.1171875 481.93359375 l 0,32,-1
 495.1171875 442.87109375 l 0,33,-1
 431.15234375 436.03515625 l 0,34,-1
 298.828125 294.921875 l 0,35,-1
 471.19140625 44.921875 l 0,36,-1
 523.92578125 39.0625 l 0,37,-1
 523.92578125 0 l 0,38,-1
 363.76953125 0 l 0,0,-1
EndSplineSet
EndChar

StartChar: l
Encoding: 79 108 79
Width: 296
VWidth: 488
Flags: W
LayerCount: 2
Fore
SplineSet
26.85546875 0 m 0,0,-1
 26.85546875 39.0625 l 0,1,-1
 80.078125 41.9921875 l 0,2,3
 86.9140625 41.9921875 86.9140625 41.9921875 94.482421875 49.072265625 c 0,4,5
 102.05078125 56.15234375 102.05078125 56.15234375 102.05078125 62.98828125 c 0,6,-1
 102.05078125 665.0390625 l 0,7,-1
 25.87890625 665.0390625 l 0,8,-1
 25.87890625 698.2421875 l 0,9,-1
 153.80859375 736.81640625 l 0,10,-1
 194.82421875 736.81640625 l 0,11,-1
 194.82421875 62.98828125 l 0,12,13
 194.82421875 56.15234375 194.82421875 56.15234375 201.904296875 49.072265625 c 0,14,15
 208.984375 41.9921875 208.984375 41.9921875 215.8203125 41.9921875 c 0,16,-1
 270.01953125 39.0625 l 0,17,-1
 270.01953125 0 l 0,18,-1
 26.85546875 0 l 0,0,-1
EndSplineSet
EndChar

StartChar: m
Encoding: 80 109 80
Width: 850
VWidth: 488
Flags: W
LayerCount: 2
Fore
SplineSet
604.00390625 0 m 0,0,-1
 604.00390625 39.0625 l 0,1,-1
 645.99609375 41.9921875 l 0,2,3
 655.2734375 42.96875 655.2734375 42.96875 661.1328125 48.828125 c 0,4,5
 666.9921875 54.6875 666.9921875 54.6875 666.9921875 63.96484375 c 0,6,-1
 666.9921875 318.84765625 l 0,7,8
 666.9921875 342.28515625 666.9921875 342.28515625 662.59765625 361.083984375 c 0,9,10
 658.203125 379.8828125 658.203125 379.8828125 647.705078125 393.06640625 c 0,11,12
 637.20703125 406.25 637.20703125 406.25 620.1171875 413.57421875 c 0,13,14
 603.02734375 420.8984375 603.02734375 420.8984375 578.125 420.8984375 c 0,15,16
 565.4296875 420.8984375 565.4296875 420.8984375 551.513671875 418.701171875 c 0,17,18
 537.59765625 416.50390625 537.59765625 416.50390625 523.681640625 412.841796875 c 0,19,20
 509.765625 409.1796875 509.765625 409.1796875 496.337890625 404.052734375 c 0,21,22
 482.91015625 398.92578125 482.91015625 398.92578125 471.19140625 393.06640625 c 0,23,-1
 471.19140625 63.96484375 l 0,24,25
 471.19140625 54.6875 471.19140625 54.6875 477.05078125 48.828125 c 0,26,27
 482.91015625 42.96875 482.91015625 42.96875 492.1875 41.9921875 c 0,28,-1
 534.1796875 39.0625 l 0,29,-1
 534.1796875 0 l 0,30,-1
 314.94140625 0 l 0,31,-1
 314.94140625 39.0625 l 0,32,-1
 356.93359375 41.9921875 l 0,33,34
 366.2109375 42.96875 366.2109375 42.96875 372.0703125 48.828125 c 0,35,36
 377.9296875 54.6875 377.9296875 54.6875 377.9296875 63.96484375 c 0,37,-1
 377.9296875 325.1953125 l 0,38,39
 377.9296875 346.19140625 377.9296875 346.19140625 373.291015625 364.013671875 c 0,40,41
 368.65234375 381.8359375 368.65234375 381.8359375 358.154296875 394.287109375 c 0,42,43
 347.65625 406.73828125 347.65625 406.73828125 330.810546875 413.818359375 c 0,44,45
 313.96484375 420.8984375 313.96484375 420.8984375 290.0390625 420.8984375 c 0,46,47
 275.87890625 420.8984375 275.87890625 420.8984375 260.498046875 418.212890625 c 0,48,49
 245.1171875 415.52734375 245.1171875 415.52734375 230.95703125 411.376953125 c 0,50,51
 216.796875 407.2265625 216.796875 407.2265625 204.345703125 402.099609375 c 0,52,53
 191.89453125 396.97265625 191.89453125 396.97265625 183.10546875 392.08984375 c 0,54,-1
 183.10546875 63.96484375 l 0,55,56
 183.10546875 54.6875 183.10546875 54.6875 188.96484375 48.828125 c 0,57,58
 194.82421875 42.96875 194.82421875 42.96875 204.1015625 41.9921875 c 0,59,-1
 246.09375 39.0625 l 0,60,-1
 246.09375 0 l 0,61,-1
 20.01953125 0 l 0,62,-1
 20.01953125 39.0625 l 0,63,-1
 68.84765625 41.9921875 l 0,64,65
 78.125 42.96875 78.125 42.96875 83.984375 48.828125 c 0,66,67
 89.84375 54.6875 89.84375 54.6875 89.84375 63.96484375 c 0,68,-1
 89.84375 411.1328125 l 0,69,-1
 20.99609375 411.1328125 l 0,70,-1
 20.99609375 443.84765625 l 0,71,-1
 142.08984375 481.93359375 l 0,72,-1
 183.10546875 481.93359375 l 0,73,-1
 183.10546875 432.12890625 l 0,74,75
 199.70703125 442.3828125 199.70703125 442.3828125 219.970703125 453.125 c 0,76,77
 240.234375 463.8671875 240.234375 463.8671875 261.71875 473.14453125 c 0,78,79
 283.203125 482.421875 283.203125 482.421875 304.931640625 488.28125 c 0,80,81
 326.66015625 494.140625 326.66015625 494.140625 346.19140625 494.140625 c 0,82,83
 367.67578125 494.140625 367.67578125 494.140625 385.25390625 488.037109375 c 0,84,85
 402.83203125 481.93359375 402.83203125 481.93359375 416.259765625 471.923828125 c 0,86,87
 429.6875 461.9140625 429.6875 461.9140625 439.697265625 449.462890625 c 0,88,89
 449.70703125 437.01171875 449.70703125 437.01171875 456.0546875 424.8046875 c 0,90,91
 471.19140625 434.08203125 471.19140625 434.08203125 492.67578125 446.2890625 c 0,92,93
 514.16015625 458.49609375 514.16015625 458.49609375 538.0859375 468.994140625 c 0,94,95
 562.01171875 479.4921875 562.01171875 479.4921875 585.9375 486.81640625 c 0,96,97
 609.86328125 494.140625 609.86328125 494.140625 629.8828125 494.140625 c 0,98,99
 669.43359375 494.140625 669.43359375 494.140625 694.3359375 479.736328125 c 0,100,101
 719.23828125 465.33203125 719.23828125 465.33203125 733.642578125 443.115234375 c 0,102,103
 748.046875 420.8984375 748.046875 420.8984375 753.41796875 393.5546875 c 0,104,105
 758.7890625 366.2109375 758.7890625 366.2109375 758.7890625 340.8203125 c 0,106,-1
 758.7890625 63.96484375 l 0,107,108
 758.7890625 54.6875 758.7890625 54.6875 764.892578125 48.828125 c 0,109,110
 770.99609375 42.96875 770.99609375 42.96875 779.78515625 41.9921875 c 0,111,-1
 828.125 39.0625 l 0,112,-1
 828.125 0 l 0,113,-1
 604.00390625 0 l 0,0,-1
EndSplineSet
EndChar

StartChar: n
Encoding: 81 110 81
Width: 566
VWidth: 488
Flags: W
LayerCount: 2
Fore
SplineSet
326.171875 0 m 0,0,-1
 326.171875 39.0625 l 0,1,-1
 368.1640625 41.9921875 l 0,2,3
 376.953125 42.96875 376.953125 42.96875 383.056640625 48.828125 c 0,4,5
 389.16015625 54.6875 389.16015625 54.6875 389.16015625 63.96484375 c 0,6,-1
 389.16015625 324.21875 l 0,7,8
 389.16015625 371.58203125 389.16015625 371.58203125 367.1875 396.240234375 c 0,9,10
 345.21484375 420.8984375 345.21484375 420.8984375 292.96875 420.8984375 c 0,11,12
 264.16015625 420.8984375 264.16015625 420.8984375 236.328125 412.841796875 c 0,13,14
 208.49609375 404.78515625 208.49609375 404.78515625 183.10546875 392.08984375 c 0,15,-1
 183.10546875 63.96484375 l 0,16,17
 183.10546875 54.6875 183.10546875 54.6875 188.96484375 48.828125 c 0,18,19
 194.82421875 42.96875 194.82421875 42.96875 204.1015625 41.9921875 c 0,20,-1
 246.09375 39.0625 l 0,21,-1
 246.09375 0 l 0,22,-1
 20.01953125 0 l 0,23,-1
 20.01953125 39.0625 l 0,24,-1
 68.84765625 41.9921875 l 0,25,26
 78.125 42.96875 78.125 42.96875 83.984375 48.828125 c 0,27,28
 89.84375 54.6875 89.84375 54.6875 89.84375 63.96484375 c 0,29,-1
 89.84375 411.1328125 l 0,30,-1
 20.01953125 411.1328125 l 0,31,-1
 20.01953125 443.84765625 l 0,32,-1
 142.08984375 481.93359375 l 0,33,-1
 183.10546875 481.93359375 l 0,34,-1
 183.10546875 432.12890625 l 0,35,36
 204.1015625 443.84765625 204.1015625 443.84765625 225.830078125 455.078125 c 0,37,38
 247.55859375 466.30859375 247.55859375 466.30859375 269.04296875 475.09765625 c 0,39,40
 290.52734375 483.88671875 290.52734375 483.88671875 310.546875 489.013671875 c 0,41,42
 330.56640625 494.140625 330.56640625 494.140625 348.14453125 494.140625 c 0,43,44
 413.57421875 494.140625 413.57421875 494.140625 447.75390625 453.61328125 c 0,45,46
 481.93359375 413.0859375 481.93359375 413.0859375 481.93359375 339.84375 c 0,47,-1
 481.93359375 63.96484375 l 0,48,49
 481.93359375 54.6875 481.93359375 54.6875 488.037109375 48.828125 c 0,50,51
 494.140625 42.96875 494.140625 42.96875 502.9296875 41.9921875 c 0,52,-1
 546.875 39.0625 l 0,53,-1
 546.875 0 l 0,54,-1
 326.171875 0 l 0,0,-1
EndSplineSet
EndChar

StartChar: o
Encoding: 82 111 82
Width: 543
VWidth: 488
Flags: W
LayerCount: 2
Fore
SplineSet
509.765625 240.234375 m 0,0,1
 509.765625 187.01171875 509.765625 187.01171875 492.919921875 140.869140625 c 0,2,3
 476.07421875 94.7265625 476.07421875 94.7265625 445.068359375 60.791015625 c 0,4,5
 414.0625 26.85546875 414.0625 26.85546875 369.873046875 7.32421875 c 0,6,7
 325.68359375 -12.20703125 325.68359375 -12.20703125 270.99609375 -12.20703125 c 0,8,9
 216.30859375 -12.20703125 216.30859375 -12.20703125 172.36328125 7.080078125 c 0,10,11
 128.41796875 26.3671875 128.41796875 26.3671875 97.65625 60.05859375 c 0,12,13
 66.89453125 93.75 66.89453125 93.75 50.537109375 139.892578125 c 0,14,15
 34.1796875 186.03515625 34.1796875 186.03515625 34.1796875 240.234375 c 0,16,17
 34.1796875 293.45703125 34.1796875 293.45703125 50.78125 339.84375 c 0,18,19
 67.3828125 386.23046875 67.3828125 386.23046875 98.6328125 420.654296875 c 0,20,21
 129.8828125 455.078125 129.8828125 455.078125 174.072265625 474.609375 c 0,22,23
 218.26171875 494.140625 218.26171875 494.140625 273.92578125 494.140625 c 0,24,25
 329.58984375 494.140625 329.58984375 494.140625 373.53515625 474.12109375 c 0,26,27
 417.48046875 454.1015625 417.48046875 454.1015625 447.75390625 419.677734375 c 0,28,29
 478.02734375 385.25390625 478.02734375 385.25390625 493.896484375 339.111328125 c 0,30,31
 509.765625 292.96875 509.765625 292.96875 509.765625 240.234375 c 0,0,1
405.76171875 241.2109375 m 0,32,33
 405.76171875 282.2265625 405.76171875 282.2265625 397.705078125 319.82421875 c 0,34,35
 389.6484375 357.421875 389.6484375 357.421875 373.046875 386.23046875 c 0,36,37
 356.4453125 415.0390625 356.4453125 415.0390625 331.54296875 432.12890625 c 0,38,39
 306.640625 449.21875 306.640625 449.21875 272.94921875 449.21875 c 0,40,41
 238.28125 449.21875 238.28125 449.21875 212.890625 432.12890625 c 0,42,43
 187.5 415.0390625 187.5 415.0390625 171.142578125 386.23046875 c 0,44,45
 154.78515625 357.421875 154.78515625 357.421875 146.97265625 319.82421875 c 0,46,47
 139.16015625 282.2265625 139.16015625 282.2265625 139.16015625 241.2109375 c 0,48,49
 139.16015625 200.68359375 139.16015625 200.68359375 147.216796875 163.0859375 c 0,50,51
 155.2734375 125.48828125 155.2734375 125.48828125 171.875 96.6796875 c 0,52,53
 188.4765625 67.87109375 188.4765625 67.87109375 213.37890625 50.537109375 c 0,54,55
 238.28125 33.203125 238.28125 33.203125 271.97265625 33.203125 c 0,56,57
 306.15234375 33.203125 306.15234375 33.203125 331.54296875 50.29296875 c 0,58,59
 356.93359375 67.3828125 356.93359375 67.3828125 373.291015625 96.19140625 c 0,60,61
 389.6484375 125 389.6484375 125 397.705078125 162.59765625 c 0,62,63
 405.76171875 200.1953125 405.76171875 200.1953125 405.76171875 241.2109375 c 0,32,33
EndSplineSet
EndChar

StartChar: p
Encoding: 83 112 83
Width: 559
VWidth: 488
Flags: W
LayerCount: 2
Fore
SplineSet
524.90234375 248.046875 m 0,0,1
 524.90234375 188.96484375 524.90234375 188.96484375 507.568359375 140.869140625 c 0,2,3
 490.234375 92.7734375 490.234375 92.7734375 457.763671875 58.837890625 c 0,4,5
 425.29296875 24.90234375 425.29296875 24.90234375 378.173828125 6.34765625 c 0,6,7
 331.0546875 -12.20703125 331.0546875 -12.20703125 271.97265625 -12.20703125 c 0,8,9
 258.30078125 -12.20703125 258.30078125 -12.20703125 242.67578125 -10.986328125 c 0,10,11
 227.05078125 -9.765625 227.05078125 -9.765625 213.8671875 -7.8125 c 0,12,13
 198.2421875 -5.859375 198.2421875 -5.859375 183.10546875 -2.9296875 c 0,14,-1
 183.10546875 -151.85546875 l 0,15,16
 183.10546875 -161.1328125 183.10546875 -161.1328125 189.453125 -166.50390625 c 0,17,18
 195.80078125 -171.875 195.80078125 -171.875 205.078125 -172.8515625 c 0,19,-1
 264.16015625 -179.19921875 l 0,20,-1
 264.16015625 -217.7734375 l 0,21,-1
 20.99609375 -217.7734375 l 0,22,-1
 20.99609375 -179.19921875 l 0,23,-1
 68.84765625 -172.8515625 l 0,24,25
 78.125 -171.875 78.125 -171.875 83.984375 -166.50390625 c 0,26,27
 89.84375 -161.1328125 89.84375 -161.1328125 89.84375 -151.85546875 c 0,28,-1
 89.84375 411.1328125 l 0,29,-1
 20.99609375 411.1328125 l 0,30,-1
 20.99609375 443.84765625 l 0,31,-1
 144.04296875 481.93359375 l 0,32,-1
 183.10546875 481.93359375 l 0,33,-1
 183.10546875 432.12890625 l 0,34,35
 204.58984375 449.21875 204.58984375 449.21875 229.00390625 462.890625 c 0,36,37
 250 474.609375 250 474.609375 277.34375 484.375 c 0,38,39
 304.6875 494.140625 304.6875 494.140625 333.984375 494.140625 c 0,40,41
 372.55859375 494.140625 372.55859375 494.140625 407.2265625 476.5625 c 0,42,43
 441.89453125 458.984375 441.89453125 458.984375 468.017578125 426.7578125 c 0,44,45
 494.140625 394.53125 494.140625 394.53125 509.521484375 349.12109375 c 0,46,47
 524.90234375 303.7109375 524.90234375 303.7109375 524.90234375 248.046875 c 0,0,1
424.8046875 233.88671875 m 0,48,49
 424.8046875 272.4609375 424.8046875 272.4609375 415.771484375 306.884765625 c 0,50,51
 406.73828125 341.30859375 406.73828125 341.30859375 389.16015625 367.431640625 c 0,52,53
 371.58203125 393.5546875 371.58203125 393.5546875 345.458984375 408.69140625 c 0,54,55
 319.3359375 423.828125 319.3359375 423.828125 285.15625 423.828125 c 0,56,57
 266.11328125 423.828125 266.11328125 423.828125 247.802734375 418.9453125 c 0,58,59
 229.4921875 414.0625 229.4921875 414.0625 215.33203125 408.69140625 c 0,60,61
 198.73046875 402.34375 198.73046875 402.34375 183.10546875 394.04296875 c 0,62,-1
 183.10546875 49.8046875 l 0,63,64
 194.82421875 45.41015625 194.82421875 45.41015625 208.0078125 41.9921875 c 0,65,66
 219.23828125 39.0625 219.23828125 39.0625 233.88671875 36.62109375 c 0,67,68
 248.53515625 34.1796875 248.53515625 34.1796875 264.16015625 34.1796875 c 0,69,70
 305.17578125 34.1796875 305.17578125 34.1796875 335.44921875 50.78125 c 0,71,72
 365.72265625 67.3828125 365.72265625 67.3828125 385.498046875 94.970703125 c 0,73,74
 405.2734375 122.55859375 405.2734375 122.55859375 415.0390625 158.69140625 c 0,75,76
 424.8046875 194.82421875 424.8046875 194.82421875 424.8046875 233.88671875 c 0,48,49
EndSplineSet
EndChar

StartChar: q
Encoding: 84 113 84
Width: 548
VWidth: 488
Flags: W
LayerCount: 2
Fore
SplineSet
291.9921875 -217.7734375 m 0,0,-1
 291.9921875 -180.17578125 l 0,1,-1
 351.07421875 -174.8046875 l 0,2,3
 359.86328125 -173.828125 359.86328125 -173.828125 365.966796875 -168.45703125 c 0,4,5
 372.0703125 -163.0859375 372.0703125 -163.0859375 372.0703125 -153.80859375 c 0,6,-1
 372.0703125 26.85546875 l 0,7,8
 357.91015625 20.01953125 357.91015625 20.01953125 340.8203125 13.18359375 c 0,9,10
 323.73046875 6.34765625 323.73046875 6.34765625 304.931640625 0.732421875 c 0,11,12
 286.1328125 -4.8828125 286.1328125 -4.8828125 267.333984375 -8.544921875 c 0,13,14
 248.53515625 -12.20703125 248.53515625 -12.20703125 231.93359375 -12.20703125 c 0,15,16
 185.546875 -12.20703125 185.546875 -12.20703125 148.92578125 6.8359375 c 0,17,18
 112.3046875 25.87890625 112.3046875 25.87890625 86.9140625 58.59375 c 0,19,20
 61.5234375 91.30859375 61.5234375 91.30859375 47.8515625 135.25390625 c 0,21,22
 34.1796875 179.19921875 34.1796875 179.19921875 34.1796875 229.00390625 c 0,23,24
 34.1796875 290.0390625 34.1796875 290.0390625 53.7109375 339.111328125 c 0,25,26
 73.2421875 388.18359375 73.2421875 388.18359375 110.3515625 422.607421875 c 0,27,28
 147.4609375 457.03125 147.4609375 457.03125 201.171875 475.5859375 c 0,29,30
 254.8828125 494.140625 254.8828125 494.140625 323.2421875 494.140625 c 0,31,32
 336.9140625 494.140625 336.9140625 494.140625 354.98046875 492.919921875 c 0,33,34
 373.046875 491.69921875 373.046875 491.69921875 392.08984375 489.74609375 c 0,35,36
 411.1328125 487.79296875 411.1328125 487.79296875 430.17578125 484.619140625 c 0,37,38
 449.21875 481.4453125 449.21875 481.4453125 464.84375 478.02734375 c 0,39,-1
 464.84375 -153.80859375 l 0,40,41
 464.84375 -163.0859375 464.84375 -163.0859375 470.947265625 -168.212890625 c 0,42,43
 477.05078125 -173.33984375 477.05078125 -173.33984375 485.83984375 -174.8046875 c 0,44,-1
 534.1796875 -180.17578125 l 0,45,-1
 534.1796875 -217.7734375 l 0,46,-1
 291.9921875 -217.7734375 l 0,0,-1
372.0703125 437.01171875 m 0,47,48
 358.3984375 439.94140625 358.3984375 439.94140625 341.064453125 444.091796875 c 0,49,50
 323.73046875 448.2421875 323.73046875 448.2421875 303.22265625 448.2421875 c 0,51,52
 262.20703125 448.2421875 262.20703125 448.2421875 230.712890625 433.59375 c 0,53,54
 199.21875 418.9453125 199.21875 418.9453125 177.978515625 392.333984375 c 0,55,56
 156.73828125 365.72265625 156.73828125 365.72265625 145.751953125 328.369140625 c 0,57,58
 134.765625 291.015625 134.765625 291.015625 134.765625 245.1171875 c 0,59,60
 134.765625 206.54296875 134.765625 206.54296875 143.310546875 170.654296875 c 0,61,62
 151.85546875 134.765625 151.85546875 134.765625 170.166015625 107.421875 c 0,63,64
 188.4765625 80.078125 188.4765625 80.078125 217.041015625 63.4765625 c 0,65,66
 245.60546875 46.875 245.60546875 46.875 286.1328125 46.875 c 0,67,68
 295.41015625 46.875 295.41015625 46.875 306.884765625 48.095703125 c 0,69,70
 318.359375 49.31640625 318.359375 49.31640625 330.078125 51.26953125 c 0,71,72
 341.796875 53.22265625 341.796875 53.22265625 352.783203125 55.908203125 c 0,73,74
 363.76953125 58.59375 363.76953125 58.59375 372.0703125 61.03515625 c 0,75,-1
 372.0703125 437.01171875 l 0,47,48
EndSplineSet
EndChar

